<svg id="Calque_1" data-name="Calque 1" xmlns="http://www.w3.org/2000/svg" viewBox="0 0 595.28 841.89"><defs><style>.cls-1,.cls-2,.cls-3{fill:none;}.cls-2,.cls-3{stroke:#000100;stroke-linecap:round;stroke-linejoin:round;}.cls-2{stroke-width:0.5px;}.cls-4{fill:#000100;}</style></defs><rect class="cls-1" x="399.64" y="261.96" width="42.52" height="42.52"/><line class="cls-2" x1="446.73" y1="226.7" x2="448.55" y2="230.33"/><path class="cls-2" d="M447.73,242c1,.14,2.1-1.44,2-2.83"/><path class="cls-2" d="M148.59,619c-.1,1.4,1,3,2,2.84"/><path class="cls-2" d="M440.83,644.23a.92.92,0,0,1-.79.37"/><path class="cls-2" d="M440.9,214.24c0-.29-.44-.63-.86-.6"/><line class="cls-2" x1="454.4" y1="688.86" x2="452.85" y2="689.15"/><line class="cls-2" x1="446.95" y1="223.04" x2="447.44" y2="222.55"/><polyline class="cls-2" points="459.55 231.55 459.55 252.99 459.55 265.71 459.55 273.37 459.55 275.2"/><path class="cls-2" d="M449.73,619c.1,1.4-1,3-2,2.84"/><path class="cls-2" d="M447.73,261.88c-1-.14-2.11,1.44-2,2.83-.1,1.4,1,3,2,2.84"/><path class="cls-2" d="M162.33,621a.53.53,0,0,1,.69-.23"/><path class="cls-2" d="M447.73,621.88c-1,.14-2.11-1.44-2-2.84-.1-1.39,1-3,2-2.83"/><line class="cls-2" x1="445.03" y1="633.02" x2="445.35" y2="632.7"/><path class="cls-2" d="M457.55,697.34a.91.91,0,0,0,.4-.8"/><path class="cls-2" d="M406.88,221.86c-1.4-.1-3,1-2.84,2"/><path class="cls-2" d="M447.73,596.36c-1,.15-2.11-1.44-2-2.83-.1-1.39,1-3,2-2.84"/><line class="cls-2" x1="148.88" y1="266.85" x2="149.15" y2="266.31"/><line class="cls-2" x1="138.77" y1="213.64" x2="140.37" y2="212.04"/><line class="cls-2" x1="178.53" y1="628.57" x2="163.78" y2="621.19"/><path class="cls-2" d="M457.35,230.69a.61.61,0,0,1,.49.36"/><path class="cls-2" d="M149.77,230.33a.56.56,0,0,1-.49.36"/><path class="cls-2" d="M201.93,646.2c.42,0,.9-.3.85-.6"/><path class="cls-2" d="M138.77,583c0-.42.31-.89.6-.85"/><line class="cls-2" x1="143.18" y1="214.84" x2="143.78" y2="215.44"/><path class="cls-2" d="M163.13,223.57c.1-.93,1.58-1.78,2.8-1.71"/><polyline class="cls-2" points="146.19 221.06 146.6 221.47 147.06 221.93"/><line class="cls-2" x1="139.37" y1="582.19" x2="140.97" y2="582.19"/><path class="cls-2" d="M404,634.38c-.14-1,1.44-2.11,2.84-2,1.39-.1,3,1,2.83,2"/><path class="cls-2" d="M458,275.2c0,.42-.3.89-.6.85"/><line class="cls-2" x1="152.37" y1="643.83" x2="148.87" y2="682.9"/><line class="cls-2" x1="453.14" y1="207.22" x2="440.9" y2="207.22"/><path class="cls-2" d="M441.25,635.2a.58.58,0,0,0-.35.49"/><polyline class="cls-2" points="440.04 646.2 418.6 646.2 405.88 646.2 398.22 646.2 396.39 646.2"/><path class="cls-2" d="M396.39,644.6c-.42,0-.89-.3-.85-.6"/><line class="cls-2" x1="153.43" y1="224.86" x2="157.07" y2="223.04"/><line class="cls-2" x1="145.53" y1="688.86" x2="147.6" y2="689.24"/><line class="cls-2" x1="153.43" y1="633.38" x2="157.07" y2="635.2"/><line class="cls-2" x1="147.21" y1="222.08" x2="139.37" y2="214.24"/><path class="cls-2" d="M440.9,645.6c0,.3-.44.64-.86.6"/><path class="cls-2" d="M459.55,583c0-.42-.3-.89-.6-.85h-1.6"/><path class="cls-2" d="M440.9,212.64c0-.3-.44-.63-.86-.6"/><path class="cls-2" d="M452.28,683.24c1-.32,2.22,1,2.25,2.45.22,1.36-.74,3.14-1.74,3.17"/><line class="cls-2" x1="444.9" y1="632" x2="444.98" y2="632.87"/><polyline class="cls-2" points="440.04 212.04 418.6 212.04 405.88 212.04 398.22 212.04 396.39 212.04"/><line class="cls-2" x1="444.98" y1="632.87" x2="445.29" y2="636.41"/><path class="cls-2" d="M139,697.14a1.06,1.06,0,0,1-.18-.6"/><path class="cls-2" d="M449.73,264.71c.1-1.39-1-3-2-2.83"/><path class="cls-2" d="M449.73,593.53c.1,1.39-1,3-2,2.83"/><path class="cls-2" d="M447.73,267.55c1,.14,2.1-1.44,2-2.84"/><path class="cls-2" d="M447.73,616.21c1-.14,2.1,1.44,2,2.83"/><path class="cls-2" d="M447.73,590.69c1-.14,2.1,1.45,2,2.84"/><path class="cls-2" d="M447.73,236.36c-1-.14-2.11,1.44-2,2.84-.1,1.39,1,3,2,2.83"/><path class="cls-2" d="M194.28,223.86c.14,1-1.44,2.11-2.83,2-1.4.1-3-1-2.84-2"/><path class="cls-2" d="M404,223.86c-.14,1,1.44,2.11,2.84,2,1.39.1,3-1,2.83-2"/><polyline class="cls-2" points="445.29 636.41 445.96 643.83 449.45 682.9"/><line class="cls-2" x1="449.24" y1="591.79" x2="448.41" y2="593.46"/><line class="cls-2" x1="146.93" y1="697.39" x2="140.97" y2="697.39"/><line class="cls-2" x1="153.88" y1="632" x2="157.07" y2="633.6"/><line class="cls-2" x1="193.58" y1="636.09" x2="193.02" y2="635.81"/><line class="cls-2" x1="419.85" y1="628.54" x2="434.54" y2="621.19"/><path class="cls-2" d="M429.56,634.38c-.14-1,1.44-2.11,2.83-2,1.4-.1,3,1,2.84,2"/><path class="cls-2" d="M157.07,223a.57.57,0,0,0,.36-.49"/><path class="cls-2" d="M188.61,634.38c-.14,1,1.44,2.1,2.84,2"/><path class="cls-2" d="M168.77,634.38c.14-1-1.44-2.11-2.84-2-1.39-.1-3,1-2.83,2"/><path class="cls-2" d="M145.92,696.65c0,.38-.32.77-.59.74"/><line class="cls-2" x1="139.37" y1="230.69" x2="140.48" y2="230.69"/><line class="cls-2" x1="452.4" y1="696.65" x2="452.51" y2="697.04"/><path class="cls-2" d="M459.38,697.14a1,1,0,0,0,.17-.6"/><line class="cls-2" x1="148.2" y1="683.63" x2="146.04" y2="683.24"/><line class="cls-2" x1="153.34" y1="632.94" x2="153.03" y2="636.41"/><path class="cls-2" d="M163.1,634.38c-.14,1,1.44,2.1,2.83,2,1.4.1,3-1,2.84-2"/><line class="cls-2" x1="395.54" y1="644.48" x2="395.54" y2="645.6"/><polyline class="cls-2" points="158.28 212.04 179.73 212.04 192.45 212.04 200.1 212.04 201.93 212.04"/><path class="cls-2" d="M201.93,213.64c.42,0,.9.31.85.6"/><polyline class="cls-2" points="457.95 696.54 457.95 647.54 457.95 627.44"/><line class="cls-2" x1="148.12" y1="690.19" x2="147.53" y2="696.65"/><path class="cls-2" d="M435.23,223.86c.14-1-1.44-2.1-2.84-2"/><path class="cls-2" d="M157.68,646a1,1,0,0,0,.6.17"/><path class="cls-2" d="M201.93,644.6c.42,0,.9-.3.85-.6"/><line class="cls-2" x1="445.13" y1="224.86" x2="446.95" y2="223.04"/><line class="cls-2" x1="153.03" y1="636.41" x2="152.37" y2="643.83"/><line class="cls-2" x1="157.22" y1="207.22" x2="145.18" y2="207.22"/><line class="cls-2" x1="157.43" y1="213.64" x2="157.43" y2="212.64"/><line class="cls-2" x1="151.59" y1="226.7" x2="149.77" y2="230.33"/><line class="cls-2" x1="178.78" y1="229.55" x2="163.78" y2="237.05"/><line class="cls-2" x1="440.9" y1="213.64" x2="440.9" y2="212.64"/><line class="cls-2" x1="405.09" y1="222.32" x2="405.27" y2="222.41"/><line class="cls-2" x1="441.92" y1="251.8" x2="434.54" y2="237.05"/><line class="cls-2" x1="445.13" y1="226.7" x2="446.95" y2="230.33"/><line class="cls-2" x1="157.43" y1="644.34" x2="157.43" y2="645.6"/><line class="cls-2" x1="444.89" y1="633.38" x2="441.25" y2="635.2"/><path class="cls-2" d="M436,621c-.08-.25-.39-.32-.68-.23"/><path class="cls-2" d="M450.73,689.24c-.3,0-.59.54-.52,1"/><line class="cls-2" x1="452.79" y1="688.86" x2="450.73" y2="689.24"/><path class="cls-2" d="M150.6,261.88c1-.14,2.1,1.44,2,2.83.1,1.4-1,3-2,2.84"/><line class="cls-2" x1="450.21" y1="690.19" x2="450.8" y2="696.65"/><path class="cls-2" d="M148.59,239.2c-.1-1.4,1-3,2-2.84"/><line class="cls-2" x1="150.89" y1="222.55" x2="140.97" y2="212.64"/><path class="cls-2" d="M452.33,689.24c-.3,0-.59.54-.52,1"/><line class="cls-2" x1="151.59" y1="226.46" x2="149.77" y2="224.64"/><line class="cls-2" x1="444.44" y1="632" x2="441.25" y2="633.6"/><path class="cls-2" d="M146,689.24a.6.6,0,0,1,.41.35"/><line class="cls-2" x1="395.54" y1="214.24" x2="395.54" y2="212.64"/><path class="cls-2" d="M396.39,212c-.42,0-.89.3-.85.6"/><path class="cls-2" d="M459,230.69c.3,0,.63.44.6.86"/><line class="cls-2" x1="458.95" y1="276.05" x2="457.35" y2="276.05"/><line class="cls-2" x1="446.73" y1="226.46" x2="448.55" y2="224.64"/><path class="cls-2" d="M396.39,646.2c-.42,0-.89-.3-.85-.6"/><line class="cls-2" x1="442.05" y1="606.17" x2="434.54" y2="621.19"/><path class="cls-2" d="M459.55,275.2c0,.42-.3.89-.6.85"/><line class="cls-2" x1="449.44" y1="266.85" x2="448.33" y2="264.62"/><path class="cls-2" d="M191.45,221.86c1.39-.1,3,1,2.83,2"/><path class="cls-2" d="M191.45,636.38c1.39.1,3-1,2.83-2"/><line class="cls-2" x1="444.89" y1="224.86" x2="441.25" y2="223.04"/><path class="cls-2" d="M188.61,223.86c-.14-1,1.44-2.1,2.84-2"/><path class="cls-2" d="M409.71,223.86c.14-1-1.44-2.1-2.83-2"/><polyline class="cls-2" points="158.28 646.2 179.73 646.2 192.45 646.2 200.1 646.2 201.93 646.2"/><path class="cls-2" d="M429.56,223.86c-.14,1,1.44,2.11,2.83,2,1.4.1,3-1,2.84-2"/><path class="cls-2" d="M168.77,223.86c.14,1-1.44,2.11-2.84,2-1.39.1-3-1-2.83-2"/><path class="cls-2" d="M432.39,221.86c-1.12-.06-2.5.63-2.74,1.5"/><line class="cls-2" x1="156.41" y1="606.45" x2="163.78" y2="621.19"/><line class="cls-2" x1="152.97" y1="632" x2="152.97" y2="632.7"/><path class="cls-2" d="M165.93,221.86c1.4-.1,3,1,2.84,2"/><path class="cls-2" d="M150.6,242c-1,.14-2.11-1.44-2-2.83"/><path class="cls-2" d="M147.6,689.24c.29,0,.58.54.52,1"/><path class="cls-2" d="M150.6,596.36c1,.15,2.1-1.44,2-2.83.1-1.39-1-3-2-2.84"/><line class="cls-2" x1="156.52" y1="218.56" x2="157.51" y2="218.56"/><path class="cls-2" d="M406.88,636.38c-1.4.1-3-1-2.84-2"/><line class="cls-2" x1="458.95" y1="230.69" x2="457.95" y2="230.69"/><polyline class="cls-2" points="138.77 231.55 138.77 252.99 138.77 265.71 138.77 273.37 138.77 275.2"/><line class="cls-2" x1="441.15" y1="218.56" x2="441.8" y2="218.56"/><line class="cls-2" x1="419.79" y1="229.67" x2="434.54" y2="237.05"/><line class="cls-2" x1="192.58" y1="637.19" x2="191.5" y2="636.66"/><path class="cls-2" d="M147.53,696.65c0,.38-.33.77-.6.74"/><line class="cls-2" x1="192.57" y1="221.05" x2="191.8" y2="221.44"/><line class="cls-2" x1="153.2" y1="224.86" x2="151.38" y2="223.04"/><path class="cls-2" d="M449.45,682.9a1,1,0,0,0,.23.56"/><path class="cls-2" d="M157.43,644c0,.3.43.63.85.6"/><line class="cls-2" x1="202.78" y1="644.48" x2="202.78" y2="645.6"/><line class="cls-2" x1="147.42" y1="219.08" x2="147.79" y2="219.45"/><line class="cls-2" x1="149.28" y1="224.15" x2="147.21" y2="222.08"/><path class="cls-2" d="M140.37,583c0-.42.31-.89.6-.85"/><path class="cls-2" d="M450.8,696.65c0,.38.32.77.59.74"/><path class="cls-2" d="M146,683.24c-1-.32-2.22,1-2.24,2.45-.23,1.36.74,3.14,1.73,3.17"/><line class="cls-2" x1="143.93" y1="688.86" x2="145.4" y2="689.13"/><polyline class="cls-2" points="140.37 696.54 140.37 647.54 140.37 627.64"/><line class="cls-2" x1="202.78" y1="214.24" x2="202.78" y2="212.64"/><polyline class="cls-2" points="459.55 696.54 459.55 647.54 459.55 644.44"/><path class="cls-2" d="M148.59,264.71c-.1-1.39,1-3,2-2.83"/><path class="cls-2" d="M157.43,212.64c0-.3.43-.63.85-.6"/><path class="cls-2" d="M140.49,697a1.15,1.15,0,0,1-.12-.5"/><path class="cls-2" d="M148.59,593.53c-.1,1.39,1,3,2,2.83"/><path class="cls-2" d="M150.6,267.55c-1,.14-2.11-1.44-2-2.84"/><path class="cls-2" d="M148.87,682.9a1,1,0,0,1-.23.56"/><path class="cls-2" d="M150.6,616.21c-1-.14-2.11,1.44-2,2.83"/><line class="cls-2" x1="451.39" y1="697.39" x2="457.35" y2="697.39"/><path class="cls-2" d="M201.93,212c.42,0,.9.3.85.6"/><line class="cls-2" x1="450.13" y1="683.63" x2="452.28" y2="683.24"/><path class="cls-2" d="M139.37,230.69c-.29,0-.63.44-.6.86"/><path class="cls-2" d="M141,230.69c-.29,0-.63.44-.6.86"/><path class="cls-2" d="M138.77,275.2c0,.42.31.89.6.85"/><line class="cls-2" x1="156.48" y1="251.65" x2="163.78" y2="237.05"/><path class="cls-2" d="M139.37,276.05h1.08c.15-.12.36,0,.52,0"/><line class="cls-2" x1="153.43" y1="226.46" x2="157.07" y2="224.64"/><line class="cls-2" x1="153.2" y1="226.7" x2="151.38" y2="230.33"/><line class="cls-2" x1="444.89" y1="226.46" x2="441.25" y2="224.64"/><line class="cls-2" x1="440.9" y1="644.67" x2="440.9" y2="645.6"/><path class="cls-2" d="M449.73,239.2c.1-1.4-1-3-2-2.84"/><path class="cls-2" d="M457.84,582.54a.57.57,0,0,0-.49-.35"/><path class="cls-2" d="M150.6,621.88c1,.14,2.1-1.44,2-2.84.1-1.39-1-3-2-2.83"/><polyline class="cls-2" points="138.77 696.54 138.77 647.54 138.77 644.36"/><path class="cls-2" d="M157.66,213.83a1.06,1.06,0,0,1,.62-.19"/><path class="cls-2" d="M396.39,213.64a1.13,1.13,0,0,0-.5.11"/><line class="cls-2" x1="450.53" y1="265.83" x2="450.08" y2="264.92"/><path class="cls-2" d="M150.6,236.36c1-.14,2.1,1.44,2,2.84.1,1.39-1,3-2,2.83"/><line class="cls-2" x1="445.35" y1="632" x2="445.35" y2="632.18"/><line class="cls-2" x1="457.95" y1="212.04" x2="459.55" y2="213.64"/><path class="cls-2" d="M409.71,634.38c.14,1-1.44,2.1-2.83,2"/><path class="cls-2" d="M435.23,634.38c.14,1-1.44,2.1-2.84,2"/><path class="cls-2" d="M194.28,634.38c.14-1-1.44-2.11-2.83-2-1.4-.1-3,1-2.84,2"/><path class="cls-2" d="M157.07,635.2a.67.67,0,0,1,.31.29"/><path class="cls-2" d="M432.39,636.38c-1.39.1-3-1-2.83-2"/><path class="cls-2" d="M150.6,590.69c-1-.14-2.11,1.45-2,2.84"/><line class="cls-3" x1="444.89" y1="224.86" x2="441.25" y2="223.04"/><line class="cls-3" x1="446.73" y1="226.7" x2="448.55" y2="230.33"/><line class="cls-3" x1="445.03" y1="633.02" x2="445.35" y2="632.7"/><line class="cls-3" x1="446.95" y1="223.04" x2="447.44" y2="222.55"/><line class="cls-3" x1="454.4" y1="688.86" x2="452.85" y2="689.15"/><line class="cls-3" x1="444.98" y1="632.87" x2="445.29" y2="636.41"/><path class="cls-3" d="M452.28,683.24c1-.32,2.22,1,2.25,2.45.22,1.36-.74,3.14-1.74,3.17"/><line class="cls-3" x1="442.05" y1="606.17" x2="434.54" y2="621.19"/><path class="cls-3" d="M440.9,645.6c0,.3-.44.64-.86.6"/><path class="cls-3" d="M162.33,621a.53.53,0,0,1,.69-.23"/><line class="cls-3" x1="440.9" y1="644.67" x2="440.9" y2="645.6"/><path class="cls-3" d="M139,697.14a1.06,1.06,0,0,1-.18-.6"/><line class="cls-3" x1="445.13" y1="224.86" x2="446.95" y2="223.04"/><line class="cls-3" x1="446.73" y1="226.46" x2="448.55" y2="224.64"/><path class="cls-3" d="M459,230.69c.3,0,.63.44.6.86"/><line class="cls-3" x1="151.59" y1="226.46" x2="149.77" y2="224.64"/><path class="cls-3" d="M452.33,689.24c-.3,0-.59.54-.52,1"/><path class="cls-3" d="M157.07,635.2a.67.67,0,0,1,.31.29"/><path class="cls-3" d="M139.37,230.69c-.29,0-.63.44-.6.86"/><line class="cls-3" x1="452.79" y1="688.86" x2="450.73" y2="689.24"/><line class="cls-3" x1="156.48" y1="251.65" x2="163.78" y2="237.05"/><path class="cls-3" d="M146,689.24a.6.6,0,0,1,.41.35"/><line class="cls-3" x1="451.39" y1="697.39" x2="457.35" y2="697.39"/><polyline class="cls-3" points="459.55 696.54 459.55 647.54 459.55 644.44"/><path class="cls-3" d="M459.38,697.14a1,1,0,0,0,.17-.6"/><line class="cls-3" x1="145.53" y1="688.86" x2="147.6" y2="689.24"/><line class="cls-3" x1="452.4" y1="696.65" x2="452.51" y2="697.04"/><path class="cls-3" d="M146,683.24c-1-.32-2.22,1-2.24,2.45-.23,1.36.74,3.14,1.73,3.17"/><line class="cls-3" x1="139.37" y1="230.69" x2="140.48" y2="230.69"/><line class="cls-3" x1="146.93" y1="697.39" x2="140.97" y2="697.39"/><path class="cls-3" d="M450.8,696.65c0,.38.32.77.59.74"/><line class="cls-3" x1="450.21" y1="690.19" x2="450.8" y2="696.65"/><line class="cls-3" x1="153.43" y1="633.38" x2="157.07" y2="635.2"/><path class="cls-3" d="M450.73,689.24c-.3,0-.59.54-.52,1"/><line class="cls-3" x1="143.93" y1="688.86" x2="145.4" y2="689.13"/><line class="cls-3" x1="138.77" y1="213.64" x2="140.37" y2="212.04"/><path class="cls-3" d="M449.45,682.9a1,1,0,0,0,.23.56"/><path class="cls-3" d="M436,621c-.08-.25-.39-.32-.68-.23"/><line class="cls-3" x1="153.2" y1="224.86" x2="151.38" y2="223.04"/><line class="cls-3" x1="444.89" y1="633.38" x2="441.25" y2="635.2"/><line class="cls-3" x1="153.43" y1="224.86" x2="157.07" y2="223.04"/><line class="cls-3" x1="157.43" y1="644.34" x2="157.43" y2="645.6"/><path class="cls-3" d="M441.25,635.2a.58.58,0,0,0-.35.49"/><line class="cls-3" x1="441.92" y1="251.8" x2="434.54" y2="237.05"/><line class="cls-3" x1="419.79" y1="229.67" x2="434.54" y2="237.05"/><line class="cls-3" x1="178.78" y1="229.55" x2="163.78" y2="237.05"/><line class="cls-3" x1="157.22" y1="207.22" x2="145.18" y2="207.22"/><line class="cls-3" x1="151.59" y1="226.7" x2="149.77" y2="230.33"/><path class="cls-3" d="M147.53,696.65c0,.38-.33.77-.6.74"/><line class="cls-3" x1="152.37" y1="643.83" x2="148.87" y2="682.9"/><line class="cls-3" x1="441.15" y1="218.56" x2="441.8" y2="218.56"/><line class="cls-3" x1="178.53" y1="628.57" x2="163.78" y2="621.19"/><line class="cls-3" x1="453.14" y1="207.22" x2="440.9" y2="207.22"/><path class="cls-3" d="M157.68,646a1,1,0,0,0,.6.17"/><line class="cls-3" x1="458.95" y1="230.69" x2="457.95" y2="230.69"/><path class="cls-3" d="M149.77,230.33a.56.56,0,0,1-.49.36"/><line class="cls-3" x1="156.52" y1="218.56" x2="157.51" y2="218.56"/><line class="cls-3" x1="445.96" y1="643.83" x2="449.45" y2="682.9"/><line class="cls-3" x1="148.12" y1="690.19" x2="147.53" y2="696.65"/><line class="cls-3" x1="419.85" y1="628.54" x2="434.54" y2="621.19"/><path class="cls-3" d="M157.07,223a.57.57,0,0,0,.36-.49"/><path class="cls-3" d="M145.92,696.65c0,.38-.32.77-.59.74"/><line class="cls-3" x1="153.34" y1="632.94" x2="153.03" y2="636.41"/><path class="cls-3" d="M147.6,689.24c.29,0,.58.54.52,1"/><line class="cls-3" x1="156.41" y1="606.45" x2="163.78" y2="621.19"/><line class="cls-3" x1="457.95" y1="212.04" x2="459.55" y2="213.64"/><polyline class="cls-3" points="138.77 696.54 138.77 647.54 138.77 644.36"/><path class="cls-3" d="M148.87,682.9a1,1,0,0,1-.23.56"/><polygon class="cls-4" points="113.43 651.01 112.01 656.68 114.84 656.68 113.43 651.01"/><path class="cls-4" d="M85.9,431.62l-1.65.2a3.68,3.68,0,0,0,.16-1,1.89,1.89,0,0,0-.19-.93,1.7,1.7,0,0,0-.55-.58,9,9,0,0,0-1.31-.54l-.43-.15-10.39,3.93v-1.89l6-2.16q1.14-.42,2.4-.75a23.25,23.25,0,0,1-2.37-.73l-6-2.21V423L82.09,427a21.07,21.07,0,0,1,2.35,1,3.38,3.38,0,0,1,1.27,1.08,2.52,2.52,0,0,1,.41,1.44A3.31,3.31,0,0,1,85.9,431.62Z"/><polygon class="cls-4" points="88.39 230.69 86.97 236.36 89.81 236.36 88.39 230.69"/><polygon class="cls-4" points="88.39 627.55 89.81 621.88 86.97 621.88 88.39 627.55"/><path class="cls-4" d="M102.19,680.86a3.29,3.29,0,0,1-1.15,1.62,3,3,0,0,1-1.77.53,3.47,3.47,0,0,1-2.63-1.13,4.15,4.15,0,0,1-1.07-3,4.22,4.22,0,0,1,1.09-3,3.53,3.53,0,0,1,2.65-1.14,2.91,2.91,0,0,1,1.74.52,3.31,3.31,0,0,1,1.14,1.58,3.64,3.64,0,0,1,3.67-2.69,4.09,4.09,0,0,1,3.08,1.3,5.29,5.29,0,0,1,0,6.83,4.17,4.17,0,0,1-3.13,1.3,3.8,3.8,0,0,1-2.34-.7A3.53,3.53,0,0,1,102.19,680.86Zm-3,.35a2.26,2.26,0,0,0,1.66-.65,2.33,2.33,0,0,0,.64-1.7,2.26,2.26,0,0,0-.64-1.67,2.12,2.12,0,0,0-1.57-.65,2.17,2.17,0,0,0-1.62.67,2.28,2.28,0,0,0-.66,1.67,2.31,2.31,0,0,0,.64,1.67A2.1,2.1,0,0,0,99.21,681.21Zm6.61.57a3.14,3.14,0,0,0,1.45-.36,2.48,2.48,0,0,0,1.09-1.06,3.06,3.06,0,0,0,.39-1.51,2.83,2.83,0,0,0-.81-2.08,2.77,2.77,0,0,0-2.06-.82,2.82,2.82,0,0,0-2.1.84,2.87,2.87,0,0,0-.83,2.12,2.76,2.76,0,0,0,.82,2.05A2.8,2.8,0,0,0,105.82,681.78Z"/><path class="cls-4" d="M102.89,672.44a13.08,13.08,0,0,1-4.09-.52,5.16,5.16,0,0,1-2.39-1.55,4,4,0,0,1-.84-2.6,4.21,4.21,0,0,1,.47-2,3.74,3.74,0,0,1,1.34-1.43,7,7,0,0,1,2.12-.89,13.9,13.9,0,0,1,3.39-.33,13.34,13.34,0,0,1,4.07.52,5.09,5.09,0,0,1,2.39,1.55,4,4,0,0,1,.84,2.6,3.91,3.91,0,0,1-1.48,3.25Q106.93,672.45,102.89,672.44Zm0-1.81c2.35,0,3.91-.27,4.69-.82a2.35,2.35,0,0,0,0-4.07c-.79-.55-2.35-.83-4.69-.83s-3.92.28-4.7.83a2.45,2.45,0,0,0-1.16,2,2.27,2.27,0,0,0,1,1.94C98.93,670.33,100.54,670.63,102.89,670.63Z"/><polygon class="cls-4" points="113.43 651.01 112.01 656.68 114.84 656.68 113.43 651.01"/><polygon class="cls-4" points="113.43 697.39 114.84 691.72 112.01 691.72 113.43 697.39"/><path class="cls-4" d="M291.11,153.2l3.79-5.39-3.51-5h2.2l1.59,2.43c.3.47.54.85.72,1.17l.79-1.15,1.75-2.45h2.1L297,147.72l3.85,5.48h-2.15L296.53,150l-.57-.87-2.72,4.09Z"/><polygon class="cls-4" points="157.43 158.04 163.1 159.46 163.1 156.62 157.43 158.04"/><polygon class="cls-4" points="441.06 158.04 435.39 159.46 435.39 156.62 441.06 158.04"/><line class="cls-2" x1="133.96" y1="627.55" x2="138.77" y2="627.55"/><line class="cls-2" x1="299.16" y1="639.79" x2="440.9" y2="639.79"/><line class="cls-2" x1="133.96" y1="429.12" x2="133.96" y2="627.55"/><line class="cls-2" x1="457.95" y1="230.69" x2="453.14" y2="230.69"/><line class="cls-2" x1="447.73" y1="590.69" x2="448.33" y2="590.69"/><line class="cls-2" x1="157.43" y1="213.64" x2="203.92" y2="213.64"/><line class="cls-2" x1="459.55" y1="627.54" x2="459.55" y2="583.04"/><line class="cls-2" x1="148.87" y1="682.9" x2="147.27" y2="682.9"/><line class="cls-2" x1="157.43" y1="639.79" x2="157.43" y2="644.6"/><line class="cls-2" x1="459.55" y1="582.79" x2="459.55" y2="581.06"/><line class="cls-2" x1="150.02" y1="261.88" x2="150.6" y2="261.88"/><line class="cls-2" x1="447.73" y1="236.36" x2="448.44" y2="236.36"/><line class="cls-2" x1="133.96" y1="429.12" x2="133.96" y2="230.69"/><line class="cls-2" x1="457.95" y1="277.18" x2="459.55" y2="277.18"/><line class="cls-2" x1="445.39" y1="636.32" x2="441.92" y2="639.79"/><line class="cls-2" x1="448.33" y1="236.58" x2="448.33" y2="241.67"/><line class="cls-2" x1="440.9" y1="639.79" x2="440.9" y2="644.6"/><line class="cls-2" x1="138.77" y1="634.96" x2="138.77" y2="627.83"/><line class="cls-2" x1="150.89" y1="222.55" x2="151.6" y2="223.26"/><line class="cls-2" x1="139.17" y1="214.04" x2="138.77" y2="213.64"/><line class="cls-2" x1="434.54" y1="621.19" x2="445.05" y2="631.7"/><line class="cls-2" x1="441.92" y1="429.12" x2="441.92" y2="251.8"/><line class="cls-2" x1="459.55" y1="230.69" x2="458.95" y2="230.69"/><line class="cls-2" x1="441.92" y1="429.12" x2="441.92" y2="606.45"/><line class="cls-2" x1="464.36" y1="627.55" x2="459.55" y2="627.55"/><line class="cls-2" x1="458.95" y1="697.39" x2="457.35" y2="697.39"/><line class="cls-2" x1="457.95" y1="581.06" x2="459.55" y2="581.06"/><line class="cls-2" x1="457.95" y1="230.69" x2="457.95" y2="277.18"/><line class="cls-2" x1="457.95" y1="627.55" x2="453.14" y2="627.55"/><line class="cls-2" x1="447.73" y1="261.88" x2="448.52" y2="261.88"/><line class="cls-2" x1="457.95" y1="627.55" x2="457.95" y2="581.06"/><line class="cls-2" x1="448.33" y1="242.03" x2="447.73" y2="242.03"/><line class="cls-2" x1="140.37" y1="581.06" x2="138.77" y2="581.06"/><line class="cls-2" x1="448.5" y1="596.36" x2="447.73" y2="596.36"/><line class="cls-2" x1="299.16" y1="218.45" x2="157.43" y2="218.45"/><line class="cls-2" x1="157.43" y1="224.32" x2="157.43" y2="218.45"/><line class="cls-2" x1="157.43" y1="212.04" x2="158.39" y2="212.04"/><line class="cls-2" x1="201.93" y1="212.04" x2="203.92" y2="212.04"/><line class="cls-2" x1="299.16" y1="207.22" x2="440.9" y2="207.22"/><line class="cls-2" x1="299.16" y1="218.45" x2="440.9" y2="218.45"/><line class="cls-2" x1="440.9" y1="213.64" x2="394.41" y2="213.64"/><line class="cls-2" x1="396.36" y1="212.04" x2="394.41" y2="212.04"/><line class="cls-2" x1="150.6" y1="596.36" x2="150.12" y2="596.36"/><line class="cls-2" x1="299.16" y1="639.79" x2="157.43" y2="639.79"/><line class="cls-2" x1="441.92" y1="606.45" x2="441.92" y2="627.55"/><line class="cls-2" x1="157.43" y1="644.6" x2="203.92" y2="644.6"/><line class="cls-2" x1="453.14" y1="429.12" x2="453.14" y2="627.55"/><line class="cls-2" x1="396.16" y1="646.2" x2="394.41" y2="646.2"/><line class="cls-2" x1="440.9" y1="645.66" x2="440.9" y2="646.2"/><line class="cls-2" x1="459.55" y1="634.98" x2="459.55" y2="627.54"/><line class="cls-2" x1="138.77" y1="213.64" x2="133.96" y2="218.45"/><line class="cls-2" x1="151.6" y1="223.26" x2="156.41" y2="218.45"/><line class="cls-2" x1="140.37" y1="212.04" x2="140.87" y2="212.53"/><line class="cls-2" x1="151.6" y1="223.26" x2="149.99" y2="224.86"/><line class="cls-2" x1="409.71" y1="634.38" x2="409.71" y2="635.04"/><line class="cls-2" x1="440.9" y1="646.2" x2="440.9" y2="651.01"/><line class="cls-2" x1="299.16" y1="651.01" x2="440.9" y2="651.01"/><line class="cls-2" x1="145.18" y1="429.12" x2="145.18" y2="627.55"/><line class="cls-2" x1="157.43" y1="646.2" x2="157.43" y2="651.01"/><line class="cls-2" x1="441.92" y1="218.45" x2="453.14" y2="207.22"/><line class="cls-2" x1="464.36" y1="218.45" x2="453.14" y2="229.67"/><line class="cls-2" x1="156.41" y1="606.45" x2="156.41" y2="627.55"/><line class="cls-2" x1="299.16" y1="651.01" x2="157.43" y2="651.01"/><line class="cls-2" x1="299.16" y1="628.57" x2="178.66" y2="628.57"/><line class="cls-2" x1="203.92" y1="646.2" x2="203.92" y2="644.6"/><line class="cls-2" x1="145.18" y1="229.67" x2="149.99" y2="224.86"/><line class="cls-2" x1="140.97" y1="697.39" x2="139.37" y2="697.39"/><line class="cls-2" x1="299.16" y1="628.57" x2="419.87" y2="628.57"/><line class="cls-2" x1="145.18" y1="207.22" x2="140.37" y2="212.04"/><line class="cls-2" x1="435.23" y1="634.38" x2="435.23" y2="634.95"/><line class="cls-2" x1="429.56" y1="634.95" x2="429.56" y2="634.86"/><line class="cls-2" x1="404.04" y1="634.89" x2="404.04" y2="634.62"/><line class="cls-2" x1="157.43" y1="628.57" x2="157.43" y2="633.58"/><line class="cls-2" x1="157.43" y1="646.2" x2="158.38" y2="646.2"/><line class="cls-2" x1="440.9" y1="628.57" x2="440.9" y2="633.37"/><line class="cls-2" x1="459.55" y1="644.44" x2="459.55" y2="634.98"/><line class="cls-2" x1="133.96" y1="218.45" x2="145.18" y2="229.67"/><line class="cls-2" x1="156.41" y1="218.45" x2="145.18" y2="207.22"/><line class="cls-2" x1="457.46" y1="212.52" x2="447.44" y2="222.55"/><line class="cls-2" x1="419.87" y1="628.57" x2="440.9" y2="628.57"/><line class="cls-2" x1="458.95" y1="214.24" x2="459.55" y2="213.64"/><line class="cls-2" x1="138.77" y1="644.36" x2="138.77" y2="634.96"/><line class="cls-2" x1="149.71" y1="224.57" x2="149.28" y2="224.15"/><line class="cls-2" x1="153.28" y1="224.94" x2="154.36" y2="226.02"/><line class="cls-2" x1="441.92" y1="251.8" x2="441.92" y2="230.69"/><line class="cls-2" x1="448.33" y1="264.62" x2="448.33" y2="267.12"/><line class="cls-2" x1="447.23" y1="230.69" x2="441.92" y2="230.69"/><line class="cls-2" x1="153.03" y1="636.41" x2="156.41" y2="639.79"/><line class="cls-2" x1="157.43" y1="214.24" x2="157.43" y2="213.64"/><line class="cls-2" x1="157.43" y1="212.64" x2="157.43" y2="212.04"/><line class="cls-2" x1="440.9" y1="212.64" x2="440.9" y2="212.04"/><line class="cls-2" x1="464.36" y1="230.69" x2="459.55" y2="230.69"/><line class="cls-2" x1="449.45" y1="682.9" x2="451.06" y2="682.9"/><line class="cls-2" x1="145.18" y1="429.12" x2="145.18" y2="230.69"/><line class="cls-2" x1="464.36" y1="429.12" x2="464.36" y2="627.55"/><line class="cls-2" x1="453.14" y1="429.12" x2="453.14" y2="230.69"/><line class="cls-2" x1="448.33" y1="621.88" x2="447.73" y2="621.88"/><line class="cls-2" x1="448.33" y1="267.55" x2="447.73" y2="267.55"/><line class="cls-2" x1="453.14" y1="230.69" x2="447.23" y2="230.69"/><line class="cls-2" x1="453.14" y1="627.55" x2="441.92" y2="627.55"/><line class="cls-2" x1="447.73" y1="616.21" x2="448.52" y2="616.21"/><line class="cls-2" x1="446.65" y1="226.54" x2="445.61" y2="227.58"/><line class="cls-2" x1="140.37" y1="627.55" x2="145.18" y2="627.55"/><line class="cls-2" x1="157.43" y1="634.09" x2="157.43" y2="639.79"/><line class="cls-2" x1="434.54" y1="237.05" x2="445.05" y2="226.54"/><line class="cls-2" x1="201.93" y1="646.2" x2="203.92" y2="646.2"/><line class="cls-2" x1="440.9" y1="634.09" x2="440.9" y2="639.79"/><line class="cls-2" x1="440.9" y1="644.6" x2="394.41" y2="644.6"/><line class="cls-2" x1="459.55" y1="213.64" x2="464.36" y2="218.45"/><line class="cls-2" x1="140.37" y1="230.69" x2="140.37" y2="277.18"/><line class="cls-2" x1="138.77" y1="627.83" x2="138.77" y2="583.04"/><line class="cls-2" x1="194.28" y1="222.94" x2="194.28" y2="223.11"/><line class="cls-2" x1="446.73" y1="223.26" x2="441.92" y2="218.45"/><line class="cls-2" x1="440.9" y1="212.04" x2="440.04" y2="212.04"/><line class="cls-2" x1="140.84" y1="230.69" x2="145.18" y2="230.69"/><line class="cls-2" x1="440.9" y1="229.67" x2="440.9" y2="224.95"/><line class="cls-2" x1="157.43" y1="229.67" x2="157.43" y2="224.64"/><line class="cls-2" x1="457.95" y1="212.04" x2="457.46" y2="212.52"/><line class="cls-2" x1="409.71" y1="223.26" x2="409.71" y2="223.45"/><line class="cls-2" x1="429.56" y1="223.86" x2="429.56" y2="223.26"/><line class="cls-2" x1="163.1" y1="223.86" x2="163.1" y2="223.26"/><line class="cls-2" x1="156.41" y1="251.8" x2="156.41" y2="230.69"/><line class="cls-2" x1="440.9" y1="212.04" x2="440.9" y2="207.22"/><line class="cls-2" x1="446.73" y1="223.26" x2="448.33" y2="224.86"/><line class="cls-2" x1="440.9" y1="218.45" x2="440.9" y2="214.24"/><line class="cls-2" x1="149.86" y1="616.21" x2="150.6" y2="616.21"/><line class="cls-2" x1="150.96" y1="230.69" x2="151.36" y2="230.69"/><line class="cls-2" x1="299.16" y1="229.67" x2="419.79" y2="229.67"/><line class="cls-2" x1="138.77" y1="230.69" x2="139.27" y2="230.69"/><line class="cls-2" x1="394.41" y1="646.2" x2="394.41" y2="644.6"/><line class="cls-2" x1="448.33" y1="621.84" x2="448.33" y2="621.46"/><line class="cls-2" x1="440.9" y1="633.37" x2="440.9" y2="634.09"/><line class="cls-2" x1="440.43" y1="646.2" x2="440.04" y2="646.2"/><line class="cls-2" x1="449.21" y1="223.98" x2="458.95" y2="214.24"/><line class="cls-2" x1="448.55" y1="224.64" x2="449.21" y2="223.98"/><line class="cls-2" x1="156.41" y1="429.12" x2="156.41" y2="251.8"/><line class="cls-2" x1="459.55" y1="275.28" x2="459.55" y2="277.18"/><line class="cls-2" x1="178.53" y1="229.67" x2="157.43" y2="229.67"/><line class="cls-2" x1="419.79" y1="229.67" x2="440.9" y2="229.67"/><line class="cls-2" x1="440.9" y1="214.24" x2="440.9" y2="213.64"/><line class="cls-2" x1="157.43" y1="224.64" x2="157.43" y2="224.32"/><line class="cls-2" x1="440.9" y1="224.46" x2="440.9" y2="218.45"/><line class="cls-2" x1="163.78" y1="621.19" x2="153.28" y2="631.7"/><line class="cls-2" x1="440.9" y1="224.95" x2="440.9" y2="224.46"/><line class="cls-2" x1="178.66" y1="628.57" x2="157.43" y2="628.57"/><line class="cls-2" x1="157.43" y1="645.67" x2="157.43" y2="646.2"/><line class="cls-2" x1="157.43" y1="633.58" x2="157.43" y2="634.09"/><line class="cls-2" x1="133.96" y1="230.69" x2="138.77" y2="230.69"/><line class="cls-2" x1="157.43" y1="212.04" x2="157.43" y2="207.22"/><line class="cls-2" x1="145.55" y1="683.24" x2="144.44" y2="683.24"/><line class="cls-2" x1="145.18" y1="230.69" x2="150.96" y2="230.69"/><line class="cls-2" x1="138.77" y1="275.15" x2="138.77" y2="277.18"/><line class="cls-2" x1="140.37" y1="277.18" x2="138.77" y2="277.18"/><line class="cls-2" x1="151.67" y1="226.54" x2="152.74" y2="227.61"/><line class="cls-2" x1="138.77" y1="583.04" x2="138.77" y2="581.06"/><line class="cls-2" x1="452.79" y1="683.24" x2="453.89" y2="683.24"/><line class="cls-2" x1="203.92" y1="212.04" x2="203.92" y2="213.64"/><line class="cls-2" x1="149.62" y1="590.69" x2="150.6" y2="590.69"/><line class="cls-2" x1="149.75" y1="236.36" x2="150.6" y2="236.36"/><line class="cls-2" x1="163.78" y1="237.05" x2="153.28" y2="226.54"/><line class="cls-2" x1="464.36" y1="429.12" x2="464.36" y2="230.69"/><line class="cls-2" x1="156.41" y1="429.12" x2="156.41" y2="606.45"/><line class="cls-2" x1="157.43" y1="218.45" x2="157.43" y2="214.24"/><line class="cls-2" x1="140.37" y1="627.55" x2="140.37" y2="581.06"/><line class="cls-2" x1="299.16" y1="229.67" x2="178.53" y2="229.67"/><line class="cls-2" x1="453.14" y1="229.67" x2="448.33" y2="224.86"/><line class="cls-2" x1="299.16" y1="207.22" x2="157.43" y2="207.22"/><line class="cls-2" x1="445.05" y1="224.94" x2="444.06" y2="225.93"/><line class="cls-2" x1="151.36" y1="230.69" x2="156.41" y2="230.69"/><line class="cls-2" x1="441.92" y1="639.79" x2="445.96" y2="643.83"/><line class="cls-2" x1="464.36" y1="639.79" x2="459.55" y2="634.98"/><line class="cls-2" x1="150.6" y1="267.55" x2="150.02" y2="267.55"/><line class="cls-2" x1="459.55" y1="644.6" x2="464.36" y2="639.79"/><line class="cls-2" x1="453.14" y1="207.22" x2="457.95" y2="212.04"/><line class="cls-2" x1="394.41" y1="212.04" x2="394.41" y2="213.64"/><line class="cls-2" x1="156.41" y1="639.79" x2="152.53" y2="643.67"/><line class="cls-2" x1="133.96" y1="639.79" x2="138.78" y2="634.97"/><line class="cls-2" x1="138.77" y1="644.6" x2="133.96" y2="639.79"/><line class="cls-2" x1="145.18" y1="627.55" x2="156.41" y2="627.55"/><line class="cls-2" x1="131.12" y1="230.69" x2="114.39" y2="230.69"/><line class="cls-2" x1="131.12" y1="627.55" x2="110.59" y2="627.55"/><line class="cls-2" x1="154.59" y1="651.01" x2="110.59" y2="651.01"/><line class="cls-2" x1="113.43" y1="651.01" x2="113.43" y2="659.52"/><line class="cls-2" x1="131.12" y1="230.69" x2="85.55" y2="230.69"/><line class="cls-2" x1="440.47" y1="158.04" x2="157.43" y2="158.04"/><line class="cls-2" x1="131.12" y1="627.55" x2="85.55" y2="627.55"/><line class="cls-2" x1="88.39" y1="230.69" x2="88.39" y2="627.55"/><line class="cls-2" x1="154.59" y1="651.01" x2="110.59" y2="651.01"/><line class="cls-2" x1="138.14" y1="697.39" x2="110.59" y2="697.39"/><line class="cls-2" x1="113.43" y1="651.01" x2="113.43" y2="697.39"/><line class="cls-2" x1="157.43" y1="204.39" x2="157.43" y2="155.2"/><line class="cls-2" x1="440.86" y1="204.69" x2="440.86" y2="155.5"/><line class="cls-3" x1="440.9" y1="645.66" x2="440.9" y2="646.2"/><line class="cls-3" x1="138.77" y1="644.6" x2="133.96" y2="639.79"/><line class="cls-3" x1="440.9" y1="634.09" x2="440.9" y2="639.79"/><line class="cls-3" x1="157.43" y1="639.79" x2="157.43" y2="644.6"/><line class="cls-3" x1="157.43" y1="634.09" x2="157.43" y2="639.79"/><line class="cls-3" x1="299.16" y1="207.22" x2="440.9" y2="207.22"/><line class="cls-3" x1="157.43" y1="224.32" x2="157.43" y2="218.45"/><line class="cls-3" x1="446.65" y1="226.54" x2="445.61" y2="227.58"/><line class="cls-3" x1="148.87" y1="682.9" x2="147.27" y2="682.9"/><line class="cls-3" x1="453.14" y1="230.69" x2="447.23" y2="230.69"/><line class="cls-3" x1="457.95" y1="230.69" x2="453.14" y2="230.69"/><line class="cls-3" x1="458.95" y1="697.39" x2="457.35" y2="697.39"/><line class="cls-3" x1="133.96" y1="627.55" x2="138.77" y2="627.55"/><line class="cls-3" x1="464.36" y1="627.55" x2="459.55" y2="627.55"/><line class="cls-3" x1="464.36" y1="429.12" x2="464.36" y2="627.55"/><line class="cls-3" x1="441.92" y1="429.12" x2="441.92" y2="606.45"/><line class="cls-3" x1="459.55" y1="230.69" x2="458.95" y2="230.69"/><line class="cls-3" x1="133.96" y1="429.12" x2="133.96" y2="627.55"/><line class="cls-3" x1="464.36" y1="230.69" x2="459.55" y2="230.69"/><line class="cls-3" x1="464.36" y1="429.12" x2="464.36" y2="230.69"/><line class="cls-3" x1="441.92" y1="429.12" x2="441.92" y2="251.8"/><line class="cls-3" x1="156.41" y1="429.12" x2="156.41" y2="606.45"/><line class="cls-3" x1="138.77" y1="230.69" x2="139.27" y2="230.69"/><line class="cls-3" x1="452.79" y1="683.24" x2="453.89" y2="683.24"/><line class="cls-3" x1="140.84" y1="230.69" x2="145.18" y2="230.69"/><line class="cls-3" x1="449.45" y1="682.9" x2="451.06" y2="682.9"/><line class="cls-3" x1="145.18" y1="230.69" x2="150.96" y2="230.69"/><line class="cls-3" x1="151.67" y1="226.54" x2="152.74" y2="227.61"/><line class="cls-3" x1="140.97" y1="697.39" x2="139.37" y2="697.39"/><line class="cls-3" x1="145.55" y1="683.24" x2="144.44" y2="683.24"/><line class="cls-3" x1="133.96" y1="230.69" x2="138.77" y2="230.69"/><line class="cls-3" x1="157.43" y1="645.67" x2="157.43" y2="646.2"/><line class="cls-3" x1="133.96" y1="429.12" x2="133.96" y2="230.69"/><line class="cls-3" x1="440.9" y1="224.46" x2="440.9" y2="218.45"/><line class="cls-3" x1="153.03" y1="636.41" x2="156.41" y2="639.79"/><line class="cls-3" x1="149.71" y1="224.57" x2="149.28" y2="224.15"/><line class="cls-3" x1="153.28" y1="224.94" x2="154.36" y2="226.02"/><line class="cls-3" x1="156.41" y1="429.12" x2="156.41" y2="251.8"/><line class="cls-3" x1="139.17" y1="214.04" x2="138.77" y2="213.64"/><line class="cls-3" x1="150.89" y1="222.55" x2="151.6" y2="223.26"/><line class="cls-3" x1="138.77" y1="634.96" x2="138.77" y2="627.83"/><line class="cls-3" x1="440.9" y1="639.79" x2="440.9" y2="644.6"/><line class="cls-3" x1="448.55" y1="224.64" x2="449.21" y2="223.98"/><line class="cls-3" x1="458.95" y1="214.24" x2="459.55" y2="213.64"/><line class="cls-3" x1="445.39" y1="636.32" x2="441.92" y2="639.79"/><line class="cls-3" x1="133.96" y1="218.45" x2="145.18" y2="229.67"/><line class="cls-3" x1="459.55" y1="634.98" x2="459.55" y2="627.54"/><line class="cls-3" x1="138.77" y1="213.64" x2="133.96" y2="218.45"/><line class="cls-3" x1="151.6" y1="223.26" x2="156.41" y2="218.45"/><line class="cls-3" x1="140.37" y1="212.04" x2="140.87" y2="212.53"/><line class="cls-3" x1="151.6" y1="223.26" x2="149.99" y2="224.86"/><line class="cls-3" x1="440.9" y1="646.2" x2="440.9" y2="651.01"/><line class="cls-3" x1="145.18" y1="207.22" x2="140.37" y2="212.04"/><line class="cls-3" x1="299.16" y1="628.57" x2="419.87" y2="628.57"/><line class="cls-3" x1="299.16" y1="651.01" x2="440.9" y2="651.01"/><line class="cls-3" x1="145.18" y1="229.67" x2="149.99" y2="224.86"/><line class="cls-3" x1="157.43" y1="646.2" x2="157.43" y2="651.01"/><line class="cls-3" x1="299.16" y1="628.57" x2="178.66" y2="628.57"/><line class="cls-3" x1="299.16" y1="651.01" x2="157.43" y2="651.01"/><line class="cls-3" x1="464.36" y1="218.45" x2="453.14" y2="229.67"/><line class="cls-3" x1="459.55" y1="213.64" x2="464.36" y2="218.45"/><line class="cls-3" x1="446.73" y1="223.26" x2="441.92" y2="218.45"/><line class="cls-3" x1="457.95" y1="212.04" x2="457.46" y2="212.52"/><line class="cls-3" x1="446.73" y1="223.26" x2="448.33" y2="224.86"/><line class="cls-3" x1="299.16" y1="229.67" x2="419.79" y2="229.67"/><line class="cls-3" x1="453.14" y1="207.22" x2="457.95" y2="212.04"/><line class="cls-3" x1="299.16" y1="229.67" x2="178.53" y2="229.67"/><line class="cls-3" x1="453.14" y1="229.67" x2="448.33" y2="224.86"/><line class="cls-3" x1="299.16" y1="207.22" x2="157.43" y2="207.22"/><line class="cls-3" x1="441.92" y1="639.79" x2="445.96" y2="643.83"/><line class="cls-3" x1="445.05" y1="224.94" x2="444.06" y2="225.93"/><line class="cls-3" x1="464.36" y1="639.79" x2="459.55" y2="634.98"/><line class="cls-3" x1="459.55" y1="644.6" x2="464.36" y2="639.79"/><line class="cls-3" x1="156.41" y1="639.79" x2="152.53" y2="643.67"/><line class="cls-3" x1="133.96" y1="639.79" x2="138.78" y2="634.97"/><path class="cls-1" d="M143.28,665.43c-.1,1.4,1,3,2,2.84"/><path class="cls-1" d="M145.28,662.6c-1-.15-2.1,1.44-2,2.83"/><path class="cls-1" d="M145.28,668.27c1,.14,2.1-1.44,2-2.84.1-1.39-1-3-2-2.83"/><path class="cls-3" d="M144.58,668.1a3.39,3.39,0,0,0,0-5.34"/><path class="cls-1" d="M455.15,666.21c.1,1.39-1,3-2,2.83"/><path class="cls-1" d="M453.14,663.37c1-.14,2.11,1.44,2,2.84"/><path class="cls-1" d="M453.14,669c-1,.14-2.1-1.44-2-2.83-.1-1.4,1-3,2-2.84"/><path class="cls-3" d="M453.84,668.88a3.4,3.4,0,0,1,0-5.35"/></svg>