<svg id="Calque_1" data-name="Calque 1" xmlns="http://www.w3.org/2000/svg" viewBox="0 0 595.28 841.89"><defs><style>.cls-1,.cls-2{fill:none;stroke:#000;stroke-linecap:round;stroke-linejoin:round;}.cls-1{stroke-width:0.5px;}.cls-3{fill:#000100;}</style></defs><line class="cls-1" x1="372.08" y1="530.09" x2="375.77" y2="530.09"/><line class="cls-1" x1="323.28" y1="510.97" x2="322.36" y2="512.27"/><line class="cls-1" x1="367.05" y1="516.69" x2="365.52" y2="518.85"/><line class="cls-1" x1="396.38" y1="500.94" x2="394.53" y2="498.33"/><line class="cls-1" x1="425.34" y1="512.06" x2="424.17" y2="510.41"/><line class="cls-1" x1="367.37" y1="285.54" x2="365.52" y2="288.15"/><line class="cls-1" x1="164.32" y1="274.52" x2="163.38" y2="273.18"/><line class="cls-1" x1="382.32" y1="288.15" x2="380.47" y2="285.54"/><line class="cls-1" x1="394.71" y1="501.92" x2="392.86" y2="499.31"/><line class="cls-1" x1="322.99" y1="280.67" x2="322.44" y2="281.46"/><line class="cls-1" x1="366.39" y1="284.74" x2="364.55" y2="287.35"/><line class="cls-1" x1="354.98" y1="499.31" x2="353.14" y2="501.92"/><line class="cls-1" x1="353.31" y1="267.63" x2="351.47" y2="270.24"/><path class="cls-1" d="M372.6,522.19a2.28,2.28,0,0,0,1.84.38"/><line class="cls-1" x1="396.38" y1="270.24" x2="394.53" y2="267.63"/><line class="cls-1" x1="372.08" y1="584.07" x2="375.77" y2="584.07"/><line class="cls-1" x1="366.39" y1="515.44" x2="364.54" y2="518.05"/><line class="cls-1" x1="372.08" y1="353.37" x2="375.77" y2="353.37"/><line class="cls-1" x1="383.3" y1="518.05" x2="381.45" y2="515.44"/><line class="cls-1" x1="382.32" y1="518.85" x2="380.47" y2="516.24"/><line class="cls-1" x1="394.71" y1="271.22" x2="392.86" y2="268.61"/><line class="cls-1" x1="383.3" y1="287.35" x2="381.45" y2="284.74"/><line class="cls-1" x1="425.43" y1="281.49" x2="424.17" y2="279.7"/><line class="cls-1" x1="353.31" y1="498.33" x2="351.47" y2="500.94"/><line class="cls-1" x1="164.91" y1="506.05" x2="163.38" y2="503.88"/><line class="cls-1" x1="354.98" y1="268.61" x2="353.14" y2="271.22"/><line class="cls-1" x1="186.66" y1="509.8" x2="187.15" y2="510.5"/><line class="cls-1" x1="372.08" y1="528.7" x2="375.77" y2="528.7"/><path class="cls-1" d="M186.66,279.1a1.4,1.4,0,0,1-.22-.93"/><path class="cls-1" d="M187.14,276.49a7.18,7.18,0,0,1,1.23-1.36"/><path class="cls-1" d="M189.88,274.06a7.57,7.57,0,0,1,1.7-.71"/><path class="cls-1" d="M193.4,273.26a1.34,1.34,0,0,1,.8.52"/><line class="cls-1" x1="194.35" y1="515.44" x2="195.26" y2="514.16"/><line class="cls-1" x1="196.32" y1="512.65" x2="197.39" y2="511.15"/><line class="cls-1" x1="198.45" y1="509.64" x2="199.52" y2="508.13"/><line class="cls-1" x1="200.59" y1="506.63" x2="201.65" y2="505.12"/><line class="cls-1" x1="202.72" y1="503.61" x2="203.78" y2="502.1"/><line class="cls-1" x1="204.85" y1="500.6" x2="205.76" y2="499.31"/><line class="cls-1" x1="372.08" y1="290.75" x2="372.08" y2="291.29"/><path class="cls-1" d="M375.24,522.19a1.37,1.37,0,0,0,.51-1.54,1.71,1.71,0,0,0-1.2-1"/><line class="cls-1" x1="375.77" y1="538.04" x2="375.77" y2="536.45"/><line class="cls-1" x1="375.77" y1="534.6" x2="375.77" y2="532.76"/><line class="cls-1" x1="375.77" y1="530.91" x2="375.77" y2="529.07"/><line class="cls-1" x1="375.77" y1="527.22" x2="375.77" y2="525.38"/><line class="cls-1" x1="375.77" y1="523.53" x2="375.77" y2="521.94"/><path class="cls-1" d="M353.14,271.22a2.44,2.44,0,0,0-1.67-1"/><line class="cls-1" x1="383.3" y1="287.35" x2="384.21" y2="286.07"/><line class="cls-1" x1="385.27" y1="284.56" x2="386.34" y2="283.05"/><line class="cls-1" x1="387.4" y1="281.55" x2="388.47" y2="280.04"/><line class="cls-1" x1="389.53" y1="278.53" x2="390.6" y2="277.03"/><line class="cls-1" x1="391.67" y1="275.52" x2="392.73" y2="274.01"/><line class="cls-1" x1="393.8" y1="272.5" x2="394.71" y2="271.22"/><path class="cls-1" d="M193.74,273.38a1.3,1.3,0,0,1,.46.4"/><path class="cls-1" d="M395.19,512.41a1.41,1.41,0,0,0,.92.55"/><path class="cls-1" d="M397.93,512.81a6.45,6.45,0,0,0,1-.4"/><line class="cls-1" x1="374.31" y1="288.77" x2="375.77" y2="288.77"/><path class="cls-1" d="M382.32,518.85a2.58,2.58,0,0,0,1-.8"/><path class="cls-1" d="M394.71,271.22a2.42,2.42,0,0,1,1.67-1"/><line class="cls-1" x1="352.65" y1="281.71" x2="353.3" y2="280.81"/><line class="cls-1" x1="172.19" y1="305.73" x2="172.99" y2="305.17"/><line class="cls-1" x1="174.49" y1="304.11" x2="176" y2="303.04"/><line class="cls-1" x1="177.51" y1="301.98" x2="179.01" y2="300.91"/><line class="cls-1" x1="180.52" y1="299.85" x2="182.03" y2="298.78"/><line class="cls-1" x1="183.54" y1="297.71" x2="185.04" y2="296.65"/><line class="cls-1" x1="186.55" y1="295.58" x2="188.06" y2="294.52"/><line class="cls-1" x1="189.56" y1="293.45" x2="191.07" y2="292.39"/><line class="cls-1" x1="192.58" y1="291.32" x2="194.08" y2="290.26"/><line class="cls-1" x1="195.59" y1="289.19" x2="196.38" y2="288.63"/><path class="cls-1" d="M323.29,512.41a1.41,1.41,0,0,1-.94.55"/><path class="cls-1" d="M348.89,281.71a9.16,9.16,0,0,1-1.88-1.19"/><path class="cls-1" d="M345.73,279.2a3.58,3.58,0,0,1-.84-2"/><line class="cls-1" x1="396.38" y1="500.94" x2="398.32" y2="500.94"/><line class="cls-1" x1="400.16" y1="500.94" x2="402.01" y2="500.94"/><line class="cls-1" x1="403.85" y1="500.94" x2="405.7" y2="500.94"/><line class="cls-1" x1="407.54" y1="500.94" x2="409.39" y2="500.94"/><line class="cls-1" x1="411.24" y1="500.94" x2="413.08" y2="500.94"/><line class="cls-1" x1="414.93" y1="500.94" x2="416.77" y2="500.94"/><line class="cls-1" x1="418.62" y1="500.94" x2="420.46" y2="500.94"/><line class="cls-1" x1="422.31" y1="500.94" x2="424.16" y2="500.94"/><line class="cls-1" x1="426" y1="500.94" x2="427.85" y2="500.94"/><line class="cls-1" x1="429.69" y1="500.94" x2="431.54" y2="500.94"/><line class="cls-1" x1="433.38" y1="500.94" x2="435.23" y2="500.94"/><line class="cls-1" x1="437.07" y1="500.94" x2="438.92" y2="500.94"/><line class="cls-1" x1="440.76" y1="500.94" x2="442.61" y2="500.94"/><polyline class="cls-1" points="444.46 500.94 444.51 500.94 446.39 500.94"/><path class="cls-1" d="M166.68,276.39a1.49,1.49,0,0,1,.19,1.18,3.52,3.52,0,0,1-.31.85"/><line class="cls-1" x1="402.72" y1="276.39" x2="402.38" y2="275.91"/><line class="cls-1" x1="194.54" y1="515.72" x2="194.35" y2="515.44"/><line class="cls-1" x1="402.72" y1="507.09" x2="402.17" y2="506.31"/><line class="cls-1" x1="201.01" y1="275.32" x2="201.24" y2="274.19"/><line class="cls-1" x1="201.61" y1="272.38" x2="201.97" y2="270.57"/><line class="cls-1" x1="202.34" y1="268.76" x2="202.57" y2="267.63"/><line class="cls-1" x1="426.01" y1="513.02" x2="427.91" y2="513.02"/><path class="cls-1" d="M323.29,281.71a1.69,1.69,0,0,1-1.46.6"/><line class="cls-1" x1="373.92" y1="289.62" x2="373.12" y2="290.75"/><line class="cls-1" x1="364.54" y1="518.05" x2="363.64" y2="516.77"/><line class="cls-1" x1="362.57" y1="515.26" x2="361.5" y2="513.76"/><line class="cls-1" x1="360.44" y1="512.25" x2="359.37" y2="510.74"/><line class="cls-1" x1="358.31" y1="509.24" x2="357.24" y2="507.73"/><line class="cls-1" x1="356.18" y1="506.22" x2="355.11" y2="504.71"/><line class="cls-1" x1="354.05" y1="503.21" x2="353.14" y2="501.92"/><line class="cls-1" x1="426.01" y1="282.31" x2="427.91" y2="282.31"/><line class="cls-1" x1="194.68" y1="285.2" x2="194.35" y2="284.74"/><path class="cls-1" d="M373.4,519.58c-.93.13-1.66,1.21-1.31,1.92"/><path class="cls-1" d="M382.32,288.15a2.58,2.58,0,0,0,1-.8"/><path class="cls-1" d="M323.34,510.76a1.75,1.75,0,0,1,0,1.65"/><path class="cls-1" d="M402.72,507.09a1.18,1.18,0,0,0-.46-.39"/><path class="cls-1" d="M399,281.71a9.1,9.1,0,0,0,1.87-1.19"/><path class="cls-1" d="M402.11,279.2a3.58,3.58,0,0,0,.84-2"/><path class="cls-1" d="M365.52,518.85a2.58,2.58,0,0,1-1-.8"/><path class="cls-1" d="M163.38,273.18a1.69,1.69,0,0,1,1.46.6"/><path class="cls-1" d="M402.72,276.39a1.3,1.3,0,0,0-.46-.4"/><path class="cls-1" d="M189,282.1a1.18,1.18,0,0,1-.46-.39"/><path class="cls-1" d="M166.68,507.09a1.49,1.49,0,0,1,.19,1.18,3.37,3.37,0,0,1-.31.85"/><path class="cls-1" d="M164.84,504.48a1.49,1.49,0,0,1,.18,1.18h0"/><path class="cls-1" d="M395.19,281.71a1.41,1.41,0,0,0,.92.55"/><path class="cls-1" d="M397.93,282.11a6.45,6.45,0,0,0,1-.4"/><path class="cls-1" d="M348.89,512.41a9.16,9.16,0,0,1-1.88-1.19"/><path class="cls-1" d="M345.73,509.9a3.55,3.55,0,0,1-.84-2"/><line class="cls-1" x1="376.04" y1="521.81" x2="378.35" y2="520.73"/><line class="cls-1" x1="380.02" y1="519.94" x2="382.32" y2="518.85"/><line class="cls-1" x1="372.08" y1="521.94" x2="372.08" y2="524.14"/><line class="cls-1" x1="372.08" y1="525.99" x2="372.08" y2="527.83"/><line class="cls-1" x1="372.08" y1="529.68" x2="372.08" y2="531.52"/><line class="cls-1" x1="372.08" y1="533.37" x2="372.08" y2="535.57"/><path class="cls-1" d="M352.65,512.41a1.38,1.38,0,0,1-.92.55"/><path class="cls-1" d="M349.91,512.81a6.35,6.35,0,0,1-1-.4"/><path class="cls-1" d="M394.71,501.92a2.42,2.42,0,0,1,1.67-1"/><line class="cls-1" x1="186.66" y1="509.8" x2="188.51" y2="512.41"/><line class="cls-1" x1="321.83" y1="513.02" x2="319.94" y2="513.02"/><path class="cls-1" d="M424.55,512.41A1.72,1.72,0,0,0,426,513"/><path class="cls-1" d="M323.51,281.13a1.5,1.5,0,0,1-.13.44"/><line class="cls-1" x1="351.47" y1="500.94" x2="349.41" y2="500.94"/><line class="cls-1" x1="347.57" y1="500.94" x2="345.72" y2="500.94"/><line class="cls-1" x1="343.88" y1="500.94" x2="342.03" y2="500.94"/><line class="cls-1" x1="340.19" y1="500.94" x2="338.34" y2="500.94"/><line class="cls-1" x1="336.5" y1="500.94" x2="334.65" y2="500.94"/><line class="cls-1" x1="332.8" y1="500.94" x2="330.96" y2="500.94"/><line class="cls-1" x1="329.11" y1="500.94" x2="327.27" y2="500.94"/><line class="cls-1" x1="325.42" y1="500.94" x2="323.57" y2="500.94"/><line class="cls-1" x1="321.73" y1="500.94" x2="319.89" y2="500.94"/><line class="cls-1" x1="318.04" y1="500.94" x2="316.19" y2="500.94"/><line class="cls-1" x1="314.35" y1="500.94" x2="312.5" y2="500.94"/><line class="cls-1" x1="310.66" y1="500.94" x2="308.81" y2="500.94"/><line class="cls-1" x1="306.97" y1="500.94" x2="305.12" y2="500.94"/><line class="cls-1" x1="303.27" y1="500.94" x2="301.22" y2="500.94"/><line class="cls-1" x1="186.66" y1="279.1" x2="188.51" y2="281.71"/><line class="cls-1" x1="371.8" y1="291.11" x2="369.5" y2="290.02"/><line class="cls-1" x1="367.83" y1="289.24" x2="365.52" y2="288.15"/><path class="cls-1" d="M353.14,501.92a2.44,2.44,0,0,0-1.67-1"/><path class="cls-1" d="M186.66,509.8a2,2,0,0,1,.12-2"/><line class="cls-1" x1="374.72" y1="290.75" x2="375.77" y2="290.75"/><line class="cls-1" x1="371.8" y1="521.81" x2="369.5" y2="520.73"/><line class="cls-1" x1="367.83" y1="519.94" x2="365.52" y2="518.85"/><path class="cls-1" d="M165,274.26a1.85,1.85,0,0,1,0,.7l-.11.39"/><path class="cls-1" d="M163.38,503.88a1.72,1.72,0,0,1,1.46.6"/><line class="cls-1" x1="151.3" y1="273.18" x2="152.72" y2="273.18"/><line class="cls-1" x1="154.57" y1="273.18" x2="156.41" y2="273.18"/><line class="cls-1" x1="158.26" y1="273.18" x2="160.1" y2="273.18"/><line class="cls-1" x1="161.95" y1="273.18" x2="163.38" y2="273.18"/><path class="cls-1" d="M187.13,510.2a1.33,1.33,0,0,1-.47-.4"/><line class="cls-1" x1="375.77" y1="290.75" x2="375.77" y2="289.15"/><line class="cls-1" x1="372.08" y1="291.24" x2="372.08" y2="292.63"/><line class="cls-1" x1="372.08" y1="294.48" x2="372.08" y2="296.32"/><line class="cls-1" x1="372.08" y1="298.17" x2="372.08" y2="300.02"/><line class="cls-1" x1="372.08" y1="301.86" x2="372.08" y2="303.71"/><line class="cls-1" x1="372.08" y1="305.55" x2="372.08" y2="306.95"/><path class="cls-1" d="M186.66,279.1a2,2,0,0,1,.12-2"/><path class="cls-1" d="M195.58,276a1.33,1.33,0,0,1,.47.4"/><path class="cls-1" d="M424.55,281.71a1.69,1.69,0,0,0,1.46.6"/><line class="cls-1" x1="383.3" y1="518.05" x2="384.21" y2="516.77"/><line class="cls-1" x1="385.27" y1="515.26" x2="386.34" y2="513.76"/><line class="cls-1" x1="387.4" y1="512.25" x2="388.47" y2="510.74"/><line class="cls-1" x1="389.53" y1="509.24" x2="390.6" y2="507.73"/><line class="cls-1" x1="391.67" y1="506.22" x2="392.73" y2="504.71"/><line class="cls-1" x1="393.8" y1="503.21" x2="394.71" y2="501.92"/><line class="cls-1" x1="396.38" y1="270.24" x2="398.43" y2="270.24"/><line class="cls-1" x1="400.27" y1="270.24" x2="402.12" y2="270.24"/><line class="cls-1" x1="403.96" y1="270.24" x2="405.81" y2="270.24"/><line class="cls-1" x1="407.66" y1="270.24" x2="409.5" y2="270.24"/><line class="cls-1" x1="411.35" y1="270.24" x2="413.19" y2="270.24"/><line class="cls-1" x1="415.04" y1="270.24" x2="416.88" y2="270.24"/><line class="cls-1" x1="418.73" y1="270.24" x2="420.58" y2="270.24"/><line class="cls-1" x1="422.43" y1="270.24" x2="424.27" y2="270.24"/><line class="cls-1" x1="426.11" y1="270.24" x2="427.96" y2="270.24"/><line class="cls-1" x1="429.8" y1="270.24" x2="431.65" y2="270.24"/><line class="cls-1" x1="433.5" y1="270.24" x2="435.34" y2="270.24"/><line class="cls-1" x1="437.19" y1="270.24" x2="439.03" y2="270.24"/><line class="cls-1" x1="440.88" y1="270.24" x2="442.72" y2="270.24"/><line class="cls-1" x1="444.57" y1="270.24" x2="446.62" y2="270.24"/><line class="cls-1" x1="351.47" y1="270.24" x2="349.41" y2="270.24"/><line class="cls-1" x1="347.57" y1="270.24" x2="345.72" y2="270.24"/><line class="cls-1" x1="343.88" y1="270.24" x2="342.03" y2="270.24"/><line class="cls-1" x1="340.19" y1="270.24" x2="338.34" y2="270.24"/><line class="cls-1" x1="336.5" y1="270.24" x2="334.65" y2="270.24"/><line class="cls-1" x1="332.8" y1="270.24" x2="330.96" y2="270.24"/><line class="cls-1" x1="329.11" y1="270.24" x2="327.27" y2="270.24"/><line class="cls-1" x1="325.42" y1="270.24" x2="323.57" y2="270.24"/><line class="cls-1" x1="321.73" y1="270.24" x2="319.89" y2="270.24"/><line class="cls-1" x1="318.04" y1="270.24" x2="316.19" y2="270.24"/><line class="cls-1" x1="314.35" y1="270.24" x2="312.5" y2="270.24"/><line class="cls-1" x1="310.66" y1="270.24" x2="308.81" y2="270.24"/><line class="cls-1" x1="306.97" y1="270.24" x2="305.12" y2="270.24"/><line class="cls-1" x1="303.27" y1="270.24" x2="301.22" y2="270.24"/><path class="cls-1" d="M186.66,509.8a1.38,1.38,0,0,1-.22-.92"/><path class="cls-1" d="M187.14,507.19a7.5,7.5,0,0,1,1.23-1.36"/><path class="cls-1" d="M189.88,504.76a7.57,7.57,0,0,1,1.7-.71"/><path class="cls-1" d="M193.4,504a1.39,1.39,0,0,1,.8.52"/><line class="cls-1" x1="373.12" y1="290.75" x2="374.72" y2="290.75"/><path class="cls-1" d="M194.2,504.48a1.64,1.64,0,0,1,.09,1.53"/><line class="cls-1" x1="375.77" y1="304.86" x2="375.77" y2="302.67"/><line class="cls-1" x1="375.77" y1="300.82" x2="375.77" y2="298.98"/><line class="cls-1" x1="375.77" y1="297.13" x2="375.77" y2="295.29"/><line class="cls-1" x1="375.77" y1="293.44" x2="375.77" y2="291.24"/><path class="cls-1" d="M352.65,281.71a1.38,1.38,0,0,1-.92.55"/><path class="cls-1" d="M349.91,282.11a6.35,6.35,0,0,1-1-.4"/><line class="cls-1" x1="372.08" y1="290.75" x2="373.12" y2="290.75"/><path class="cls-1" d="M365.52,288.15a2.48,2.48,0,0,1-1-.8"/><path class="cls-1" d="M399,512.41a9.1,9.1,0,0,0,1.87-1.19"/><path class="cls-1" d="M402.11,509.9a3.55,3.55,0,0,0,.84-2"/><line class="cls-1" x1="372.08" y1="528.12" x2="375.77" y2="528.12"/><line class="cls-1" x1="376.04" y1="291.11" x2="378.35" y2="290.02"/><line class="cls-1" x1="380.02" y1="289.24" x2="382.32" y2="288.15"/><line class="cls-1" x1="196.38" y1="519.33" x2="195.59" y2="519.89"/><line class="cls-1" x1="194.08" y1="520.96" x2="192.58" y2="522.02"/><line class="cls-1" x1="191.07" y1="523.09" x2="189.56" y2="524.16"/><line class="cls-1" x1="188.06" y1="525.22" x2="186.55" y2="526.29"/><line class="cls-1" x1="185.04" y1="527.35" x2="183.54" y2="528.42"/><line class="cls-1" x1="182.03" y1="529.48" x2="180.52" y2="530.55"/><line class="cls-1" x1="179.01" y1="531.61" x2="177.51" y2="532.68"/><line class="cls-1" x1="176" y1="533.74" x2="174.49" y2="534.81"/><line class="cls-1" x1="172.99" y1="535.88" x2="172.19" y2="536.44"/><line class="cls-1" x1="372.08" y1="288.77" x2="373.79" y2="288.77"/><line class="cls-1" x1="375.11" y1="537.93" x2="372.08" y2="537.93"/><line class="cls-1" x1="194.35" y1="284.74" x2="195.26" y2="283.46"/><line class="cls-1" x1="196.32" y1="281.95" x2="197.39" y2="280.44"/><line class="cls-1" x1="198.45" y1="278.94" x2="199.52" y2="277.43"/><line class="cls-1" x1="200.59" y1="275.92" x2="201.65" y2="274.42"/><line class="cls-1" x1="202.72" y1="272.91" x2="203.78" y2="271.4"/><line class="cls-1" x1="204.85" y1="269.89" x2="205.76" y2="268.61"/><line class="cls-1" x1="374.08" y1="307.23" x2="373.56" y2="307.23"/><line class="cls-1" x1="323.29" y1="281.71" x2="323.39" y2="281.58"/><path class="cls-1" d="M188.51,281.71a2,2,0,0,1,.12-2"/><line class="cls-1" x1="151.3" y1="503.88" x2="152.72" y2="503.88"/><line class="cls-1" x1="154.57" y1="503.88" x2="156.41" y2="503.88"/><line class="cls-1" x1="158.26" y1="503.88" x2="160.1" y2="503.88"/><line class="cls-1" x1="161.95" y1="503.88" x2="163.38" y2="503.88"/><line class="cls-1" x1="364.55" y1="287.35" x2="363.64" y2="286.07"/><line class="cls-1" x1="362.57" y1="284.56" x2="361.51" y2="283.05"/><line class="cls-1" x1="360.44" y1="281.55" x2="359.37" y2="280.04"/><line class="cls-1" x1="358.31" y1="278.53" x2="357.24" y2="277.03"/><line class="cls-1" x1="356.18" y1="275.52" x2="355.11" y2="274.01"/><line class="cls-1" x1="354.05" y1="272.5" x2="353.14" y2="271.22"/><path class="cls-1" d="M372.6,308.59a2.28,2.28,0,0,0,1.84.38"/><line class="cls-1" x1="372.08" y1="587.55" x2="375.77" y2="587.55"/><line class="cls-1" x1="155.4" y1="501.92" x2="153.55" y2="499.31"/><path class="cls-1" d="M372.6,539.29a2.24,2.24,0,0,0,1.84.38"/><line class="cls-1" x1="155.4" y1="271.22" x2="153.55" y2="268.61"/><line class="cls-1" x1="372.08" y1="370.44" x2="375.77" y2="370.44"/><line class="cls-1" x1="158.71" y1="513.02" x2="156.87" y2="510.41"/><line class="cls-1" x1="305.32" y1="272.2" x2="303.47" y2="274.81"/><line class="cls-1" x1="430.63" y1="275.79" x2="428.78" y2="273.18"/><line class="cls-1" x1="442.7" y1="506.49" x2="440.85" y2="503.88"/><line class="cls-1" x1="158.71" y1="282.31" x2="156.87" y2="279.7"/><line class="cls-1" x1="444.37" y1="274.81" x2="442.52" y2="272.2"/><line class="cls-1" x1="319.06" y1="273.18" x2="317.22" y2="275.79"/><line class="cls-1" x1="323.68" y1="279.7" x2="322.99" y2="280.67"/><line class="cls-1" x1="367.37" y1="516.24" x2="367.05" y2="516.69"/><line class="cls-1" x1="442.7" y1="275.79" x2="440.85" y2="273.18"/><line class="cls-1" x1="165.22" y1="275.79" x2="164.32" y2="274.52"/><line class="cls-1" x1="306.99" y1="503.88" x2="305.14" y2="506.49"/><line class="cls-1" x1="373.92" y1="306.72" x2="372.6" y2="308.59"/><line class="cls-1" x1="152.86" y1="274.81" x2="151.02" y2="272.2"/><line class="cls-1" x1="375.24" y1="308.59" x2="373.92" y2="306.72"/><path class="cls-1" d="M373.4,536.68c-.93.14-1.66,1.21-1.31,1.92"/><line class="cls-1" x1="157.07" y1="500.94" x2="155.22" y2="498.33"/><line class="cls-1" x1="160.61" y1="282.31" x2="158.76" y2="279.7"/><line class="cls-1" x1="427.22" y1="284.09" x2="425.74" y2="282.01"/><line class="cls-1" x1="375.24" y1="539.29" x2="375.45" y2="539.1"/><line class="cls-1" x1="427.22" y1="514.79" x2="425.37" y2="512.18"/><line class="cls-1" x1="302.78" y1="499.31" x2="301.2" y2="501.54"/><line class="cls-1" x1="160.61" y1="513.02" x2="158.76" y2="510.41"/><line class="cls-1" x1="322.47" y1="512.18" x2="320.63" y2="514.79"/><line class="cls-1" x1="306.68" y1="273.62" x2="305.14" y2="275.79"/><line class="cls-1" x1="157.07" y1="270.24" x2="155.22" y2="267.63"/><line class="cls-1" x1="321.78" y1="279.7" x2="321.55" y2="280.03"/><line class="cls-1" x1="302.78" y1="268.61" x2="300.93" y2="271.22"/><line class="cls-1" x1="319.06" y1="503.88" x2="317.22" y2="506.49"/><path class="cls-1" d="M375.68,538.77a1.31,1.31,0,0,0,.07-1,2,2,0,0,0-2.35-1.07"/><line class="cls-1" x1="305.32" y1="502.9" x2="303.47" y2="505.51"/><line class="cls-1" x1="446.53" y1="501.39" x2="445.06" y2="499.31"/><line class="cls-1" x1="372.08" y1="601.14" x2="375.77" y2="601.14"/><line class="cls-1" x1="444.37" y1="505.51" x2="442.52" y2="502.9"/><line class="cls-1" x1="322.47" y1="281.48" x2="320.63" y2="284.09"/><line class="cls-1" x1="430.63" y1="506.49" x2="428.78" y2="503.88"/><line class="cls-1" x1="152.86" y1="505.51" x2="151.21" y2="503.18"/><line class="cls-1" x1="446.91" y1="271.22" x2="445.06" y2="268.61"/><line class="cls-1" x1="366.39" y1="515.44" x2="354.98" y2="499.31"/><path class="cls-1" d="M220.08,353.37a4.61,4.61,0,0,0-4.61-4.61,4.61,4.61,0,0,0-4.62,4.61"/><path class="cls-1" d="M355,499.31a2.42,2.42,0,0,0-1.67-1"/><path class="cls-1" d="M210.85,353.37v2.68a1.41,1.41,0,0,1-1,1.32,1.34,1.34,0,0,1-1-.09"/><path class="cls-1" d="M444.78,498.33c.51-.05.67.5.28,1"/><path class="cls-1" d="M303.07,498.33c-.52-.05-.68.5-.29,1"/><polyline class="cls-1" points="353.31 498.33 328.63 498.33 313.99 498.33 305.18 498.33 303.07 498.33"/><line class="cls-1" x1="300.93" y1="501.92" x2="303.47" y2="505.51"/><path class="cls-1" d="M227.93,370.44a1.42,1.42,0,0,1-1.39,1.39"/><line class="cls-1" x1="208.41" y1="245.86" x2="214.51" y2="247.15"/><path class="cls-1" d="M305.32,502.9a2.42,2.42,0,0,0,1.67,1"/><path class="cls-1" d="M303.47,505.51a2.44,2.44,0,0,0,1.67,1"/><line class="cls-1" x1="306.99" y1="503.88" x2="319.06" y2="503.88"/><line class="cls-1" x1="216.42" y1="238.12" x2="211.04" y2="236.71"/><line class="cls-1" x1="305.14" y1="506.49" x2="317.22" y2="506.49"/><path class="cls-1" d="M426.51,280.38a2,2,0,0,1-.58.75"/><path class="cls-1" d="M206.79,246.84a1.39,1.39,0,0,1,1.62-1"/><path class="cls-1" d="M395.73,510.29a6.31,6.31,0,0,0,1.38-.49"/><path class="cls-1" d="M211,236.71a1.36,1.36,0,0,1-1.09-.5,1.4,1.4,0,0,1-.29-1.17"/><path class="cls-1" d="M211.7,545.21a4.73,4.73,0,0,0,3,1.89,4.67,4.67,0,0,0,3.44-.79,4.61,4.61,0,0,0-1.88-8.31,4.61,4.61,0,0,0-4.55,7.21Z"/><line class="cls-1" x1="321.78" y1="510.41" x2="321.5" y2="510.8"/><path class="cls-1" d="M321.33,511.09a2,2,0,0,0,.58.74"/><path class="cls-1" d="M319.49,513.7a1.93,1.93,0,0,0,.58.74"/><path class="cls-1" d="M211.7,281.5a4.62,4.62,0,0,0,1.1,6.43,4.61,4.61,0,0,0,6.43-1.1,4.63,4.63,0,0,0-1.1-6.44,4.61,4.61,0,0,0-6.43,1.11Z"/><polyline class="cls-1" points="320.63 514.79 336.4 522.23 372.08 539.05"/><path class="cls-1" d="M354.5,509.8a1.94,1.94,0,0,1-1.89.58"/><line class="cls-1" x1="372.08" y1="602.53" x2="375.77" y2="602.53"/><line class="cls-1" x1="372.08" y1="602.53" x2="372.08" y2="601.14"/><path class="cls-1" d="M422.71,509.8a1.72,1.72,0,0,0,1.46.61"/><line class="cls-1" x1="375.77" y1="238.12" x2="375.77" y2="236.71"/><line class="cls-1" x1="375.77" y1="602.53" x2="375.77" y2="601.14"/><path class="cls-1" d="M194.23,506.51a1.91,1.91,0,0,1,1.82.58"/><path class="cls-1" d="M188.63,510.38a7.47,7.47,0,0,1,2.32-2.51,7.2,7.2,0,0,1,3.28-1.36"/><polyline class="cls-1" points="156.89 514.79 162.15 522.23 174.04 539.05"/><path class="cls-1" d="M165.22,506.49a1.72,1.72,0,0,1,1.46.6"/><line class="cls-1" x1="375.77" y1="601.14" x2="375.77" y2="588.16"/><line class="cls-1" x1="155.4" y1="501.92" x2="152.86" y2="505.51"/><path class="cls-1" d="M188.71,510.36a2.68,2.68,0,0,1-1.58-.16"/><path class="cls-1" d="M164.84,273.78A1.49,1.49,0,0,1,165,275l-.11.39"/><line class="cls-1" x1="166.68" y1="276.39" x2="165.91" y2="275.3"/><line class="cls-1" x1="372.08" y1="236.21" x2="372.08" y2="235.04"/><line class="cls-1" x1="197.78" y1="290.6" x2="196.04" y2="288.15"/><line class="cls-1" x1="372.08" y1="586.75" x2="372.08" y2="587.62"/><path class="cls-1" d="M194.08,275.81a7.38,7.38,0,0,1-2.32,2.51,7,7,0,0,1-3.37,1.37"/><path class="cls-1" d="M347,504.48c.48-.84,2.3-.74,3.76,0,2,.79,4.2,3.33,4,4.55"/><path class="cls-1" d="M196.05,276.39a2,2,0,0,1-.17,2.11,8.25,8.25,0,0,1-5.33,3.77,2,2,0,0,1-2-.56"/><path class="cls-1" d="M210.85,584.07v2.68a1.4,1.4,0,0,1-1,1.32,1.38,1.38,0,0,1-1-.08"/><line class="cls-1" x1="196.19" y1="518.05" x2="194.54" y2="515.72"/><polyline class="cls-1" points="208.34 587.55 197.82 572.68 174.04 539.05"/><line class="cls-1" x1="196.19" y1="518.05" x2="207.6" y2="501.92"/><line class="cls-1" x1="321.21" y1="511.22" x2="319.94" y2="513.02"/><line class="cls-1" x1="198.13" y1="291.11" x2="197.78" y2="290.6"/><path class="cls-1" d="M207.6,501.92c.39-.48.23-1-.28-1"/><polyline class="cls-1" points="205.47 498.33 180.78 498.33 166.15 498.33 157.34 498.33 155.22 498.33"/><line class="cls-1" x1="198.41" y1="522.2" x2="202.59" y2="528.12"/><line class="cls-1" x1="375.77" y1="579.46" x2="372.08" y2="579.46"/><path class="cls-1" d="M155.22,498.33a2.46,2.46,0,0,0-1.67,1"/><path class="cls-1" d="M158.71,513a2.22,2.22,0,0,0-1.41.68"/><line class="cls-1" x1="220.08" y1="601.14" x2="220.08" y2="584.07"/><path class="cls-1" d="M227.93,601.14a1.42,1.42,0,0,1-1.39,1.39"/><path class="cls-1" d="M300.76,501.16a.82.82,0,0,0,.17.76"/><line class="cls-1" x1="156.47" y1="514.21" x2="155.04" y2="512.18"/><line class="cls-1" x1="375.77" y1="370.44" x2="375.77" y2="357.31"/><line class="cls-1" x1="158.76" y1="510.41" x2="156.87" y2="510.41"/><line class="cls-1" x1="160.61" y1="513.02" x2="158.71" y2="513.02"/><line class="cls-1" x1="153.15" y1="506.49" x2="153.05" y2="506.34"/><line class="cls-1" x1="323.68" y1="510.41" x2="321.78" y2="510.41"/><line class="cls-1" x1="427.91" y1="513.02" x2="426.8" y2="511.44"/><path class="cls-1" d="M430.63,506.49a7.3,7.3,0,0,0-4.17,1.78,7.89,7.89,0,0,0-1.4,1.48,2.67,2.67,0,0,0-.61,2.48"/><line class="cls-1" x1="208.34" y1="356.85" x2="174.04" y2="308.35"/><line class="cls-1" x1="302.63" y1="498.51" x2="301.08" y2="500.7"/><path class="cls-1" d="M194.54,275.79a1.72,1.72,0,0,1,1.51.6"/><line class="cls-1" x1="153.43" y1="275.79" x2="165.22" y2="275.79"/><line class="cls-1" x1="372.08" y1="356.85" x2="372.08" y2="357.69"/><line class="cls-1" x1="372.08" y1="314.51" x2="372.08" y2="315.23"/><line class="cls-1" x1="196.1" y1="288.24" x2="195.72" y2="287.69"/><line class="cls-1" x1="372.08" y1="225.15" x2="375.77" y2="225.15"/><path class="cls-1" d="M402.26,506.7a2.53,2.53,0,0,0-1.52-.17"/><path class="cls-1" d="M188.63,279.68a8.18,8.18,0,0,1,5.55-3.87"/><line class="cls-1" x1="199.52" y1="282.65" x2="207.6" y2="271.22"/><path class="cls-1" d="M446.62,500.94c.52-.05.68.5.29,1"/><line class="cls-1" x1="205.77" y1="267.69" x2="205.47" y2="267.63"/><path class="cls-1" d="M188.39,279.69a1.85,1.85,0,0,1-1.73-.59"/><line class="cls-1" x1="426.5" y1="511.02" x2="426.06" y2="510.41"/><line class="cls-1" x1="209.66" y1="235.04" x2="211.79" y2="225.15"/><path class="cls-1" d="M350.73,279.1A8.38,8.38,0,0,1,347.2,276"/><path class="cls-1" d="M392.86,499.31a2.42,2.42,0,0,1,1.67-1"/><path class="cls-1" d="M214.51,247.15a4.61,4.61,0,0,0,1.91-9"/><line class="cls-1" x1="374.72" y1="290.75" x2="373.92" y2="289.62"/><polyline class="cls-1" points="227.93 225.56 227.93 290.16 227.93 299.39 227.93 355 227.93 367.46 227.93 370.44"/><line class="cls-1" x1="428.35" y1="282.49" x2="426.5" y2="279.88"/><line class="cls-1" x1="197.88" y1="290.75" x2="199.52" y2="282.65"/><line class="cls-1" x1="207.32" y1="270.24" x2="205.47" y2="267.63"/><line class="cls-1" x1="202.57" y1="267.63" x2="206.79" y2="246.84"/><line class="cls-1" x1="220.08" y1="370.44" x2="220.08" y2="353.37"/><path class="cls-1" d="M317.22,506.49a7.25,7.25,0,0,1,4.16,1.78,8.32,8.32,0,0,1,1.41,1.48l.31.51"/><path class="cls-1" d="M221.47,371.83a1.41,1.41,0,0,1-1.39-1.39"/><line class="cls-1" x1="226.54" y1="371.83" x2="221.47" y2="371.83"/><path class="cls-1" d="M347.1,275.84a2.78,2.78,0,0,1-.36-1.28"/><line class="cls-1" x1="347.2" y1="276.02" x2="347.1" y2="275.84"/><path class="cls-1" d="M227.68,224.18c.16,0,.25.73.25,1.38"/><line class="cls-1" x1="375.77" y1="289.15" x2="375.77" y2="288.72"/><line class="cls-1" x1="213.11" y1="224.18" x2="227.68" y2="224.18"/><line class="cls-1" x1="402.17" y1="506.31" x2="400.88" y2="504.48"/><line class="cls-1" x1="423.01" y1="279.53" x2="424.55" y2="281.71"/><path class="cls-1" d="M188.51,281.71a2,2,0,0,1,.12-2"/><path class="cls-1" d="M156.87,279.7a2.32,2.32,0,0,0-1.42.68"/><line class="cls-1" x1="374.2" y1="288.5" x2="380.47" y2="285.54"/><path class="cls-1" d="M302.78,268.61l2.54,3.59a2.45,2.45,0,0,0,1.67,1"/><line class="cls-1" x1="153.55" y1="268.61" x2="151.02" y2="272.2"/><path class="cls-1" d="M155.22,267.63a2.46,2.46,0,0,0-1.67,1"/><path class="cls-1" d="M157.07,270.24a2.42,2.42,0,0,0-1.67,1"/><line class="cls-1" x1="323.68" y1="279.7" x2="321.78" y2="279.7"/><line class="cls-1" x1="196.19" y1="287.35" x2="194.68" y2="285.2"/><line class="cls-1" x1="375.77" y1="235.04" x2="375.77" y2="225.15"/><path class="cls-1" d="M194.2,273.78a2,2,0,0,1-.12,2"/><line class="cls-1" x1="445.5" y1="268.66" x2="444.78" y2="267.63"/><line class="cls-1" x1="445.06" y1="268.61" x2="442.52" y2="272.2"/><path class="cls-1" d="M430.63,275.79a7.3,7.3,0,0,0-4.17,1.78,7.6,7.6,0,0,0-1.4,1.48c-.68.92-1,2.05-.51,2.66"/><line class="cls-1" x1="372.08" y1="547.16" x2="375.77" y2="547.16"/><path class="cls-1" d="M301.22,270.24c-.51-.05-.67.5-.29,1"/><path class="cls-1" d="M397.11,279.1c2-.79,4.2-3.33,4-4.54"/><line class="cls-1" x1="300.93" y1="271.22" x2="303.47" y2="274.81"/><polyline class="cls-1" points="320.63 284.09 336.4 291.53 372.08 308.35"/><line class="cls-1" x1="306.99" y1="273.18" x2="319.06" y2="273.18"/><line class="cls-1" x1="305.14" y1="275.79" x2="317.22" y2="275.79"/><path class="cls-1" d="M319.06,273.18a7.3,7.3,0,0,1,4.17,1.78,7.6,7.6,0,0,1,1.4,1.48c.68.92,1,2.05.51,2.66"/><line class="cls-1" x1="375.77" y1="356.85" x2="375.77" y2="308.35"/><line class="cls-1" x1="199.52" y1="282.65" x2="201.01" y2="275.32"/><path class="cls-1" d="M319.49,283a1.88,1.88,0,0,0,.58.75"/><path class="cls-1" d="M164.72,275.81l-.39.63c-1,1.6-4.08,3.43-5.57,3.26"/><line class="cls-1" x1="372.08" y1="287.93" x2="372.08" y2="246.84"/><line class="cls-1" x1="375.77" y1="288.72" x2="375.77" y2="246.84"/><path class="cls-1" d="M321.33,280.38a2,2,0,0,0,.58.75"/><path class="cls-1" d="M380.47,285.54a2.51,2.51,0,0,0,1-.8l11.41-16.13"/><line class="cls-1" x1="321.83" y1="282.31" x2="319.94" y2="282.31"/><line class="cls-1" x1="373.65" y1="288.5" x2="367.37" y2="285.54"/><path class="cls-1" d="M392.86,268.61a2.42,2.42,0,0,1,1.67-1"/><polyline class="cls-1" points="394.53 267.63 419.22 267.63 433.86 267.63 442.66 267.63 444.77 267.63"/><line class="cls-1" x1="346.97" y1="273.78" x2="345.12" y2="276.39"/><line class="cls-1" x1="446.91" y1="271.22" x2="444.37" y2="274.81"/><line class="cls-1" x1="372.08" y1="356.85" x2="372.08" y2="315.61"/><path class="cls-1" d="M345.12,276.39a2.26,2.26,0,0,1,2.4-.49"/><path class="cls-1" d="M444.37,274.81a2.42,2.42,0,0,1-1.67,1"/><path class="cls-1" d="M347.52,275.9a7,7,0,0,1,1.37.49c2,.79,4.19,3.33,4,4.54"/><line class="cls-1" x1="442.7" y1="275.79" x2="430.63" y2="275.79"/><line class="cls-1" x1="422.71" y1="279.1" x2="423.01" y2="279.53"/><path class="cls-1" d="M440.85,273.18H428.78a7.3,7.3,0,0,0-4.17,1.78,8.26,8.26,0,0,0-1.4,1.48c-.67.92-1,2.05-.5,2.66"/><line class="cls-1" x1="402.38" y1="275.91" x2="400.88" y2="273.78"/><line class="cls-1" x1="393.34" y1="279.1" x2="395.19" y2="281.71"/><path class="cls-1" d="M303.47,274.81a2.44,2.44,0,0,0,1.67,1"/><line class="cls-1" x1="424.17" y1="279.7" x2="426.06" y2="279.7"/><path class="cls-1" d="M428.36,283a1.92,1.92,0,0,1-.59.75"/><path class="cls-1" d="M400.36,275.89a6.7,6.7,0,0,0-1.4.5c-2,.79-4.2,3.33-4,4.54"/><polyline class="cls-1" points="427.22 284.09 411.44 291.53 375.95 308.26"/><line class="cls-1" x1="445.06" y1="499.31" x2="442.52" y2="502.9"/><polyline class="cls-1" points="372.08 225.15 372.08 224.18 375.77 224.18"/><line class="cls-1" x1="375.77" y1="225.15" x2="375.77" y2="224.18"/><path class="cls-1" d="M442.52,272.2a2.45,2.45,0,0,1-1.67,1"/><line class="cls-1" x1="372.08" y1="371.83" x2="375.77" y2="371.83"/><line class="cls-1" x1="424.17" y1="510.41" x2="426.06" y2="510.41"/><line class="cls-1" x1="372.08" y1="371.83" x2="372.08" y2="370.44"/><polyline class="cls-1" points="425.37 512.18 409.6 519.62 373.92 536.44"/><line class="cls-1" x1="375.77" y1="371.83" x2="375.77" y2="370.44"/><line class="cls-1" x1="372.08" y1="370.44" x2="372.08" y2="357.7"/><polyline class="cls-1" points="425.37 281.48 409.6 288.92 373.92 305.74"/><path class="cls-1" d="M194.08,506.51a7.5,7.5,0,0,1-2.32,2.52,7.73,7.73,0,0,1-3,1.33"/><path class="cls-1" d="M397.11,509.8c2-.79,4.2-3.32,4-4.54"/><polyline class="cls-1" points="353.31 267.63 328.63 267.63 313.99 267.63 305.18 267.63 303.07 267.63"/><path class="cls-1" d="M220.08,584.07a4.61,4.61,0,0,0-4.61-4.61,4.61,4.61,0,0,0-4.62,4.61"/><line class="cls-1" x1="372.08" y1="290.75" x2="372.08" y2="287.93"/><line class="cls-1" x1="302.78" y1="499.31" x2="305.32" y2="502.9"/><path class="cls-1" d="M202.59,528.12a1.42,1.42,0,0,0,1.14.58"/><path class="cls-1" d="M372.08,246.84v-1"/><line class="cls-1" x1="203.73" y1="528.7" x2="226.54" y2="528.7"/><path class="cls-1" d="M355,268.61a2.42,2.42,0,0,0-1.67-1"/><path class="cls-1" d="M226.54,528.7a1.42,1.42,0,0,1,1.39,1.39"/><path class="cls-1" d="M375.77,246.84v-1"/><polyline class="cls-1" points="322.47 512.18 338.25 519.62 373.92 536.44"/><line class="cls-1" x1="372.08" y1="238.12" x2="372.08" y2="236.71"/><path class="cls-1" d="M157.07,500.94a2.42,2.42,0,0,0-1.67,1"/><path class="cls-1" d="M352.61,510.38a6.09,6.09,0,0,1-1.88-.58"/><path class="cls-1" d="M152.86,505.51c-.39.48-.23,1,.29,1"/><line class="cls-1" x1="444.88" y1="498.49" x2="444.78" y2="498.33"/><path class="cls-1" d="M350.73,509.8c-2-.79-4.19-3.32-4-4.54"/><path class="cls-1" d="M151,502.9c-.39.48-.23,1,.28,1"/><path class="cls-1" d="M367.37,516.24a2.58,2.58,0,0,1-1-.8"/><polyline class="cls-1" points="372.08 586.75 372.08 572.68 372.08 539.05"/><line class="cls-1" x1="375.77" y1="236.21" x2="375.77" y2="235.04"/><line class="cls-1" x1="366.39" y1="284.74" x2="354.98" y2="268.61"/><path class="cls-1" d="M221.47,602.53a1.41,1.41,0,0,1-1.39-1.39"/><line class="cls-1" x1="372.08" y1="235.04" x2="372.08" y2="225.15"/><path class="cls-1" d="M367.37,285.54a2.58,2.58,0,0,1-1-.8"/><line class="cls-1" x1="372.08" y1="587.36" x2="372.08" y2="588.07"/><path class="cls-1" d="M345.12,507.09a2.07,2.07,0,0,1,2.12-.54"/><line class="cls-1" x1="226.54" y1="602.53" x2="221.47" y2="602.53"/><polyline class="cls-1" points="375.77 587.55 375.77 572.68 375.77 539.05"/><polyline class="cls-1" points="227.93 530.09 227.93 565 227.93 585.7 227.93 598.16 227.93 601.14"/><line class="cls-1" x1="155.4" y1="271.22" x2="152.86" y2="274.81"/><line class="cls-1" x1="207.32" y1="500.94" x2="205.47" y2="498.33"/><path class="cls-1" d="M196.05,507.09a2,2,0,0,1-.17,2.11,8.16,8.16,0,0,1-5.33,3.77,2,2,0,0,1-2-.56"/><line class="cls-1" x1="374.2" y1="519.2" x2="380.47" y2="516.24"/><line class="cls-1" x1="373.65" y1="519.2" x2="367.37" y2="516.24"/><path class="cls-1" d="M325.14,509.8a1.72,1.72,0,0,1-1.46.61"/><polyline class="cls-1" points="205.47 267.63 180.78 267.63 166.15 267.63 157.34 267.63 155.22 267.63"/><line class="cls-1" x1="321.34" y1="279.88" x2="319.5" y2="282.49"/><path class="cls-1" d="M188.51,512.41a2,2,0,0,1,.12-2"/><path class="cls-1" d="M347,273.78c.48-.84,2.3-.75,3.76,0,2,.79,4.2,3.33,4,4.54"/><polyline class="cls-1" points="207.31 270.24 182.63 270.24 167.99 270.24 159.18 270.24 157.07 270.24"/><line class="cls-1" x1="153.55" y1="499.31" x2="151.02" y2="502.9"/><path class="cls-1" d="M164.72,506.51l-.39.63c-1,1.61-4.08,3.43-5.57,3.27"/><line class="cls-1" x1="393.34" y1="509.8" x2="395.19" y2="512.41"/><path class="cls-1" d="M400.88,273.78c-.49-.84-2.31-.75-3.77,0-2,.79-4.19,3.33-4,4.54"/><path class="cls-1" d="M393.34,279.1a2,2,0,0,0,2,.56"/><path class="cls-1" d="M400.74,506.53a6.33,6.33,0,0,0-1.78.56c-2,.79-4.2,3.33-4,4.55"/><path class="cls-1" d="M393.34,509.8a2.25,2.25,0,0,0,2.39.49"/><polyline class="cls-1" points="322.47 281.48 338.25 288.92 373.92 305.74"/><line class="cls-1" x1="372.08" y1="357.43" x2="372.41" y2="357.43"/><line class="cls-1" x1="352.65" y1="512.41" x2="354.5" y2="509.8"/><line class="cls-1" x1="375.77" y1="279.55" x2="372.08" y2="279.55"/><path class="cls-1" d="M166.68,276.39a1.49,1.49,0,0,1,.19,1.18,4.21,4.21,0,0,1-.69,1.48c-1,1.6-4.08,3.43-5.57,3.26"/><line class="cls-1" x1="196.19" y1="287.35" x2="199.52" y2="282.65"/><polyline class="cls-1" points="207.31 500.94 182.63 500.94 167.99 500.94 159.18 500.94 157.07 500.94"/><path class="cls-1" d="M347.24,506.55a6.5,6.5,0,0,1,1.65.54c2,.79,4.19,3.33,4,4.55"/><line class="cls-1" x1="372.08" y1="316.46" x2="375.77" y2="316.46"/><line class="cls-1" x1="153.15" y1="506.49" x2="165.22" y2="506.49"/><line class="cls-1" x1="375.77" y1="348.76" x2="372.08" y2="348.76"/><line class="cls-1" x1="447.02" y1="271.03" x2="446.91" y2="271.22"/><line class="cls-1" x1="372.08" y1="588.14" x2="375.77" y2="588.14"/><line class="cls-1" x1="372.08" y1="601.14" x2="372.08" y2="588.24"/><line class="cls-1" x1="346.97" y1="504.48" x2="345.12" y2="507.09"/><line class="cls-1" x1="166.68" y1="507.09" x2="165.64" y2="505.62"/><path class="cls-1" d="M166.68,507.09a1.49,1.49,0,0,1,.19,1.18,4.13,4.13,0,0,1-.69,1.48c-1,1.61-4.08,3.43-5.57,3.27"/><line class="cls-1" x1="372.08" y1="314.51" x2="372.08" y2="308.35"/><line class="cls-1" x1="323.39" y1="281.58" x2="325.14" y2="279.1"/><line class="cls-1" x1="353.3" y1="280.81" x2="354.5" y2="279.1"/><path class="cls-1" d="M353,279.7a5.85,5.85,0,0,1-2.22-.6"/><path class="cls-1" d="M423.17,279.49a2.13,2.13,0,0,0,1,.21"/><path class="cls-1" d="M402.26,276a3,3,0,0,0-1.9-.1"/><path class="cls-1" d="M395.34,279.66a6.27,6.27,0,0,0,1.77-.56"/><polyline class="cls-1" points="372.08 245.88 372.08 243.59 372.08 238.12"/><path class="cls-1" d="M422.71,279.1a1.1,1.1,0,0,0,.46.39"/><polyline class="cls-1" points="375.77 246 375.77 243.59 375.77 238.12"/><path class="cls-1" d="M354.5,279.1a1.72,1.72,0,0,1-1.55.6"/><line class="cls-1" x1="373.56" y1="307.23" x2="372.08" y2="307.23"/><line class="cls-1" x1="375.62" y1="307.23" x2="374.08" y2="307.23"/><line class="cls-1" x1="160.61" y1="282.31" x2="158.71" y2="282.31"/><path class="cls-1" d="M374.55,519.61a2.26,2.26,0,0,0-1.15,0"/><path class="cls-1" d="M158.71,282.31a2.33,2.33,0,0,0-1.41.68"/><path class="cls-1" d="M319.06,503.88a7.3,7.3,0,0,1,4.17,1.78,7.89,7.89,0,0,1,1.4,1.48c.68.92,1,2.05.51,2.66"/><path class="cls-1" d="M211.7,314.51a4.68,4.68,0,0,0,3,1.88,4.61,4.61,0,1,0-1.89-8.31,4.61,4.61,0,0,0-1.1,6.43Z"/><line class="cls-1" x1="422.71" y1="509.8" x2="423.34" y2="510.69"/><line class="cls-1" x1="158.76" y1="279.7" x2="156.87" y2="279.7"/><path class="cls-1" d="M400.88,504.48c-.49-.84-2.31-.74-3.77,0-2,.79-4.19,3.33-4,4.55"/><path class="cls-1" d="M380.47,516.24a2.51,2.51,0,0,0,1-.8"/><path class="cls-1" d="M325.14,279.1a1.69,1.69,0,0,1-1.46.6"/><line class="cls-1" x1="381.45" y1="515.44" x2="392.86" y2="499.31"/><line class="cls-1" x1="156.89" y1="284.09" x2="155.04" y2="281.48"/><polyline class="cls-1" points="394.53 498.33 419.22 498.33 433.86 498.33 442.66 498.33 444.77 498.33"/><path class="cls-1" d="M211.79,225.15a1.39,1.39,0,0,1,1.32-1"/><path class="cls-1" d="M165.22,275.79a1.69,1.69,0,0,1,1.46.6"/><line class="cls-1" x1="198.13" y1="521.81" x2="196.04" y2="518.85"/><line class="cls-1" x1="446.91" y1="501.92" x2="444.37" y2="505.51"/><polyline class="cls-1" points="156.89 284.09 162.15 291.53 174.04 308.35"/><path class="cls-1" d="M444.37,505.51a2.42,2.42,0,0,1-1.67,1"/><path class="cls-1" d="M442.52,502.9a2.42,2.42,0,0,1-1.67,1"/><line class="cls-1" x1="303.07" y1="267.63" x2="301.22" y2="270.24"/><line class="cls-1" x1="194.18" y1="275.81" x2="194.54" y2="275.79"/><line class="cls-1" x1="442.7" y1="506.49" x2="430.63" y2="506.49"/><line class="cls-1" x1="440.85" y1="503.88" x2="428.78" y2="503.88"/><path class="cls-1" d="M317.22,275.79a7.25,7.25,0,0,1,4.16,1.78,8,8,0,0,1,1.41,1.48,4.92,4.92,0,0,1,.61,1.18"/><path class="cls-1" d="M428.78,503.88a7.3,7.3,0,0,0-4.17,1.78,8.61,8.61,0,0,0-1.4,1.48c-.67.92-1,2.05-.5,2.66"/><line class="cls-1" x1="153.15" y1="275.79" x2="152.59" y2="275"/><path class="cls-1" d="M428.36,513.7a2,2,0,0,1-.59.74"/><path class="cls-1" d="M426.51,511.09a2,2,0,0,1-.58.74"/><polyline class="cls-1" points="427.22 514.79 411.44 522.23 376.23 538.83"/><line class="cls-1" x1="323.29" y1="512.41" x2="325.14" y2="509.8"/><path class="cls-1" d="M156.87,510.41a2.27,2.27,0,0,0-1.42.68"/><line class="cls-2" x1="366.39" y1="515.44" x2="354.98" y2="499.31"/><path class="cls-2" d="M355,499.31a2.42,2.42,0,0,0-1.67-1"/><polyline class="cls-2" points="353.31 498.33 328.63 498.33 313.99 498.33 305.18 498.33 303.07 498.33"/><line class="cls-2" x1="300.93" y1="501.92" x2="303.47" y2="505.51"/><path class="cls-2" d="M303.47,505.51a2.44,2.44,0,0,0,1.67,1"/><line class="cls-2" x1="305.14" y1="506.49" x2="317.22" y2="506.49"/><line class="cls-2" x1="321.78" y1="510.41" x2="321.5" y2="510.8"/><path class="cls-2" d="M319.49,513.7a1.93,1.93,0,0,0,.58.74"/><polyline class="cls-2" points="320.63 514.79 336.4 522.23 372.08 539.05"/><line class="cls-2" x1="372.08" y1="602.53" x2="375.77" y2="602.53"/><line class="cls-2" x1="372.08" y1="602.53" x2="372.08" y2="601.14"/><line class="cls-2" x1="375.77" y1="602.53" x2="375.77" y2="601.14"/><line class="cls-2" x1="372.08" y1="601.14" x2="372.08" y2="588.24"/><path class="cls-2" d="M188.63,510.38a7.47,7.47,0,0,1,2.32-2.51,7.2,7.2,0,0,1,3.28-1.36"/><polyline class="cls-2" points="156.89 514.79 162.15 522.23 174.04 539.05"/><line class="cls-2" x1="375.77" y1="601.14" x2="375.77" y2="588.16"/><line class="cls-2" x1="153.15" y1="506.49" x2="165.22" y2="506.49"/><line class="cls-2" x1="197.78" y1="290.6" x2="196.04" y2="288.15"/><path class="cls-2" d="M151,502.9c-.39.48-.23,1,.28,1"/><path class="cls-2" d="M210.85,586.75a1.4,1.4,0,0,1-1,1.32,1.38,1.38,0,0,1-1-.08"/><line class="cls-2" x1="198.41" y1="522.2" x2="202.59" y2="528.12"/><line class="cls-2" x1="372.08" y1="587.36" x2="372.08" y2="588.07"/><polyline class="cls-2" points="208.34 587.55 197.82 572.68 174.04 539.05"/><line class="cls-2" x1="321.21" y1="511.22" x2="319.94" y2="513.02"/><path class="cls-2" d="M211.7,545.21a4.73,4.73,0,0,0,3,1.89,4.67,4.67,0,0,0,3.44-.79,4.61,4.61,0,0,0-1.88-8.31,4.61,4.61,0,0,0-4.55,7.21Z"/><line class="cls-2" x1="210.85" y1="584.07" x2="210.85" y2="586.75"/><path class="cls-2" d="M220.08,584.07a4.61,4.61,0,0,0-4.61-4.61,4.61,4.61,0,0,0-4.62,4.61"/><path class="cls-2" d="M395.73,510.29a6.31,6.31,0,0,0,1.38-.49"/><path class="cls-2" d="M300.76,501.16a.82.82,0,0,0,.17.76"/><path class="cls-2" d="M352.61,510.38a6.09,6.09,0,0,1-1.88-.58"/><path class="cls-2" d="M227.93,601.14a1.42,1.42,0,0,1-1.39,1.39"/><polyline class="cls-2" points="227.93 530.09 227.93 565 227.93 585.7 227.93 598.16 227.93 601.14"/><line class="cls-2" x1="156.47" y1="514.21" x2="155.04" y2="512.18"/><path class="cls-2" d="M226.54,528.7a1.42,1.42,0,0,1,1.39,1.39"/><line class="cls-2" x1="203.73" y1="528.7" x2="226.54" y2="528.7"/><path class="cls-2" d="M202.59,528.12a1.42,1.42,0,0,0,1.14.58"/><path class="cls-2" d="M156.87,510.41a2.27,2.27,0,0,0-1.42.68"/><line class="cls-2" x1="158.76" y1="510.41" x2="156.87" y2="510.41"/><line class="cls-2" x1="153.15" y1="506.49" x2="153.05" y2="506.34"/><path class="cls-2" d="M155.22,498.33a2.46,2.46,0,0,0-1.67,1"/><line class="cls-2" x1="427.91" y1="513.02" x2="426.8" y2="511.44"/><polyline class="cls-2" points="205.47 498.33 180.78 498.33 166.15 498.33 157.34 498.33 155.22 498.33"/><path class="cls-2" d="M367.37,516.24a2.58,2.58,0,0,1-1-.8"/><path class="cls-2" d="M207.6,501.92c.39-.48.23-1-.28-1"/><line class="cls-2" x1="196.19" y1="518.05" x2="207.6" y2="501.92"/><line class="cls-2" x1="196.19" y1="518.05" x2="194.54" y2="515.72"/><line class="cls-2" x1="302.63" y1="498.51" x2="301.08" y2="500.7"/><line class="cls-2" x1="208.34" y1="356.85" x2="174.04" y2="308.35"/><line class="cls-2" x1="153.43" y1="275.79" x2="165.22" y2="275.79"/><line class="cls-2" x1="372.08" y1="356.85" x2="372.08" y2="357.69"/><line class="cls-2" x1="372.08" y1="314.51" x2="372.08" y2="315.23"/><path class="cls-2" d="M164.72,275.81l-.39.63c-1,1.6-4.08,3.43-5.57,3.26"/><line class="cls-2" x1="196.1" y1="288.24" x2="195.72" y2="287.69"/><line class="cls-2" x1="202.57" y1="267.63" x2="206.79" y2="246.84"/><path class="cls-2" d="M188.63,279.68a8.18,8.18,0,0,1,5.55-3.87"/><line class="cls-2" x1="372.08" y1="586.75" x2="372.08" y2="587.62"/><path class="cls-2" d="M194.08,275.81a7.38,7.38,0,0,1-2.32,2.51,7,7,0,0,1-3.37,1.37"/><line class="cls-2" x1="426.5" y1="511.02" x2="426.06" y2="510.41"/><path class="cls-2" d="M211.7,314.51a4.68,4.68,0,0,0,3,1.88,4.61,4.61,0,1,0-1.89-8.31,4.61,4.61,0,0,0-1.1,6.43Z"/><path class="cls-2" d="M211.7,281.5a4.62,4.62,0,0,0,1.1,6.43,4.61,4.61,0,0,0,6.43-1.1,4.63,4.63,0,0,0-1.1-6.44,4.61,4.61,0,0,0-6.43,1.11Z"/><path class="cls-2" d="M350.73,279.1A8.38,8.38,0,0,1,347.2,276"/><line class="cls-2" x1="209.66" y1="235.04" x2="211.79" y2="225.15"/><path class="cls-2" d="M211,236.71a1.36,1.36,0,0,1-1.09-.5,1.4,1.4,0,0,1-.29-1.17"/><line class="cls-2" x1="216.42" y1="238.12" x2="211.04" y2="236.71"/><path class="cls-2" d="M214.51,247.15a4.61,4.61,0,0,0,1.91-9"/><line class="cls-2" x1="208.41" y1="245.86" x2="214.51" y2="247.15"/><line class="cls-2" x1="428.35" y1="282.49" x2="426.5" y2="279.88"/><path class="cls-2" d="M206.79,246.84a1.39,1.39,0,0,1,1.62-1"/><line class="cls-2" x1="197.88" y1="290.75" x2="199.52" y2="282.65"/><path class="cls-2" d="M210.85,356.05a1.41,1.41,0,0,1-1,1.32,1.34,1.34,0,0,1-1-.09"/><line class="cls-2" x1="210.85" y1="353.37" x2="210.85" y2="356.05"/><path class="cls-2" d="M220.08,353.37a4.61,4.61,0,0,0-4.61-4.61,4.61,4.61,0,0,0-4.62,4.61"/><path class="cls-2" d="M317.22,506.49a7.25,7.25,0,0,1,4.16,1.78,8.32,8.32,0,0,1,1.41,1.48l.31.51"/><line class="cls-2" x1="220.08" y1="370.44" x2="220.08" y2="353.37"/><path class="cls-2" d="M221.47,371.83a1.41,1.41,0,0,1-1.39-1.39"/><line class="cls-2" x1="226.54" y1="371.83" x2="221.47" y2="371.83"/><path class="cls-2" d="M347.1,275.84a2.78,2.78,0,0,1-.36-1.28"/><path class="cls-2" d="M227.93,370.44a1.42,1.42,0,0,1-1.39,1.39"/><polyline class="cls-2" points="227.93 225.56 227.93 290.16 227.93 299.39 227.93 355 227.93 367.46 227.93 370.44"/><path class="cls-2" d="M227.68,224.18c.16,0,.25.73.25,1.38"/><line class="cls-2" x1="213.11" y1="224.18" x2="227.68" y2="224.18"/><path class="cls-2" d="M211.79,225.15a1.39,1.39,0,0,1,1.32-1"/><path class="cls-2" d="M156.87,279.7a2.32,2.32,0,0,0-1.42.68"/><line class="cls-2" x1="303.07" y1="267.63" x2="301.22" y2="270.24"/><line class="cls-2" x1="156.89" y1="284.09" x2="155.04" y2="281.48"/><line class="cls-2" x1="158.76" y1="279.7" x2="156.87" y2="279.7"/><line class="cls-2" x1="153.55" y1="268.61" x2="151.02" y2="272.2"/><path class="cls-2" d="M317.22,275.79a7.25,7.25,0,0,1,4.16,1.78,8,8,0,0,1,1.41,1.48,4.92,4.92,0,0,1,.61,1.18"/><path class="cls-2" d="M164.72,506.51l-.39.63c-1,1.61-4.08,3.43-5.57,3.27"/><path class="cls-2" d="M155.22,267.63a2.46,2.46,0,0,0-1.67,1"/><line class="cls-2" x1="323.68" y1="279.7" x2="321.78" y2="279.7"/><line class="cls-2" x1="196.19" y1="287.35" x2="199.52" y2="282.65"/><path class="cls-2" d="M367.37,285.54a2.58,2.58,0,0,1-1-.8"/><line class="cls-2" x1="445.5" y1="268.66" x2="444.78" y2="267.63"/><path class="cls-2" d="M366.39,284.74,355,268.61a2.42,2.42,0,0,0-1.67-1"/><path class="cls-2" d="M430.63,275.79a7.3,7.3,0,0,0-4.17,1.78,7.6,7.6,0,0,0-1.4,1.48c-.68.92-1,2.05-.51,2.66"/><polyline class="cls-2" points="353.31 267.63 328.63 267.63 313.99 267.63 305.18 267.63 303.07 267.63"/><path class="cls-2" d="M301.22,270.24c-.51-.05-.67.5-.29,1"/><path class="cls-2" d="M397.11,279.1c2-.79,4.2-3.33,4-4.54"/><path class="cls-2" d="M300.93,271.22l2.54,3.59a2.44,2.44,0,0,0,1.67,1"/><line class="cls-2" x1="372.08" y1="356.85" x2="372.08" y2="315.61"/><line class="cls-2" x1="305.14" y1="275.79" x2="317.22" y2="275.79"/><line class="cls-2" x1="375.77" y1="356.85" x2="375.77" y2="308.35"/><path class="cls-2" d="M319.49,283a1.88,1.88,0,0,0,.58.75"/><line class="cls-2" x1="372.08" y1="287.93" x2="372.08" y2="246.84"/><polyline class="cls-2" points="320.63 284.09 336.4 291.53 372.08 308.35"/><line class="cls-2" x1="375.77" y1="288.72" x2="375.77" y2="246.84"/><path class="cls-2" d="M380.47,285.54a2.51,2.51,0,0,0,1-.8"/><line class="cls-2" x1="381.45" y1="284.74" x2="392.86" y2="268.61"/><line class="cls-2" x1="373.65" y1="288.5" x2="367.37" y2="285.54"/><path class="cls-2" d="M392.86,268.61a2.42,2.42,0,0,1,1.67-1"/><line class="cls-2" x1="374.2" y1="288.5" x2="380.47" y2="285.54"/><polyline class="cls-2" points="394.53 267.63 419.22 267.63 433.86 267.63 442.66 267.63 444.77 267.63"/><line class="cls-2" x1="446.91" y1="271.22" x2="444.37" y2="274.81"/><path class="cls-2" d="M444.37,274.81a2.42,2.42,0,0,1-1.67,1"/><path class="cls-2" d="M347.52,275.9a7,7,0,0,1,1.37.49c2,.79,4.19,3.33,4,4.54"/><line class="cls-2" x1="442.7" y1="275.79" x2="430.63" y2="275.79"/><line class="cls-2" x1="424.17" y1="279.7" x2="426.06" y2="279.7"/><path class="cls-2" d="M428.36,283a1.92,1.92,0,0,1-.59.75"/><path class="cls-2" d="M400.36,275.89a6.7,6.7,0,0,0-1.4.5c-2,.79-4.2,3.33-4,4.54"/><polyline class="cls-2" points="427.22 284.09 411.44 291.53 375.95 308.26"/><line class="cls-2" x1="372.08" y1="225.15" x2="372.08" y2="224.18"/><line class="cls-2" x1="372.08" y1="224.18" x2="375.77" y2="224.18"/><path class="cls-2" d="M430.63,506.49a7.3,7.3,0,0,0-4.17,1.78,7.89,7.89,0,0,0-1.4,1.48,2.67,2.67,0,0,0-.61,2.48"/><line class="cls-2" x1="375.77" y1="225.15" x2="375.77" y2="224.18"/><line class="cls-2" x1="372.08" y1="371.83" x2="375.77" y2="371.83"/><line class="cls-2" x1="424.17" y1="510.41" x2="426.06" y2="510.41"/><line class="cls-2" x1="372.08" y1="371.83" x2="372.08" y2="370.44"/><line class="cls-2" x1="375.77" y1="371.83" x2="375.77" y2="370.44"/><polyline class="cls-2" points="202.57 267.63 180.78 267.63 166.15 267.63 157.34 267.63 155.22 267.63"/><line class="cls-2" x1="372.08" y1="370.44" x2="372.08" y2="357.7"/><path class="cls-2" d="M397.11,509.8c2-.79,4.2-3.32,4-4.54"/><line class="cls-2" x1="375.77" y1="370.44" x2="375.77" y2="357.31"/><path class="cls-2" d="M372.08,246.84v-1"/><line class="cls-2" x1="372.08" y1="547.16" x2="375.77" y2="547.16"/><line class="cls-2" x1="323.68" y1="510.41" x2="321.78" y2="510.41"/><line class="cls-2" x1="375.77" y1="579.46" x2="372.08" y2="579.46"/><path class="cls-2" d="M375.77,246.84v-1"/><line class="cls-2" x1="372.08" y1="238.12" x2="372.08" y2="236.71"/><path class="cls-2" d="M350.73,509.8c-2-.79-4.19-3.32-4-4.54"/><line class="cls-2" x1="375.77" y1="238.12" x2="375.77" y2="236.71"/><line class="cls-2" x1="372.08" y1="236.21" x2="372.08" y2="235.04"/><polyline class="cls-2" points="372.08 586.75 372.08 572.68 372.08 539.05"/><line class="cls-2" x1="226.54" y1="602.53" x2="221.47" y2="602.53"/><line class="cls-2" x1="375.77" y1="236.21" x2="375.77" y2="235.04"/><line class="cls-2" x1="372.08" y1="235.04" x2="372.08" y2="225.15"/><path class="cls-2" d="M221.47,602.53a1.41,1.41,0,0,1-1.39-1.39"/><polyline class="cls-2" points="375.77 587.55 375.77 572.68 375.77 539.05"/><line class="cls-2" x1="207.32" y1="500.94" x2="205.47" y2="498.33"/><path class="cls-2" d="M194.08,506.51a7.5,7.5,0,0,1-2.32,2.52,7.73,7.73,0,0,1-3,1.33"/><line class="cls-2" x1="374.2" y1="519.2" x2="380.47" y2="516.24"/><line class="cls-2" x1="321.34" y1="279.88" x2="319.5" y2="282.49"/><line class="cls-2" x1="153.55" y1="499.31" x2="151.02" y2="502.9"/><path class="cls-2" d="M400.74,506.53a6.33,6.33,0,0,0-1.78.56c-2,.79-4.2,3.33-4,4.55"/><line class="cls-2" x1="375.77" y1="348.76" x2="372.08" y2="348.76"/><line class="cls-2" x1="444.88" y1="498.49" x2="444.78" y2="498.33"/><line class="cls-2" x1="372.08" y1="357.43" x2="372.41" y2="357.43"/><line class="cls-2" x1="375.77" y1="279.55" x2="372.08" y2="279.55"/><path class="cls-2" d="M347.24,506.55a6.5,6.5,0,0,1,1.65.54c2,.79,4.19,3.33,4,4.55"/><line class="cls-2" x1="372.08" y1="316.46" x2="375.77" y2="316.46"/><line class="cls-2" x1="447.02" y1="271.03" x2="446.91" y2="271.22"/><line class="cls-2" x1="372.08" y1="588.14" x2="375.77" y2="588.14"/><line class="cls-2" x1="372.08" y1="314.51" x2="372.08" y2="308.35"/><line class="cls-2" x1="220.08" y1="601.14" x2="220.08" y2="584.07"/><path class="cls-2" d="M353,279.7a5.85,5.85,0,0,1-2.22-.6"/><path class="cls-2" d="M395.34,279.66a6.27,6.27,0,0,0,1.77-.56"/><polyline class="cls-2" points="372.08 245.88 372.08 243.59 372.08 238.12"/><polyline class="cls-2" points="375.77 246 375.77 243.59 375.77 238.12"/><line class="cls-2" x1="373.56" y1="307.23" x2="372.08" y2="307.23"/><line class="cls-2" x1="375.62" y1="307.23" x2="374.08" y2="307.23"/><line class="cls-2" x1="375.77" y1="235.04" x2="375.77" y2="225.15"/><path class="cls-2" d="M380.47,516.24a2.51,2.51,0,0,0,1-.8"/><path class="cls-2" d="M381.45,515.44l11.41-16.13a2.42,2.42,0,0,1,1.67-1"/><polyline class="cls-2" points="394.53 498.33 419.22 498.33 433.86 498.33 442.66 498.33 444.77 498.33"/><path class="cls-2" d="M446.62,500.94c.52-.05.68.5.29,1"/><polyline class="cls-2" points="156.89 284.09 162.15 291.53 174.04 308.35"/><line class="cls-2" x1="446.91" y1="501.92" x2="444.37" y2="505.51"/><path class="cls-2" d="M444.37,505.51a2.42,2.42,0,0,1-1.67,1"/><line class="cls-2" x1="442.7" y1="506.49" x2="430.63" y2="506.49"/><path class="cls-2" d="M428.36,513.7a2,2,0,0,1-.59.74"/><line class="cls-2" x1="373.65" y1="519.2" x2="367.37" y2="516.24"/><line class="cls-2" x1="153.15" y1="275.79" x2="152.59" y2="275"/><polyline class="cls-2" points="427.22 514.79 411.44 522.23 376.23 538.83"/><line class="cls-2" x1="198.13" y1="521.81" x2="196.04" y2="518.85"/><path class="cls-3" d="M172.36,576.73l-1.12-1.35a3.38,3.38,0,0,0,.84-1.41,2.28,2.28,0,0,0-.4-1.87,2.34,2.34,0,0,0-1.23-.93,4,4,0,0,0-2.2,0,9.19,9.19,0,0,0-3,1.5,4.07,4.07,0,0,1,3.56,1.74,4,4,0,0,1,.67,3.19,4.66,4.66,0,0,1-2,2.94,5.53,5.53,0,0,1-2.39,1,4.16,4.16,0,0,1-2.36-.28,4.33,4.33,0,0,1-1.84-1.52,4.54,4.54,0,0,1-.75-3.86q.53-2.07,3.55-4.21,3.39-2.4,5.82-2.23a4.42,4.42,0,0,1,3.42,2,3.85,3.85,0,0,1-.57,5.38Zm-9.18-2.3a4,4,0,0,0-1.2,1.32,2.91,2.91,0,0,0-.41,1.61,2.68,2.68,0,0,0,.49,1.44,2.47,2.47,0,0,0,1.83,1,3.56,3.56,0,0,0,2.46-.75,3.29,3.29,0,0,0,1.45-2,2.61,2.61,0,0,0-.45-2.12,2.74,2.74,0,0,0-1.86-1.16A3.1,3.1,0,0,0,163.18,574.43Z"/><path class="cls-3" d="M167.94,589.2l2.8-2-3.58-5.07,1.31-.93,11.35,0,.83,1.17-7.58,5.36,1.12,1.58-1.32.93-1.11-1.58-2.8,2Zm4.12-2.91,5.27-3.72-7.86.06Z"/><polygon class="cls-3" points="176.42 610.12 172.98 601.25 169.21 603.92 176.42 610.12"/><polygon class="cls-3" points="142.12 561.61 145.57 570.48 149.34 567.81 142.12 561.61"/><path class="cls-3" d="M267.14,331V316.64h6.35a8.62,8.62,0,0,1,2.91.38,3.24,3.24,0,0,1,1.59,1.37,4,4,0,0,1,.6,2.15,3.58,3.58,0,0,1-1,2.57,5,5,0,0,1-3.05,1.33,4.91,4.91,0,0,1,1.15.71,10.34,10.34,0,0,1,1.57,1.91l2.49,3.89h-2.38l-1.9-3c-.55-.86-1-1.52-1.36-2a4.22,4.22,0,0,0-1-.95,2.61,2.61,0,0,0-.86-.38,5.38,5.38,0,0,0-1.06-.07H269V331Zm1.9-8h4.07a6.06,6.06,0,0,0,2-.27,2.16,2.16,0,0,0,1.11-.86,2.29,2.29,0,0,0,.38-1.29,2.15,2.15,0,0,0-.73-1.67,3.49,3.49,0,0,0-2.33-.65H269Z"/><path class="cls-3" d="M280.84,327.2l1.85-.15a3.29,3.29,0,0,0,.95,2,2.56,2.56,0,0,0,1.8.68,2.82,2.82,0,0,0,2.15-.95,3.6,3.6,0,0,0,.88-2.54,3.28,3.28,0,0,0-.84-2.38,3,3,0,0,0-2.22-.86,3,3,0,0,0-1.53.38,3,3,0,0,0-1.07,1l-1.65-.21,1.38-7.36h7.12v1.68H284l-.77,3.85a4.65,4.65,0,0,1,2.7-.9,4.32,4.32,0,0,1,3.17,1.3,4.55,4.55,0,0,1,1.29,3.34,5.18,5.18,0,0,1-1.14,3.36,4.52,4.52,0,0,1-3.76,1.74,4.65,4.65,0,0,1-3.19-1.1A4.26,4.26,0,0,1,280.84,327.2Z"/><polygon class="cls-3" points="219.51 351.14 228.71 348.71 226.48 344.67 219.51 351.14"/><path class="cls-3" d="M268.74,625.58h1.69v9.47a3.14,3.14,0,0,1-1.22-.21,6.44,6.44,0,0,1-1.91-1.15,18.61,18.61,0,0,1-2.17-2.3,19.12,19.12,0,0,0-3-3.16,3.59,3.59,0,0,0-2.11-.82,2.36,2.36,0,0,0-1.77.75,3.06,3.06,0,0,0,0,4,2.89,2.89,0,0,0,2.11.77l-.19,1.81a4.46,4.46,0,0,1-3.08-1.4,4.75,4.75,0,0,1-1.06-3.25,4.53,4.53,0,0,1,1.14-3.26A3.75,3.75,0,0,1,260,625.6a4.16,4.16,0,0,1,1.68.36,6.37,6.37,0,0,1,1.75,1.16,27.56,27.56,0,0,1,2.52,2.71c.89,1.06,1.49,1.73,1.8,2a6.28,6.28,0,0,0,1,.75Z"/><path class="cls-3" d="M263.37,623.7a13,13,0,0,1-4.09-.52,5.16,5.16,0,0,1-2.39-1.55,4,4,0,0,1-.84-2.6,4.33,4.33,0,0,1,.46-2,3.82,3.82,0,0,1,1.34-1.43,7,7,0,0,1,2.13-.89,13.9,13.9,0,0,1,3.39-.33,13.27,13.27,0,0,1,4.06.52,5.17,5.17,0,0,1,2.4,1.55,4,4,0,0,1,.84,2.6,3.94,3.94,0,0,1-1.48,3.25Q267.39,623.71,263.37,623.7Zm0-1.81c2.35,0,3.91-.27,4.69-.82a2.36,2.36,0,0,0,0-4.07c-.78-.55-2.34-.83-4.68-.83s-3.93.28-4.7.83a2.43,2.43,0,0,0-1.16,2,2.27,2.27,0,0,0,1,1.94C259.4,621.59,261,621.89,263.37,621.89Z"/><polygon class="cls-3" points="273.83 602.53 271.53 611.76 276.14 611.76 273.83 602.53"/><polygon class="cls-3" points="273.83 584.07 276.14 574.84 271.53 574.84 273.83 584.07"/><path class="cls-3" d="M471.1,311.14v1.75H459.9a9.27,9.27,0,0,1,1.21,1.67,13,13,0,0,1,.91,1.85h-1.7a10.94,10.94,0,0,0-1.68-2.58,6.62,6.62,0,0,0-1.92-1.56v-1.13Z"/><path class="cls-3" d="M460.29,297.51l.13,1.75a3.39,3.39,0,0,0-1.5.66,2.35,2.35,0,0,0-.75,1.76,2.46,2.46,0,0,0,.47,1.48,4,4,0,0,0,1.77,1.31,9.35,9.35,0,0,0,3.31.49,4,4,0,0,1-1.44-1.55,4.19,4.19,0,0,1-.47-1.92,4,4,0,0,1,1.3-3,4.64,4.64,0,0,1,3.34-1.23,5.51,5.51,0,0,1,2.51.58,4.24,4.24,0,0,1,1.77,1.6,4.32,4.32,0,0,1,.61,2.3,4.5,4.5,0,0,1-1.61,3.58q-1.62,1.4-5.33,1.39-4.15,0-6-1.53a4.42,4.42,0,0,1-1.64-3.61,3.85,3.85,0,0,1,3.57-4.06Zm6.17,7.18a4.05,4.05,0,0,0,1.74-.39,2.83,2.83,0,0,0,1.26-1.07,2.73,2.73,0,0,0,.44-1.46,2.47,2.47,0,0,0-.9-1.91,3.5,3.5,0,0,0-2.44-.8,3.3,3.3,0,0,0-2.34.79,2.59,2.59,0,0,0-.86,2,2.71,2.71,0,0,0,.86,2A3.1,3.1,0,0,0,466.46,304.69Z"/><path class="cls-3" d="M464,295.51A13.08,13.08,0,0,1,460,295a5.16,5.16,0,0,1-2.39-1.55,4,4,0,0,1-.84-2.6,4.21,4.21,0,0,1,.47-2,3.74,3.74,0,0,1,1.34-1.43,7,7,0,0,1,2.12-.89,13.9,13.9,0,0,1,3.39-.33,13.34,13.34,0,0,1,4.07.52,5.14,5.14,0,0,1,2.39,1.55,4,4,0,0,1,.84,2.6,3.91,3.91,0,0,1-1.48,3.25Q468.08,295.52,464,295.51Zm0-1.81c2.35,0,3.91-.27,4.69-.82a2.35,2.35,0,0,0,0-4.07c-.79-.55-2.35-.83-4.69-.83s-3.92.28-4.7.83a2.45,2.45,0,0,0-1.16,2.05,2.27,2.27,0,0,0,1,1.94C460.08,293.4,461.69,293.7,464,293.7Z"/><polygon class="cls-3" points="474.51 371.83 476.81 362.6 472.2 362.6 474.51 371.83"/><polygon class="cls-3" points="474.51 224.18 472.2 233.41 476.81 233.41 474.51 224.18"/><path class="cls-3" d="M261.38,566.69H258v6.21h-1.62l-9.27-6.54v-1.43h9.27V563H258v1.94h3.42Zm-5,0h-6.45l6.45,4.48Z"/><path class="cls-3" d="M257.63,561.2l-.15-1.85a3.29,3.29,0,0,0,2-1,2.56,2.56,0,0,0,.68-1.8,2.81,2.81,0,0,0-1-2.15,3.56,3.56,0,0,0-2.53-.88,3.24,3.24,0,0,0-2.38.85,2.94,2.94,0,0,0-.87,2.21,3.06,3.06,0,0,0,.39,1.53,3,3,0,0,0,1,1.07l-.21,1.65-7.36-1.38v-7.12h1.68v5.71l3.85.77a4.65,4.65,0,0,1-.9-2.7,4.28,4.28,0,0,1,1.3-3.17,4.54,4.54,0,0,1,3.34-1.28,5.19,5.19,0,0,1,3.36,1.13,4.54,4.54,0,0,1,1.74,3.76,4.65,4.65,0,0,1-1.1,3.19A4.28,4.28,0,0,1,257.63,561.2Z"/><polygon class="cls-3" points="265.79 584.07 268.1 574.84 263.49 574.84 265.79 584.07"/><polygon class="cls-3" points="265.79 542.55 263.49 551.78 268.1 551.78 265.79 542.55"/><path class="cls-3" d="M136,475l1.31-1.2A3.93,3.93,0,0,0,139.4,475a2.52,2.52,0,0,0,1.84-.47,2.92,2.92,0,0,0,.72-4.13,2.64,2.64,0,0,0-1.78-1.19,2.7,2.7,0,0,0-2.1.49,4.77,4.77,0,0,0-.91.87l-.72-1.38.25-.15A3.61,3.61,0,0,0,138,467.4a2,2,0,0,0-.28-2,2.15,2.15,0,0,0-1.45-1,2.34,2.34,0,0,0-1.75.44,2.41,2.41,0,0,0-1,1.5,3.24,3.24,0,0,0,.37,2.09l-1.62.74a4.51,4.51,0,0,1-.35-3.08,4.26,4.26,0,0,1,1.78-2.42,4.78,4.78,0,0,1,2.07-.81,3.61,3.61,0,0,1,2,.27,3.54,3.54,0,0,1,1.48,1.22,3.08,3.08,0,0,1,.55,1.67,3.43,3.43,0,0,1-.53,1.84,3.34,3.34,0,0,1,2.32-.12,3.74,3.74,0,0,1,1.89,1.5,4.21,4.21,0,0,1,.68,3.39,4.88,4.88,0,0,1-2.1,3,4.51,4.51,0,0,1-3.22.85A4.31,4.31,0,0,1,136,475Z"/><path class="cls-3" d="M154,465.14l1,1.39-7.78,5.38a3.12,3.12,0,0,1-.53-1.12,6.42,6.42,0,0,1-.13-2.22,17.7,17.7,0,0,1,.66-3.09,20.13,20.13,0,0,0,.87-4.29,3.56,3.56,0,0,0-.53-2.2,2.31,2.31,0,0,0-1.61-1,2.66,2.66,0,0,0-2,.52,2.73,2.73,0,0,0-1.24,1.78,2.89,2.89,0,0,0,.56,2.17l-1.59.88A4.48,4.48,0,0,1,141,460a4.73,4.73,0,0,1,2.07-2.72,4.55,4.55,0,0,1,3.33-.92A3.73,3.73,0,0,1,149,458a4.18,4.18,0,0,1,.67,1.59,6.29,6.29,0,0,1,0,2.1,28.89,28.89,0,0,1-.8,3.61c-.36,1.33-.58,2.21-.65,2.64a6.37,6.37,0,0,0-.07,1.21Z"/><polygon class="cls-3" points="138.41 487.49 147.31 484.14 144.69 480.35 138.41 487.49"/><polygon class="cls-3" points="162.78 470.65 153.88 473.99 156.5 477.79 162.78 470.65"/><path class="cls-3" d="M354,650v-3.43h-6.21v-1.61l6.54-9.28h1.43v9.28h1.94v1.61h-1.94V650Zm0-5v-6.45l-4.48,6.45Z"/><polygon class="cls-3" points="372.08 652.36 362.85 650.05 362.85 654.66 372.08 652.36"/><polygon class="cls-3" points="375.77 652.36 385 654.66 385 650.05 375.77 652.36"/><polygon class="cls-3" points="220.08 619.37 210.85 617.06 210.85 621.68 220.08 619.37"/><polygon class="cls-3" points="227.93 619.37 237.15 621.68 237.15 617.06 227.93 619.37"/><path class="cls-3" d="M444.88,570.94a3.34,3.34,0,0,1-1.14,1.62,3,3,0,0,1-1.78.53,3.48,3.48,0,0,1-2.63-1.12,4.74,4.74,0,0,1,0-6,3.52,3.52,0,0,1,2.65-1.14,3,3,0,0,1,1.73.52,3.34,3.34,0,0,1,1.14,1.59,3.87,3.87,0,0,1,1.39-2,3.78,3.78,0,0,1,2.28-.69,4.16,4.16,0,0,1,3.09,1.3,5.29,5.29,0,0,1,0,6.84,4.17,4.17,0,0,1-3.13,1.3,3.81,3.81,0,0,1-2.34-.71A3.57,3.57,0,0,1,444.88,570.94Zm-3,.35a2.21,2.21,0,0,0,1.66-.65,2.32,2.32,0,0,0,.65-1.7,2.28,2.28,0,0,0-.64-1.66,2.1,2.1,0,0,0-1.57-.65,2.18,2.18,0,0,0-1.63.67,2.26,2.26,0,0,0-.66,1.66,2.3,2.3,0,0,0,.65,1.67A2.07,2.07,0,0,0,441.9,571.29Zm6.61.57a3.18,3.18,0,0,0,1.46-.36,2.51,2.51,0,0,0,1.09-1,3.2,3.2,0,0,0,.38-1.52,2.84,2.84,0,0,0-.81-2.08,3,3,0,0,0-4.16,0,2.89,2.89,0,0,0-.83,2.11,2.79,2.79,0,0,0,2.87,2.87Z"/><path class="cls-3" d="M445.58,562.53a13,13,0,0,1-4.08-.53,5,5,0,0,1-2.39-1.55,4,4,0,0,1-.84-2.59,4.21,4.21,0,0,1,.46-2,3.92,3.92,0,0,1,1.34-1.44,7.19,7.19,0,0,1,2.13-.89,14.4,14.4,0,0,1,3.38-.32,13,13,0,0,1,4.07.52,5.07,5.07,0,0,1,2.39,1.54,4.35,4.35,0,0,1-.64,5.86C450.21,562.05,448.27,562.53,445.58,562.53Zm0-1.81c2.35,0,3.92-.28,4.69-.83a2.35,2.35,0,0,0,0-4.07c-.78-.55-2.34-.82-4.69-.82s-3.92.27-4.7.82a2.47,2.47,0,0,0-1.16,2.06,2.24,2.24,0,0,0,1,1.93C441.62,560.42,443.23,560.72,445.58,560.72Z"/><polygon class="cls-3" points="456.05 528.7 453.74 537.93 458.36 537.93 456.05 528.7"/><polygon class="cls-3" points="456.05 602.53 458.36 593.3 453.74 593.3 456.05 602.53"/><line class="cls-1" x1="372.08" y1="356.85" x2="375.77" y2="356.85"/><line class="cls-1" x1="372.08" y1="235.04" x2="375.77" y2="235.04"/><line class="cls-1" x1="372.08" y1="535.57" x2="372.08" y2="537.76"/><line class="cls-1" x1="187.15" y1="510.5" x2="188.51" y2="512.41"/><line class="cls-1" x1="196.05" y1="507.09" x2="194.2" y2="504.48"/><line class="cls-1" x1="372.08" y1="236.71" x2="375.77" y2="236.71"/><line class="cls-1" x1="186.66" y1="279.1" x2="188.51" y2="281.71"/><line class="cls-1" x1="174.04" y1="539.05" x2="198.23" y2="521.94"/><line class="cls-1" x1="174.04" y1="308.35" x2="198.23" y2="291.24"/><line class="cls-1" x1="372.08" y1="246.84" x2="375.77" y2="246.84"/><line class="cls-1" x1="373.92" y1="305.73" x2="373.92" y2="288.63"/><line class="cls-1" x1="372.08" y1="245.86" x2="375.77" y2="245.86"/><line class="cls-1" x1="372.08" y1="238.12" x2="375.77" y2="238.12"/><line class="cls-1" x1="373.92" y1="519.74" x2="373.92" y2="536.44"/><line class="cls-1" x1="196.05" y1="276.39" x2="194.2" y2="273.78"/><line class="cls-1" x1="372.08" y1="306.95" x2="372.08" y2="308.35"/><line class="cls-1" x1="375.77" y1="307.79" x2="375.77" y2="304.86"/><line class="cls-1" x1="375.77" y1="539.05" x2="375.77" y2="538.55"/><line class="cls-1" x1="204.57" y1="590.21" x2="172.66" y2="612.78"/><line class="cls-1" x1="170.27" y1="541.71" x2="138.36" y2="564.28"/><line class="cls-1" x1="176.42" y1="610.12" x2="142.12" y2="561.61"/><line class="cls-1" x1="219.51" y1="351.14" x2="260.68" y2="328.46"/><line class="cls-1" x1="210.85" y1="353.37" x2="220.08" y2="353.37"/><line class="cls-1" x1="215.47" y1="357.98" x2="215.47" y2="348.76"/><line class="cls-1" x1="228.62" y1="602.53" x2="278.45" y2="602.53"/><line class="cls-1" x1="220.08" y1="584.07" x2="278.45" y2="584.07"/><line class="cls-1" x1="273.83" y1="636.07" x2="273.83" y2="602.53"/><line class="cls-1" x1="273.83" y1="584.07" x2="273.83" y2="570.23"/><line class="cls-1" x1="376.69" y1="371.83" x2="479.12" y2="371.83"/><line class="cls-1" x1="376.69" y1="224.18" x2="479.12" y2="224.18"/><line class="cls-1" x1="474.51" y1="371.83" x2="474.51" y2="224.18"/><line class="cls-1" x1="220.08" y1="542.55" x2="269.76" y2="542.55"/><line class="cls-1" x1="224.7" y1="584.07" x2="278.45" y2="584.07"/><line class="cls-1" x1="265.79" y1="547.16" x2="265.79" y2="584.07"/><line class="cls-1" x1="171.42" y1="535.25" x2="135.79" y2="483.69"/><line class="cls-1" x1="195.79" y1="518.41" x2="160.16" y2="466.85"/><line class="cls-1" x1="138.41" y1="487.49" x2="162.78" y2="470.65"/><line class="cls-1" x1="372.08" y1="607.14" x2="372.08" y2="656.97"/><line class="cls-1" x1="375.77" y1="607.14" x2="375.77" y2="656.97"/><line class="cls-1" x1="343.88" y1="652.36" x2="372.08" y2="652.36"/><line class="cls-1" x1="375.77" y1="652.36" x2="389.61" y2="652.36"/><line class="cls-1" x1="220.08" y1="597.22" x2="220.08" y2="623.98"/><line class="cls-1" x1="227.93" y1="597.22" x2="227.93" y2="623.98"/><line class="cls-1" x1="206.24" y1="619.37" x2="220.08" y2="619.37"/><line class="cls-1" x1="227.93" y1="619.37" x2="241.77" y2="619.37"/><line class="cls-1" x1="380.38" y1="528.7" x2="460.66" y2="528.7"/><line class="cls-1" x1="380.38" y1="602.53" x2="460.66" y2="602.53"/><line class="cls-1" x1="456.05" y1="528.7" x2="456.05" y2="602.53"/><line class="cls-2" x1="375.77" y1="539.05" x2="375.77" y2="538.55"/><line class="cls-2" x1="372.08" y1="535.57" x2="372.08" y2="537.76"/><line class="cls-2" x1="372.08" y1="245.86" x2="375.77" y2="245.86"/><line class="cls-2" x1="372.08" y1="306.95" x2="372.08" y2="308.35"/><line class="cls-2" x1="375.77" y1="307.79" x2="375.77" y2="304.86"/><path class="cls-3" d="M202.4,609.3a3.34,3.34,0,0,1-1.62-1.14,3,3,0,0,1-.53-1.78,3.48,3.48,0,0,1,1.12-2.63,4.74,4.74,0,0,1,6,0,3.52,3.52,0,0,1,1.14,2.65,2.9,2.9,0,0,1-.52,1.73,3.34,3.34,0,0,1-1.59,1.14,3.81,3.81,0,0,1,2,1.39,3.76,3.76,0,0,1,.69,2.28,4.16,4.16,0,0,1-1.3,3.09,5.29,5.29,0,0,1-6.84,0,4.2,4.2,0,0,1-1.3-3.13,3.81,3.81,0,0,1,.71-2.34A3.6,3.6,0,0,1,202.4,609.3Zm-.92,3.63a3.18,3.18,0,0,0,.36,1.46,2.48,2.48,0,0,0,1.06,1.09,3.16,3.16,0,0,0,1.51.38,2.84,2.84,0,0,0,2.08-.81,2.77,2.77,0,0,0,.82-2.06,2.82,2.82,0,0,0-.84-2.1,2.93,2.93,0,0,0-2.12-.83,2.74,2.74,0,0,0-2,.82A2.77,2.77,0,0,0,201.48,612.93Zm.57-6.61a2.21,2.21,0,0,0,.65,1.66,2.52,2.52,0,0,0,3.37,0,2.13,2.13,0,0,0,.64-1.57,2.21,2.21,0,0,0-.66-1.63,2.46,2.46,0,0,0-3.34,0A2.07,2.07,0,0,0,202.05,606.32Z"/><path class="cls-3" d="M42.83,54.78l4.35-12.26h2.61l4.3,12.26H52L48.24,44h.51L44.93,54.78Zm2.42-4.61h6.32v1.94H45.25Z"/><path class="cls-3" d="M53.36,44.5v-2h9.75v2Zm3.76,10.28v-11h2.09v11Z"/><path class="cls-3" d="M63.61,44.5v-2h9.76v2Zm3.77,10.28v-11h2.08v11Z"/><path class="cls-3" d="M72.52,54.78l4.36-12.26h2.61l4.3,12.26H81.67L77.94,44h.51L74.63,54.78ZM75,50.17h6.32v1.94H75Z"/><path class="cls-3" d="M90.22,55a6.46,6.46,0,0,1-3.28-.82,5.72,5.72,0,0,1-2.17-2.25A6.81,6.81,0,0,1,84,48.66a6.74,6.74,0,0,1,.46-2.53,5.93,5.93,0,0,1,1.29-2,6,6,0,0,1,2-1.31,6.53,6.53,0,0,1,2.49-.47,6.18,6.18,0,0,1,3.45.88,6.38,6.38,0,0,1,2.16,2.43l-2,.67a4.42,4.42,0,0,0-1.64-1.53,4.5,4.5,0,0,0-2-.43,3.89,3.89,0,0,0-3.55,2.07,4.87,4.87,0,0,0,0,4.46,4,4,0,0,0,1.46,1.52,4,4,0,0,0,2.09.55,4.5,4.5,0,0,0,2-.43A4.42,4.42,0,0,0,93.85,51l2,.66A5.84,5.84,0,0,1,90.22,55Z"/><path class="cls-3" d="M97.58,54.78V42.52h2.09V54.78Zm1.37-5v-2h6.89v2Zm6.24,5V42.52h2.09V54.78Z"/><path class="cls-3" d="M111.51,44.5l.6-.76v9.62l-.69-.56h6.18v2H110V42.52h7.58v2Zm.06,5.11v-2h5v2Z"/><path class="cls-3" d="M123.66,55.07a5.94,5.94,0,0,1-1.89-.3,4.72,4.72,0,0,1-1.64-1,5.23,5.23,0,0,1-1.24-1.73l1.69-1a4.29,4.29,0,0,0,1.35,1.53,3.34,3.34,0,0,0,1.82.49,2.26,2.26,0,0,0,1.5-.44,1.43,1.43,0,0,0,.52-1.18,1.39,1.39,0,0,0-.23-.79,2.14,2.14,0,0,0-.79-.63,7.22,7.22,0,0,0-1.61-.55,7.3,7.3,0,0,1-2.25-.89,2.88,2.88,0,0,1-1.13-1.24,3.63,3.63,0,0,1-.33-1.56,3.27,3.27,0,0,1,.49-1.81,3.31,3.31,0,0,1,1.4-1.23,4.9,4.9,0,0,1,2.18-.45,4.79,4.79,0,0,1,2.48.58,4.93,4.93,0,0,1,1.62,1.53l-1.71,1.13a2.93,2.93,0,0,0-1.14-.94,3,3,0,0,0-1.29-.28,2.39,2.39,0,0,0-1.45.37,1.23,1.23,0,0,0-.51,1.07,1.3,1.3,0,0,0,.49,1,4.64,4.64,0,0,0,1.89.78,9.33,9.33,0,0,1,2.39.89,3,3,0,0,1,1.25,1.24,3.78,3.78,0,0,1,.37,1.74,3.29,3.29,0,0,1-.52,1.83,3.73,3.73,0,0,1-1.47,1.3A4.87,4.87,0,0,1,123.66,55.07Z"/></svg>