<svg id="Calque_1" data-name="Calque 1" xmlns="http://www.w3.org/2000/svg" viewBox="0 0 595.28 841.89"><defs><style>.cls-1,.cls-2,.cls-4{fill:none;}.cls-1,.cls-2{stroke:#000100;stroke-linecap:round;stroke-linejoin:round;}.cls-1{stroke-width:0.5px;}.cls-3{fill:#000100;}</style></defs><line class="cls-1" x1="442.71" y1="380.45" x2="442.69" y2="379.22"/><line class="cls-1" x1="442.62" y1="378.08" x2="442.52" y2="376.99"/><line class="cls-1" x1="442.38" y1="375.91" x2="442.2" y2="374.82"/><line class="cls-1" x1="441.98" y1="373.73" x2="441.72" y2="372.64"/><line class="cls-1" x1="441.41" y1="371.54" x2="441.07" y2="370.45"/><line class="cls-1" x1="440.67" y1="369.36" x2="440.24" y2="368.28"/><line class="cls-1" x1="439.76" y1="367.21" x2="439.28" y2="366.24"/><line class="cls-1" x1="438.69" y1="365.14" x2="438.1" y2="364.13"/><line class="cls-1" x1="437.48" y1="363.15" x2="436.81" y2="362.19"/><line class="cls-1" x1="436.1" y1="361.25" x2="435.36" y2="360.33"/><line class="cls-1" x1="434.58" y1="359.45" x2="433.77" y2="358.59"/><line class="cls-1" x1="432.93" y1="357.76" x2="432.05" y2="356.97"/><line class="cls-1" x1="431.15" y1="356.21" x2="430.22" y2="355.49"/><line class="cls-1" x1="429.27" y1="354.8" x2="428.3" y2="354.16"/><line class="cls-1" x1="427.3" y1="353.55" x2="426.29" y2="352.98"/><line class="cls-1" x1="425.27" y1="352.45" x2="424.23" y2="351.97"/><line class="cls-1" x1="423.18" y1="351.52" x2="422.13" y2="351.12"/><line class="cls-1" x1="421.07" y1="350.76" x2="420" y2="350.44"/><line class="cls-1" x1="418.94" y1="350.16" x2="417.88" y2="349.92"/><line class="cls-1" x1="416.82" y1="349.72" x2="415.76" y2="349.55"/><line class="cls-1" x1="414.72" y1="349.43" x2="413.68" y2="349.34"/><line class="cls-1" x1="412.65" y1="349.29" x2="411.58" y2="349.26"/><line class="cls-1" x1="410.51" y1="349.26" x2="409.38" y2="349.26"/><line class="cls-1" x1="408.25" y1="349.26" x2="407.11" y2="349.26"/><line class="cls-1" x1="405.98" y1="349.26" x2="404.84" y2="349.26"/><line class="cls-1" x1="403.71" y1="349.26" x2="402.58" y2="349.26"/><line class="cls-1" x1="401.44" y1="349.26" x2="400.31" y2="349.26"/><line class="cls-1" x1="399.17" y1="349.26" x2="398.04" y2="349.26"/><line class="cls-1" x1="396.91" y1="349.26" x2="395.77" y2="349.26"/><line class="cls-1" x1="394.64" y1="349.26" x2="393.51" y2="349.26"/><line class="cls-1" x1="392.37" y1="349.26" x2="391.24" y2="349.26"/><line class="cls-1" x1="390.1" y1="349.26" x2="388.97" y2="349.26"/><line class="cls-1" x1="387.84" y1="349.26" x2="386.7" y2="349.26"/><line class="cls-1" x1="385.57" y1="349.26" x2="384.43" y2="349.26"/><line class="cls-1" x1="383.3" y1="349.26" x2="382.17" y2="349.26"/><line class="cls-1" x1="381.03" y1="349.26" x2="379.9" y2="349.26"/><line class="cls-1" x1="378.77" y1="349.26" x2="377.63" y2="349.26"/><line class="cls-1" x1="376.5" y1="349.26" x2="375.36" y2="349.26"/><line class="cls-1" x1="374.23" y1="349.26" x2="373.1" y2="349.26"/><line class="cls-1" x1="371.96" y1="349.26" x2="370.83" y2="349.26"/><line class="cls-1" x1="369.69" y1="349.26" x2="368.56" y2="349.26"/><line class="cls-1" x1="367.43" y1="349.26" x2="366.29" y2="349.26"/><line class="cls-1" x1="365.16" y1="349.26" x2="364.03" y2="349.26"/><line class="cls-1" x1="362.89" y1="349.26" x2="361.76" y2="349.26"/><line class="cls-1" x1="360.62" y1="349.26" x2="359.49" y2="349.26"/><line class="cls-1" x1="358.36" y1="349.26" x2="357.22" y2="349.26"/><line class="cls-1" x1="356.09" y1="349.26" x2="354.95" y2="349.26"/><line class="cls-1" x1="353.82" y1="349.26" x2="352.69" y2="349.26"/><line class="cls-1" x1="351.55" y1="349.26" x2="350.42" y2="349.26"/><line class="cls-1" x1="349.29" y1="349.26" x2="348.15" y2="349.26"/><line class="cls-1" x1="347.02" y1="349.26" x2="345.88" y2="349.26"/><line class="cls-1" x1="344.75" y1="349.26" x2="343.62" y2="349.26"/><line class="cls-1" x1="342.43" y1="349.26" x2="341.35" y2="349.26"/><line class="cls-1" x1="340.22" y1="349.26" x2="339.08" y2="349.26"/><line class="cls-1" x1="337.95" y1="349.26" x2="336.81" y2="349.26"/><line class="cls-1" x1="335.68" y1="349.26" x2="334.55" y2="349.26"/><line class="cls-1" x1="333.41" y1="349.26" x2="332.28" y2="349.26"/><line class="cls-1" x1="331.14" y1="349.26" x2="330.01" y2="349.26"/><line class="cls-1" x1="328.88" y1="349.26" x2="327.74" y2="349.26"/><line class="cls-1" x1="326.61" y1="349.26" x2="325.48" y2="349.26"/><line class="cls-1" x1="324.34" y1="349.26" x2="323.21" y2="349.26"/><line class="cls-1" x1="322.07" y1="349.26" x2="320.94" y2="349.26"/><line class="cls-1" x1="319.81" y1="349.26" x2="318.67" y2="349.26"/><line class="cls-1" x1="317.54" y1="349.26" x2="316.4" y2="349.26"/><line class="cls-1" x1="315.27" y1="349.26" x2="314.14" y2="349.26"/><line class="cls-1" x1="313" y1="349.26" x2="311.87" y2="349.26"/><line class="cls-1" x1="310.74" y1="349.26" x2="309.6" y2="349.26"/><line class="cls-1" x1="308.47" y1="349.26" x2="307.33" y2="349.26"/><line class="cls-1" x1="306.2" y1="349.26" x2="305.07" y2="349.26"/><line class="cls-1" x1="303.93" y1="349.26" x2="302.8" y2="349.26"/><line class="cls-1" x1="301.66" y1="349.26" x2="300.53" y2="349.26"/><line class="cls-1" x1="299.4" y1="349.26" x2="298.26" y2="349.26"/><line class="cls-1" x1="297.13" y1="349.26" x2="296" y2="349.26"/><line class="cls-1" x1="294.86" y1="349.26" x2="293.73" y2="349.26"/><line class="cls-1" x1="292.59" y1="349.26" x2="291.46" y2="349.26"/><line class="cls-1" x1="290.33" y1="349.26" x2="289.19" y2="349.26"/><line class="cls-1" x1="288.06" y1="349.26" x2="286.92" y2="349.26"/><line class="cls-1" x1="285.79" y1="349.26" x2="284.66" y2="349.26"/><line class="cls-1" x1="283.52" y1="349.26" x2="282.39" y2="349.26"/><line class="cls-1" x1="281.25" y1="349.26" x2="280.12" y2="349.26"/><line class="cls-1" x1="278.99" y1="349.26" x2="277.85" y2="349.26"/><line class="cls-1" x1="276.72" y1="349.26" x2="275.58" y2="349.26"/><line class="cls-1" x1="274.45" y1="349.26" x2="273.32" y2="349.26"/><line class="cls-1" x1="272.18" y1="349.26" x2="271.05" y2="349.26"/><line class="cls-1" x1="269.91" y1="349.26" x2="268.78" y2="349.26"/><line class="cls-1" x1="267.65" y1="349.26" x2="266.51" y2="349.26"/><line class="cls-1" x1="265.38" y1="349.26" x2="264.25" y2="349.26"/><line class="cls-1" x1="263.11" y1="349.26" x2="261.98" y2="349.26"/><line class="cls-1" x1="260.84" y1="349.26" x2="259.71" y2="349.26"/><line class="cls-1" x1="258.58" y1="349.26" x2="257.44" y2="349.26"/><line class="cls-1" x1="256.31" y1="349.26" x2="255.17" y2="349.26"/><line class="cls-1" x1="254.04" y1="349.26" x2="252.91" y2="349.26"/><line class="cls-1" x1="251.77" y1="349.26" x2="250.64" y2="349.26"/><line class="cls-1" x1="249.51" y1="349.26" x2="248.37" y2="349.26"/><line class="cls-1" x1="247.24" y1="349.26" x2="246.1" y2="349.26"/><line class="cls-1" x1="244.97" y1="349.26" x2="243.84" y2="349.26"/><line class="cls-1" x1="242.7" y1="349.26" x2="241.57" y2="349.26"/><line class="cls-1" x1="240.43" y1="349.26" x2="239.3" y2="349.26"/><line class="cls-1" x1="238.17" y1="349.26" x2="237.03" y2="349.26"/><line class="cls-1" x1="235.9" y1="349.26" x2="234.77" y2="349.26"/><line class="cls-1" x1="233.63" y1="349.26" x2="232.5" y2="349.26"/><line class="cls-1" x1="231.36" y1="349.26" x2="230.23" y2="349.26"/><line class="cls-1" x1="229.1" y1="349.26" x2="227.96" y2="349.26"/><line class="cls-1" x1="226.83" y1="349.26" x2="225.7" y2="349.26"/><line class="cls-1" x1="224.56" y1="349.26" x2="223.43" y2="349.26"/><line class="cls-1" x1="222.29" y1="349.26" x2="221.16" y2="349.26"/><line class="cls-1" x1="220.03" y1="349.26" x2="218.89" y2="349.26"/><line class="cls-1" x1="217.76" y1="349.26" x2="216.62" y2="349.26"/><line class="cls-1" x1="215.49" y1="349.26" x2="214.36" y2="349.26"/><line class="cls-1" x1="213.22" y1="349.26" x2="212.09" y2="349.26"/><line class="cls-1" x1="210.95" y1="349.26" x2="209.82" y2="349.26"/><line class="cls-1" x1="208.69" y1="349.26" x2="207.55" y2="349.26"/><line class="cls-1" x1="206.42" y1="349.26" x2="205.29" y2="349.26"/><line class="cls-1" x1="204.15" y1="349.26" x2="203.02" y2="349.26"/><line class="cls-1" x1="201.88" y1="349.26" x2="200.75" y2="349.26"/><line class="cls-1" x1="199.62" y1="349.26" x2="198.48" y2="349.26"/><line class="cls-1" x1="197.35" y1="349.26" x2="196.21" y2="349.26"/><line class="cls-1" x1="195.08" y1="349.26" x2="193.95" y2="349.26"/><line class="cls-1" x1="192.81" y1="349.26" x2="191.68" y2="349.26"/><line class="cls-1" x1="190.54" y1="349.26" x2="189.41" y2="349.26"/><line class="cls-1" x1="188.28" y1="349.27" x2="187.15" y2="349.3"/><line class="cls-1" x1="185.93" y1="349.38" x2="184.94" y2="349.48"/><line class="cls-1" x1="183.86" y1="349.63" x2="182.77" y2="349.82"/><line class="cls-1" x1="181.68" y1="350.05" x2="180.58" y2="350.32"/><line class="cls-1" x1="179.49" y1="350.63" x2="178.4" y2="350.98"/><line class="cls-1" x1="177.31" y1="351.39" x2="176.23" y2="351.83"/><line class="cls-1" x1="175.16" y1="352.31" x2="174.11" y2="352.84"/><line class="cls-1" x1="173.1" y1="353.4" x2="172.1" y2="354"/><line class="cls-1" x1="171.12" y1="354.63" x2="170.16" y2="355.31"/><line class="cls-1" x1="169.23" y1="356.02" x2="168.32" y2="356.77"/><line class="cls-1" x1="167.44" y1="357.56" x2="166.59" y2="358.38"/><line class="cls-1" x1="165.77" y1="359.22" x2="164.98" y2="360.1"/><line class="cls-1" x1="164.23" y1="361.01" x2="163.52" y2="361.94"/><line class="cls-1" x1="162.84" y1="362.9" x2="162.2" y2="363.88"/><line class="cls-1" x1="161.6" y1="364.88" x2="161.04" y2="365.89"/><line class="cls-1" x1="160.52" y1="366.92" x2="160.04" y2="367.96"/><line class="cls-1" x1="159.61" y1="369.01" x2="159.21" y2="370.06"/><line class="cls-1" x1="158.86" y1="371.12" x2="158.55" y2="372.19"/><line class="cls-1" x1="158.27" y1="373.25" x2="158.04" y2="374.31"/><line class="cls-1" x1="157.85" y1="375.37" x2="157.69" y2="376.42"/><line class="cls-1" x1="157.57" y1="377.47" x2="157.49" y2="378.51"/><polyline class="cls-1" points="157.44 379.53 157.43 380.45 157.43 380.56"/><line class="cls-1" x1="157.43" y1="381.69" x2="157.43" y2="382.82"/><line class="cls-1" x1="157.43" y1="383.96" x2="157.43" y2="385.09"/><line class="cls-1" x1="157.43" y1="386.23" x2="157.43" y2="387.36"/><line class="cls-1" x1="157.43" y1="388.49" x2="157.43" y2="389.63"/><line class="cls-1" x1="157.43" y1="390.76" x2="157.43" y2="391.9"/><line class="cls-1" x1="157.43" y1="393.03" x2="157.43" y2="394.16"/><line class="cls-1" x1="157.43" y1="395.3" x2="157.43" y2="396.43"/><line class="cls-1" x1="157.43" y1="397.56" x2="157.43" y2="398.7"/><line class="cls-1" x1="157.43" y1="399.83" x2="157.43" y2="400.97"/><line class="cls-1" x1="157.43" y1="402.1" x2="157.43" y2="403.23"/><line class="cls-1" x1="157.43" y1="404.37" x2="157.43" y2="405.5"/><line class="cls-1" x1="157.43" y1="406.64" x2="157.43" y2="407.77"/><line class="cls-1" x1="157.43" y1="408.9" x2="157.43" y2="410.04"/><line class="cls-1" x1="157.43" y1="411.17" x2="157.43" y2="412.31"/><line class="cls-1" x1="157.43" y1="413.44" x2="157.43" y2="414.57"/><line class="cls-1" x1="157.43" y1="415.71" x2="157.43" y2="416.84"/><line class="cls-1" x1="157.43" y1="417.97" x2="157.43" y2="419.11"/><line class="cls-1" x1="157.43" y1="420.24" x2="157.43" y2="421.38"/><line class="cls-1" x1="157.43" y1="422.51" x2="157.43" y2="423.64"/><line class="cls-1" x1="157.43" y1="424.78" x2="157.43" y2="425.91"/><line class="cls-1" x1="157.43" y1="427.05" x2="157.43" y2="428.18"/><line class="cls-1" x1="157.43" y1="429.31" x2="157.43" y2="430.45"/><line class="cls-1" x1="157.43" y1="431.58" x2="157.43" y2="432.72"/><line class="cls-1" x1="157.43" y1="433.85" x2="157.43" y2="434.98"/><line class="cls-1" x1="157.43" y1="436.12" x2="157.43" y2="437.25"/><line class="cls-1" x1="157.43" y1="438.39" x2="157.43" y2="439.52"/><line class="cls-1" x1="157.43" y1="440.65" x2="157.43" y2="441.79"/><line class="cls-1" x1="157.43" y1="442.92" x2="157.43" y2="444.05"/><line class="cls-1" x1="157.43" y1="445.19" x2="157.43" y2="446.32"/><line class="cls-1" x1="157.43" y1="447.46" x2="157.43" y2="448.59"/><line class="cls-1" x1="157.43" y1="449.72" x2="157.43" y2="450.86"/><line class="cls-1" x1="157.43" y1="451.99" x2="157.43" y2="453.13"/><line class="cls-1" x1="157.43" y1="454.26" x2="157.43" y2="455.39"/><line class="cls-1" x1="157.43" y1="456.53" x2="157.43" y2="457.66"/><line class="cls-1" x1="157.43" y1="458.79" x2="157.43" y2="459.93"/><line class="cls-1" x1="157.43" y1="461.06" x2="157.43" y2="462.2"/><line class="cls-1" x1="157.43" y1="463.33" x2="157.43" y2="464.46"/><line class="cls-1" x1="157.43" y1="465.6" x2="157.43" y2="466.73"/><line class="cls-1" x1="157.43" y1="467.87" x2="157.43" y2="469"/><line class="cls-1" x1="157.43" y1="470.13" x2="157.43" y2="471.27"/><line class="cls-1" x1="157.43" y1="472.4" x2="157.43" y2="473.53"/><line class="cls-1" x1="157.43" y1="474.67" x2="157.43" y2="475.8"/><line class="cls-1" x1="157.43" y1="476.94" x2="157.43" y2="478.07"/><line class="cls-1" x1="157.43" y1="479.2" x2="157.43" y2="480.34"/><line class="cls-1" x1="157.43" y1="481.47" x2="157.43" y2="482.61"/><line class="cls-1" x1="157.43" y1="483.74" x2="157.43" y2="484.87"/><line class="cls-1" x1="157.43" y1="486.01" x2="157.43" y2="487.14"/><line class="cls-1" x1="157.43" y1="488.27" x2="157.43" y2="489.41"/><line class="cls-1" x1="157.43" y1="490.54" x2="157.43" y2="491.68"/><line class="cls-1" x1="157.43" y1="492.81" x2="157.43" y2="493.94"/><line class="cls-1" x1="157.43" y1="495.08" x2="157.43" y2="496.21"/><line class="cls-1" x1="157.43" y1="497.35" x2="157.43" y2="498.48"/><line class="cls-1" x1="157.43" y1="499.61" x2="157.43" y2="500.75"/><line class="cls-1" x1="157.43" y1="501.88" x2="157.43" y2="503.01"/><line class="cls-1" x1="157.43" y1="504.15" x2="157.43" y2="505.28"/><line class="cls-1" x1="157.43" y1="506.42" x2="157.43" y2="507.55"/><line class="cls-1" x1="157.43" y1="508.68" x2="157.43" y2="509.82"/><line class="cls-1" x1="157.43" y1="510.95" x2="157.43" y2="512.09"/><line class="cls-1" x1="157.43" y1="513.22" x2="157.43" y2="514.35"/><line class="cls-1" x1="157.43" y1="515.49" x2="157.43" y2="516.62"/><line class="cls-1" x1="157.43" y1="517.75" x2="157.43" y2="518.89"/><line class="cls-1" x1="157.43" y1="520.02" x2="157.43" y2="521.16"/><line class="cls-1" x1="157.43" y1="522.29" x2="157.43" y2="523.42"/><line class="cls-1" x1="157.43" y1="524.56" x2="157.43" y2="525.69"/><line class="cls-1" x1="157.43" y1="526.83" x2="157.43" y2="527.96"/><line class="cls-1" x1="157.43" y1="529.09" x2="157.43" y2="530.23"/><line class="cls-1" x1="157.43" y1="531.36" x2="157.43" y2="532.5"/><line class="cls-1" x1="157.43" y1="533.63" x2="157.43" y2="534.76"/><line class="cls-1" x1="157.43" y1="535.9" x2="157.43" y2="537.03"/><line class="cls-1" x1="157.43" y1="538.16" x2="157.43" y2="539.3"/><line class="cls-1" x1="157.43" y1="540.43" x2="157.43" y2="541.57"/><line class="cls-1" x1="157.43" y1="542.7" x2="157.43" y2="543.83"/><line class="cls-1" x1="157.43" y1="544.97" x2="157.43" y2="546.1"/><line class="cls-1" x1="157.43" y1="547.24" x2="157.43" y2="548.37"/><line class="cls-1" x1="157.43" y1="549.5" x2="157.43" y2="550.64"/><line class="cls-1" x1="157.43" y1="551.77" x2="157.43" y2="552.9"/><line class="cls-1" x1="157.43" y1="554.04" x2="157.43" y2="555.17"/><line class="cls-1" x1="157.43" y1="556.31" x2="157.43" y2="557.44"/><line class="cls-1" x1="157.43" y1="558.57" x2="157.43" y2="559.71"/><line class="cls-1" x1="157.43" y1="560.84" x2="157.43" y2="561.98"/><line class="cls-1" x1="157.43" y1="563.11" x2="157.43" y2="564.24"/><line class="cls-1" x1="157.43" y1="565.38" x2="157.43" y2="566.51"/><line class="cls-1" x1="157.43" y1="567.64" x2="157.43" y2="568.78"/><line class="cls-1" x1="157.43" y1="569.91" x2="157.43" y2="571.05"/><line class="cls-1" x1="157.43" y1="572.18" x2="157.43" y2="573.31"/><line class="cls-1" x1="157.43" y1="574.45" x2="157.43" y2="575.58"/><line class="cls-1" x1="157.43" y1="576.72" x2="157.43" y2="577.85"/><line class="cls-1" x1="157.43" y1="578.98" x2="157.43" y2="580.12"/><line class="cls-1" x1="157.43" y1="581.25" x2="157.43" y2="582.39"/><line class="cls-1" x1="157.43" y1="583.52" x2="157.43" y2="584.65"/><line class="cls-1" x1="157.43" y1="585.79" x2="157.43" y2="586.92"/><line class="cls-1" x1="157.43" y1="588.06" x2="157.43" y2="589.19"/><line class="cls-1" x1="157.43" y1="590.32" x2="157.43" y2="591.46"/><line class="cls-1" x1="157.43" y1="592.59" x2="157.43" y2="593.72"/><line class="cls-1" x1="157.43" y1="594.86" x2="157.43" y2="595.99"/><line class="cls-1" x1="157.43" y1="597.13" x2="157.43" y2="598.26"/><line class="cls-1" x1="157.43" y1="599.39" x2="157.43" y2="600.53"/><line class="cls-1" x1="157.43" y1="601.66" x2="157.43" y2="602.8"/><line class="cls-1" x1="157.44" y1="603.92" x2="157.48" y2="605.05"/><line class="cls-1" x1="157.56" y1="606.19" x2="157.68" y2="607.26"/><line class="cls-1" x1="157.83" y1="608.34" x2="158.03" y2="609.43"/><line class="cls-1" x1="158.27" y1="610.52" x2="158.54" y2="611.61"/><line class="cls-1" x1="158.87" y1="612.71" x2="159.23" y2="613.8"/><line class="cls-1" x1="159.64" y1="614.89" x2="160.09" y2="615.96"/><line class="cls-1" x1="160.59" y1="617.03" x2="161.12" y2="618.07"/><line class="cls-1" x1="161.69" y1="619.08" x2="162.29" y2="620.08"/><line class="cls-1" x1="162.94" y1="621.05" x2="163.62" y2="622"/><line class="cls-1" x1="164.34" y1="622.93" x2="165.1" y2="623.84"/><line class="cls-1" x1="165.89" y1="624.71" x2="166.71" y2="625.56"/><line class="cls-1" x1="167.57" y1="626.37" x2="168.45" y2="627.15"/><line class="cls-1" x1="169.37" y1="627.89" x2="170.3" y2="628.6"/><line class="cls-1" x1="171.27" y1="629.27" x2="172.25" y2="629.9"/><line class="cls-1" x1="173.25" y1="630.49" x2="174.27" y2="631.05"/><line class="cls-1" x1="175.29" y1="631.56" x2="176.34" y2="632.02"/><line class="cls-1" x1="177.39" y1="632.45" x2="178.45" y2="632.84"/><line class="cls-1" x1="179.51" y1="633.18" x2="180.57" y2="633.49"/><line class="cls-1" x1="181.63" y1="633.75" x2="182.7" y2="633.98"/><line class="cls-1" x1="183.75" y1="634.16" x2="184.81" y2="634.31"/><line class="cls-1" x1="185.85" y1="634.42" x2="186.88" y2="634.49"/><polyline class="cls-1" points="187.99 634.54 188.61 634.54 188.96 634.54"/><line class="cls-1" x1="190.09" y1="634.54" x2="191.22" y2="634.54"/><line class="cls-1" x1="192.36" y1="634.54" x2="193.49" y2="634.54"/><line class="cls-1" x1="194.63" y1="634.54" x2="195.76" y2="634.54"/><line class="cls-1" x1="196.89" y1="634.54" x2="198.03" y2="634.54"/><line class="cls-1" x1="199.16" y1="634.54" x2="200.29" y2="634.54"/><line class="cls-1" x1="201.43" y1="634.54" x2="202.56" y2="634.54"/><line class="cls-1" x1="203.7" y1="634.54" x2="204.83" y2="634.54"/><line class="cls-1" x1="205.96" y1="634.54" x2="207.1" y2="634.54"/><line class="cls-1" x1="208.23" y1="634.54" x2="209.37" y2="634.54"/><line class="cls-1" x1="210.5" y1="634.54" x2="211.63" y2="634.54"/><line class="cls-1" x1="212.77" y1="634.54" x2="213.9" y2="634.54"/><line class="cls-1" x1="215.04" y1="634.54" x2="216.17" y2="634.54"/><line class="cls-1" x1="217.3" y1="634.54" x2="218.44" y2="634.54"/><line class="cls-1" x1="219.57" y1="634.54" x2="220.7" y2="634.54"/><line class="cls-1" x1="221.84" y1="634.54" x2="222.97" y2="634.54"/><line class="cls-1" x1="224.11" y1="634.54" x2="225.24" y2="634.54"/><line class="cls-1" x1="226.37" y1="634.54" x2="227.51" y2="634.54"/><line class="cls-1" x1="228.64" y1="634.54" x2="229.78" y2="634.54"/><line class="cls-1" x1="230.91" y1="634.54" x2="232.04" y2="634.54"/><line class="cls-1" x1="233.18" y1="634.54" x2="234.31" y2="634.54"/><line class="cls-1" x1="235.45" y1="634.54" x2="236.58" y2="634.54"/><line class="cls-1" x1="237.71" y1="634.54" x2="238.85" y2="634.54"/><line class="cls-1" x1="239.98" y1="634.54" x2="241.11" y2="634.54"/><line class="cls-1" x1="242.25" y1="634.54" x2="243.38" y2="634.54"/><line class="cls-1" x1="244.52" y1="634.54" x2="245.65" y2="634.54"/><line class="cls-1" x1="246.78" y1="634.54" x2="247.92" y2="634.54"/><line class="cls-1" x1="249.05" y1="634.54" x2="250.18" y2="634.54"/><line class="cls-1" x1="251.32" y1="634.54" x2="252.45" y2="634.54"/><line class="cls-1" x1="253.59" y1="634.54" x2="254.72" y2="634.54"/><line class="cls-1" x1="255.85" y1="634.54" x2="256.99" y2="634.54"/><line class="cls-1" x1="258.12" y1="634.54" x2="259.26" y2="634.54"/><line class="cls-1" x1="260.39" y1="634.54" x2="261.52" y2="634.54"/><line class="cls-1" x1="262.66" y1="634.54" x2="263.79" y2="634.54"/><line class="cls-1" x1="264.92" y1="634.54" x2="266.06" y2="634.54"/><line class="cls-1" x1="267.19" y1="634.54" x2="268.33" y2="634.54"/><line class="cls-1" x1="269.46" y1="634.54" x2="270.59" y2="634.54"/><line class="cls-1" x1="271.73" y1="634.54" x2="272.86" y2="634.54"/><line class="cls-1" x1="274" y1="634.54" x2="275.13" y2="634.54"/><line class="cls-1" x1="276.26" y1="634.54" x2="277.4" y2="634.54"/><line class="cls-1" x1="278.53" y1="634.54" x2="279.67" y2="634.54"/><line class="cls-1" x1="280.8" y1="634.54" x2="281.93" y2="634.54"/><line class="cls-1" x1="283.07" y1="634.54" x2="284.2" y2="634.54"/><line class="cls-1" x1="285.33" y1="634.54" x2="286.47" y2="634.54"/><line class="cls-1" x1="287.6" y1="634.54" x2="288.74" y2="634.54"/><line class="cls-1" x1="289.87" y1="634.54" x2="291" y2="634.54"/><line class="cls-1" x1="292.14" y1="634.54" x2="293.27" y2="634.54"/><line class="cls-1" x1="294.41" y1="634.54" x2="295.54" y2="634.54"/><line class="cls-1" x1="296.67" y1="634.54" x2="297.81" y2="634.54"/><line class="cls-1" x1="298.94" y1="634.54" x2="300.08" y2="634.54"/><line class="cls-1" x1="301.21" y1="634.54" x2="302.34" y2="634.54"/><line class="cls-1" x1="303.48" y1="634.54" x2="304.61" y2="634.54"/><line class="cls-1" x1="305.75" y1="634.54" x2="306.88" y2="634.54"/><line class="cls-1" x1="308.01" y1="634.54" x2="309.15" y2="634.54"/><line class="cls-1" x1="310.28" y1="634.54" x2="311.41" y2="634.54"/><line class="cls-1" x1="312.55" y1="634.54" x2="313.68" y2="634.54"/><line class="cls-1" x1="314.82" y1="634.54" x2="315.95" y2="634.54"/><line class="cls-1" x1="317.08" y1="634.54" x2="318.22" y2="634.54"/><line class="cls-1" x1="319.35" y1="634.54" x2="320.49" y2="634.54"/><line class="cls-1" x1="321.62" y1="634.54" x2="322.75" y2="634.54"/><line class="cls-1" x1="323.89" y1="634.54" x2="325.02" y2="634.54"/><line class="cls-1" x1="326.15" y1="634.54" x2="327.29" y2="634.54"/><line class="cls-1" x1="328.42" y1="634.54" x2="329.56" y2="634.54"/><line class="cls-1" x1="330.69" y1="634.54" x2="331.82" y2="634.54"/><line class="cls-1" x1="332.96" y1="634.54" x2="334.09" y2="634.54"/><line class="cls-1" x1="335.23" y1="634.54" x2="336.36" y2="634.54"/><line class="cls-1" x1="337.49" y1="634.54" x2="338.63" y2="634.54"/><line class="cls-1" x1="339.76" y1="634.54" x2="340.89" y2="634.54"/><line class="cls-1" x1="342.03" y1="634.54" x2="343.16" y2="634.54"/><line class="cls-1" x1="344.3" y1="634.54" x2="345.43" y2="634.54"/><line class="cls-1" x1="346.56" y1="634.54" x2="347.7" y2="634.54"/><line class="cls-1" x1="348.83" y1="634.54" x2="349.96" y2="634.54"/><line class="cls-1" x1="351.1" y1="634.54" x2="352.23" y2="634.54"/><line class="cls-1" x1="353.37" y1="634.54" x2="354.5" y2="634.54"/><line class="cls-1" x1="355.63" y1="634.54" x2="356.77" y2="634.54"/><line class="cls-1" x1="357.9" y1="634.54" x2="359.04" y2="634.54"/><line class="cls-1" x1="360.17" y1="634.54" x2="361.3" y2="634.54"/><line class="cls-1" x1="362.44" y1="634.54" x2="363.57" y2="634.54"/><line class="cls-1" x1="364.7" y1="634.54" x2="365.84" y2="634.54"/><line class="cls-1" x1="366.97" y1="634.54" x2="368.11" y2="634.54"/><line class="cls-1" x1="369.24" y1="634.54" x2="370.37" y2="634.54"/><line class="cls-1" x1="371.51" y1="634.54" x2="372.64" y2="634.54"/><line class="cls-1" x1="373.78" y1="634.54" x2="374.91" y2="634.54"/><line class="cls-1" x1="376.04" y1="634.54" x2="377.18" y2="634.54"/><line class="cls-1" x1="378.31" y1="634.54" x2="379.44" y2="634.54"/><line class="cls-1" x1="380.58" y1="634.54" x2="381.71" y2="634.54"/><line class="cls-1" x1="382.85" y1="634.54" x2="383.98" y2="634.54"/><line class="cls-1" x1="385.11" y1="634.54" x2="386.25" y2="634.54"/><line class="cls-1" x1="387.38" y1="634.54" x2="388.52" y2="634.54"/><line class="cls-1" x1="389.65" y1="634.54" x2="390.78" y2="634.54"/><line class="cls-1" x1="391.92" y1="634.54" x2="393.05" y2="634.54"/><line class="cls-1" x1="394.18" y1="634.54" x2="395.32" y2="634.54"/><line class="cls-1" x1="396.45" y1="634.54" x2="397.59" y2="634.54"/><line class="cls-1" x1="398.72" y1="634.54" x2="399.85" y2="634.54"/><line class="cls-1" x1="400.99" y1="634.54" x2="402.12" y2="634.54"/><line class="cls-1" x1="403.26" y1="634.54" x2="404.39" y2="634.54"/><line class="cls-1" x1="405.52" y1="634.54" x2="406.66" y2="634.54"/><line class="cls-1" x1="407.79" y1="634.54" x2="408.92" y2="634.54"/><line class="cls-1" x1="410.06" y1="634.54" x2="411.19" y2="634.54"/><line class="cls-1" x1="412.32" y1="634.53" x2="413.45" y2="634.48"/><line class="cls-1" x1="414.57" y1="634.39" x2="415.65" y2="634.27"/><line class="cls-1" x1="416.73" y1="634.11" x2="417.82" y2="633.9"/><line class="cls-1" x1="418.91" y1="633.66" x2="420" y2="633.37"/><line class="cls-1" x1="421.1" y1="633.04" x2="422.19" y2="632.66"/><line class="cls-1" x1="423.27" y1="632.25" x2="424.35" y2="631.79"/><line class="cls-1" x1="425.41" y1="631.28" x2="426.44" y2="630.74"/><line class="cls-1" x1="427.45" y1="630.17" x2="428.44" y2="629.56"/><line class="cls-1" x1="429.41" y1="628.9" x2="430.36" y2="628.21"/><line class="cls-1" x1="431.29" y1="627.48" x2="432.18" y2="626.72"/><line class="cls-1" x1="433.05" y1="625.92" x2="433.89" y2="625.09"/><line class="cls-1" x1="434.7" y1="624.23" x2="435.47" y2="623.34"/><line class="cls-1" x1="436.21" y1="622.42" x2="436.91" y2="621.48"/><line class="cls-1" x1="437.57" y1="620.51" x2="438.19" y2="619.53"/><line class="cls-1" x1="438.78" y1="618.52" x2="439.32" y2="617.5"/><line class="cls-1" x1="439.82" y1="616.47" x2="440.28" y2="615.43"/><line class="cls-1" x1="440.7" y1="614.37" x2="441.08" y2="613.31"/><line class="cls-1" x1="441.42" y1="612.25" x2="441.71" y2="611.19"/><line class="cls-1" x1="441.97" y1="610.13" x2="442.18" y2="609.06"/><line class="cls-1" x1="442.36" y1="608.01" x2="442.5" y2="606.96"/><line class="cls-1" x1="442.61" y1="605.91" x2="442.67" y2="604.88"/><polyline class="cls-1" points="442.71 603.78 442.71 603.36 442.71 602.79"/><line class="cls-1" x1="442.71" y1="601.65" x2="442.71" y2="600.52"/><line class="cls-1" x1="442.71" y1="599.39" x2="442.71" y2="598.25"/><line class="cls-1" x1="442.71" y1="597.12" x2="442.71" y2="595.99"/><line class="cls-1" x1="442.71" y1="594.85" x2="442.71" y2="593.72"/><line class="cls-1" x1="442.71" y1="592.58" x2="442.71" y2="591.45"/><line class="cls-1" x1="442.71" y1="590.32" x2="442.71" y2="589.18"/><line class="cls-1" x1="442.71" y1="588.05" x2="442.71" y2="586.91"/><line class="cls-1" x1="442.71" y1="585.78" x2="442.71" y2="584.65"/><line class="cls-1" x1="442.71" y1="583.51" x2="442.71" y2="582.38"/><line class="cls-1" x1="442.71" y1="581.25" x2="442.71" y2="580.11"/><line class="cls-1" x1="442.71" y1="578.98" x2="442.71" y2="577.84"/><line class="cls-1" x1="442.71" y1="576.71" x2="442.71" y2="575.58"/><line class="cls-1" x1="442.71" y1="574.44" x2="442.71" y2="573.31"/><line class="cls-1" x1="442.71" y1="572.17" x2="442.71" y2="571.04"/><line class="cls-1" x1="442.71" y1="569.91" x2="442.71" y2="568.77"/><line class="cls-1" x1="442.71" y1="567.64" x2="442.71" y2="566.51"/><line class="cls-1" x1="442.71" y1="565.37" x2="442.71" y2="564.24"/><line class="cls-1" x1="442.71" y1="563.1" x2="442.71" y2="561.97"/><line class="cls-1" x1="442.71" y1="560.84" x2="442.71" y2="559.7"/><line class="cls-1" x1="442.71" y1="558.57" x2="442.71" y2="557.44"/><line class="cls-1" x1="442.71" y1="556.3" x2="442.71" y2="555.17"/><line class="cls-1" x1="442.71" y1="554.03" x2="442.71" y2="552.9"/><line class="cls-1" x1="442.71" y1="551.77" x2="442.71" y2="550.63"/><line class="cls-1" x1="442.71" y1="549.5" x2="442.71" y2="548.36"/><line class="cls-1" x1="442.71" y1="547.23" x2="442.71" y2="546.1"/><line class="cls-1" x1="442.71" y1="544.96" x2="442.71" y2="543.83"/><line class="cls-1" x1="442.71" y1="542.7" x2="442.71" y2="541.56"/><line class="cls-1" x1="442.71" y1="540.43" x2="442.71" y2="539.29"/><line class="cls-1" x1="442.71" y1="538.16" x2="442.71" y2="537.03"/><line class="cls-1" x1="442.71" y1="535.89" x2="442.71" y2="534.76"/><line class="cls-1" x1="442.71" y1="533.62" x2="442.71" y2="532.49"/><line class="cls-1" x1="442.71" y1="531.36" x2="442.71" y2="530.22"/><line class="cls-1" x1="442.71" y1="529.09" x2="442.71" y2="527.95"/><line class="cls-1" x1="442.71" y1="526.82" x2="442.71" y2="525.69"/><line class="cls-1" x1="442.71" y1="524.55" x2="442.71" y2="523.42"/><line class="cls-1" x1="442.71" y1="522.28" x2="442.71" y2="521.15"/><line class="cls-1" x1="442.71" y1="520.02" x2="442.71" y2="518.88"/><line class="cls-1" x1="442.71" y1="517.75" x2="442.71" y2="516.62"/><line class="cls-1" x1="442.71" y1="515.48" x2="442.71" y2="514.35"/><line class="cls-1" x1="442.71" y1="513.21" x2="442.71" y2="512.08"/><line class="cls-1" x1="442.71" y1="510.95" x2="442.71" y2="509.81"/><line class="cls-1" x1="442.71" y1="508.68" x2="442.71" y2="507.54"/><line class="cls-1" x1="442.71" y1="506.41" x2="442.71" y2="505.28"/><line class="cls-1" x1="442.71" y1="504.14" x2="442.71" y2="503.01"/><line class="cls-1" x1="442.71" y1="501.88" x2="442.71" y2="500.74"/><line class="cls-1" x1="442.71" y1="499.61" x2="442.71" y2="498.47"/><line class="cls-1" x1="442.71" y1="497.34" x2="442.71" y2="496.21"/><line class="cls-1" x1="442.71" y1="495.07" x2="442.71" y2="493.94"/><line class="cls-1" x1="442.71" y1="492.8" x2="442.71" y2="491.67"/><line class="cls-1" x1="442.71" y1="490.54" x2="442.71" y2="489.4"/><line class="cls-1" x1="442.71" y1="488.27" x2="442.71" y2="487.14"/><line class="cls-1" x1="442.71" y1="486" x2="442.71" y2="484.87"/><line class="cls-1" x1="442.71" y1="483.73" x2="442.71" y2="482.6"/><line class="cls-1" x1="442.71" y1="481.47" x2="442.71" y2="480.33"/><line class="cls-1" x1="442.71" y1="479.2" x2="442.71" y2="478.06"/><line class="cls-1" x1="442.71" y1="476.93" x2="442.71" y2="475.8"/><line class="cls-1" x1="442.71" y1="474.66" x2="442.71" y2="473.53"/><line class="cls-1" x1="442.71" y1="472.39" x2="442.71" y2="471.26"/><line class="cls-1" x1="442.71" y1="470.13" x2="442.71" y2="468.99"/><line class="cls-1" x1="442.71" y1="467.86" x2="442.71" y2="466.72"/><line class="cls-1" x1="442.71" y1="465.59" x2="442.71" y2="464.46"/><line class="cls-1" x1="442.71" y1="463.32" x2="442.71" y2="462.19"/><line class="cls-1" x1="442.71" y1="461.06" x2="442.71" y2="459.92"/><line class="cls-1" x1="442.71" y1="458.79" x2="442.71" y2="457.65"/><line class="cls-1" x1="442.71" y1="456.52" x2="442.71" y2="455.39"/><line class="cls-1" x1="442.71" y1="454.25" x2="442.71" y2="453.12"/><line class="cls-1" x1="442.71" y1="451.98" x2="442.71" y2="450.85"/><line class="cls-1" x1="442.71" y1="449.72" x2="442.71" y2="448.58"/><line class="cls-1" x1="442.71" y1="447.45" x2="442.71" y2="446.32"/><line class="cls-1" x1="442.71" y1="445.18" x2="442.71" y2="444.05"/><line class="cls-1" x1="442.71" y1="442.91" x2="442.71" y2="441.78"/><line class="cls-1" x1="442.71" y1="440.65" x2="442.71" y2="439.51"/><line class="cls-1" x1="442.71" y1="438.38" x2="442.71" y2="437.24"/><line class="cls-1" x1="442.71" y1="436.11" x2="442.71" y2="434.98"/><line class="cls-1" x1="442.71" y1="433.84" x2="442.71" y2="432.71"/><line class="cls-1" x1="442.71" y1="431.57" x2="442.71" y2="430.44"/><line class="cls-1" x1="442.71" y1="429.31" x2="442.71" y2="428.17"/><line class="cls-1" x1="442.71" y1="427.04" x2="442.71" y2="425.91"/><line class="cls-1" x1="442.71" y1="424.77" x2="442.71" y2="423.64"/><line class="cls-1" x1="442.71" y1="422.5" x2="442.71" y2="421.37"/><line class="cls-1" x1="442.71" y1="420.24" x2="442.71" y2="419.1"/><line class="cls-1" x1="442.71" y1="417.97" x2="442.71" y2="416.83"/><line class="cls-1" x1="442.71" y1="415.7" x2="442.71" y2="414.57"/><line class="cls-1" x1="442.71" y1="413.43" x2="442.71" y2="412.3"/><line class="cls-1" x1="442.71" y1="411.17" x2="442.71" y2="410.03"/><line class="cls-1" x1="442.71" y1="408.9" x2="442.71" y2="407.76"/><line class="cls-1" x1="442.71" y1="406.63" x2="442.71" y2="405.5"/><line class="cls-1" x1="442.71" y1="404.36" x2="442.71" y2="403.23"/><line class="cls-1" x1="442.71" y1="402.1" x2="442.71" y2="400.96"/><line class="cls-1" x1="442.71" y1="399.83" x2="442.71" y2="398.69"/><line class="cls-1" x1="442.71" y1="397.56" x2="442.71" y2="396.43"/><line class="cls-1" x1="442.71" y1="395.29" x2="442.71" y2="394.16"/><line class="cls-1" x1="442.71" y1="393.02" x2="442.71" y2="391.89"/><line class="cls-1" x1="442.71" y1="390.76" x2="442.71" y2="389.62"/><line class="cls-1" x1="442.71" y1="388.49" x2="442.71" y2="387.36"/><line class="cls-1" x1="442.71" y1="386.22" x2="442.71" y2="385.09"/><line class="cls-1" x1="442.71" y1="383.95" x2="442.71" y2="382.82"/><line class="cls-1" x1="442.71" y1="381.69" x2="442.71" y2="380.45"/><path class="cls-1" d="M454.05,380.45V603.36a42.45,42.45,0,0,1-3,15.65,42.48,42.48,0,0,1-39.53,26.87H188.61a42.64,42.64,0,0,1-15.65-3A42.54,42.54,0,0,1,149.08,619a42.65,42.65,0,0,1-3-15.65V380.45a42.5,42.5,0,0,1,42.52-42.52H411.53a42.43,42.43,0,0,1,15.65,3,42.48,42.48,0,0,1,23.88,23.88A42.54,42.54,0,0,1,454.05,380.45Z"/><polyline class="cls-1" points="454.05 178.3 411.53 178.3 188.61 178.3 146.09 178.3"/><polyline class="cls-1" points="157.43 189.64 188.61 189.64 411.53 189.64 442.71 189.64"/><polyline class="cls-2" points="411.53 178.3 188.61 178.3 146.09 178.3"/><polyline class="cls-2" points="157.43 189.64 188.61 189.64 411.53 189.64 442.71 189.64"/><path class="cls-2" d="M454.05,380.45V603.36a42.45,42.45,0,0,1-3,15.65,42.48,42.48,0,0,1-39.53,26.87H188.61a42.64,42.64,0,0,1-15.65-3A42.54,42.54,0,0,1,149.08,619a42.65,42.65,0,0,1-3-15.65V380.45a42.5,42.5,0,0,1,42.52-42.52H411.53a42.43,42.43,0,0,1,15.65,3,42.48,42.48,0,0,1,23.88,23.88A42.54,42.54,0,0,1,454.05,380.45Z"/><line class="cls-2" x1="454.05" y1="178.3" x2="411.53" y2="178.3"/><polygon class="cls-3" points="76.39 178.3 77.81 172.63 74.97 172.63 76.39 178.3"/><polygon class="cls-3" points="76.39 189.64 74.97 195.31 77.81 195.31 76.39 189.64"/><polygon class="cls-3" points="146.09 282.8 151.76 284.21 151.76 281.38 146.09 282.8"/><polygon class="cls-3" points="454.05 282.8 448.38 281.38 448.38 284.21 454.05 282.8"/><polygon class="cls-3" points="359.6 178.3 357.76 187.51 362.31 187.29 359.6 178.3"/><polygon class="cls-3" points="387.36 245.33 382.92 237.06 379.55 240.12 387.36 245.33"/><path class="cls-1" d="M359.6,178.3c-.33,24.25,10.38,50.11,27.76,67"/><path class="cls-3" d="M516.7,304.65V290.33H523a8.33,8.33,0,0,1,2.91.39,3.2,3.2,0,0,1,1.6,1.36,4.12,4.12,0,0,1,.59,2.16,3.65,3.65,0,0,1-1,2.57,5,5,0,0,1-3,1.32,5,5,0,0,1,1.14.72,9.87,9.87,0,0,1,1.57,1.9l2.49,3.9h-2.38l-1.89-3c-.56-.86-1-1.52-1.37-2a4.29,4.29,0,0,0-1-1,2.88,2.88,0,0,0-.87-.38,5.19,5.19,0,0,0-1.05-.07h-2.2v6.36Zm1.89-8h4.07a6,6,0,0,0,2-.27,2.17,2.17,0,0,0,1.12-.86,2.34,2.34,0,0,0,.38-1.28,2.13,2.13,0,0,0-.74-1.67,3.43,3.43,0,0,0-2.33-.66h-4.53Z"/><path class="cls-3" d="M530.51,292.21v-1.69h9.27v1.36a19.76,19.76,0,0,0-2.71,3.87,23.92,23.92,0,0,0-2.07,5,18.7,18.7,0,0,0-.68,3.94h-1.8a17.62,17.62,0,0,1,.66-4.08A21.24,21.24,0,0,1,535,296a19.18,19.18,0,0,1,2.53-3.74Z"/><path class="cls-3" d="M541.52,300.9l1.85-.16a3.26,3.26,0,0,0,1,2,2.6,2.6,0,0,0,1.8.68,2.81,2.81,0,0,0,2.15-1,3.63,3.63,0,0,0,.88-2.54,3.23,3.23,0,0,0-.85-2.37,2.94,2.94,0,0,0-2.21-.87,3.1,3.1,0,0,0-1.53.38,3,3,0,0,0-1.08,1l-1.65-.22,1.39-7.35h7.12v1.68h-5.71l-.78,3.84a4.74,4.74,0,0,1,2.71-.89,4.26,4.26,0,0,1,3.16,1.3,4.51,4.51,0,0,1,1.29,3.33,5.23,5.23,0,0,1-1.13,3.36,4.54,4.54,0,0,1-3.76,1.74,4.63,4.63,0,0,1-3.19-1.09A4.3,4.3,0,0,1,541.52,300.9Z"/><polygon class="cls-3" points="442.38 351.19 450.8 346.44 447.57 343.03 442.38 351.19"/><line class="cls-1" x1="146.09" y1="178.3" x2="157.43" y2="189.64"/><line class="cls-1" x1="454.05" y1="178.3" x2="442.71" y2="189.64"/><line class="cls-1" x1="185.78" y1="178.3" x2="73.55" y2="178.3"/><line class="cls-1" x1="185.78" y1="189.64" x2="73.55" y2="189.64"/><line class="cls-1" x1="76.39" y1="163.3" x2="76.39" y2="178.3"/><line class="cls-1" x1="76.39" y1="189.64" x2="76.39" y2="220.74"/><line class="cls-1" x1="146.09" y1="377.61" x2="146.09" y2="279.96"/><line class="cls-1" x1="454.05" y1="377.61" x2="454.05" y2="279.96"/><line class="cls-1" x1="146.09" y1="282.8" x2="454.05" y2="282.8"/><line class="cls-1" x1="446.36" y1="178.3" x2="392.23" y2="178.3"/><line class="cls-1" x1="442.89" y1="189.81" x2="384.14" y2="248.55"/><polyline class="cls-1" points="442.38 351.19 496.4 299.96 505.78 299.96"/><line class="cls-1" x1="408.69" y1="380.45" x2="414.36" y2="380.45"/><line class="cls-1" x1="411.53" y1="383.28" x2="411.53" y2="377.61"/><line class="cls-2" x1="454.05" y1="178.3" x2="442.71" y2="189.64"/><line class="cls-2" x1="146.09" y1="178.3" x2="157.43" y2="189.64"/><rect class="cls-4" width="42.52" height="42.52"/><path class="cls-3" d="M363.62,224.47l-3.12,1.41,2.57,5.66-1.47.67-11.15-2.12-.59-1.31,8.45-3.83-.8-1.76,1.46-.67.8,1.76,3.12-1.41ZM359,226.55l-5.87,2.67,7.73,1.41Z"/><path class="cls-3" d="M357.94,221,357,219.4a3.26,3.26,0,0,0,1.45-1.7,2.57,2.57,0,0,0-.12-1.92,2.82,2.82,0,0,0-1.76-1.56,3.6,3.6,0,0,0-2.68.25,3.24,3.24,0,0,0-1.81,1.75,3,3,0,0,0,.12,2.37,3.14,3.14,0,0,0,1,1.24,3,3,0,0,0,1.36.56l.48,1.59-7.27,1.78-2.94-6.48,1.53-.7,2.36,5.2,3.82-.88a4.72,4.72,0,0,1-1.93-2.09,4.29,4.29,0,0,1-.13-3.42,4.59,4.59,0,0,1,2.51-2.56,5.24,5.24,0,0,1,3.53-.35,4.49,4.49,0,0,1,3.13,2.7,4.65,4.65,0,0,1,.33,3.36A4.27,4.27,0,0,1,357.94,221Z"/><path class="cls-3" d="M345.79,213.86a2.69,2.69,0,0,1-3.58-1.35,2.58,2.58,0,0,1-.08-2.07,2.71,2.71,0,1,1,3.66,3.42Zm-.44-1a1.65,1.65,0,0,0-.1-3,1.62,1.62,0,0,0-1.26,0,1.65,1.65,0,0,0-.83,2.18,1.62,1.62,0,0,0,.92.86A1.6,1.6,0,0,0,345.35,212.89Z"/><path class="cls-3" d="M68.66,211.79h1.69v9.47a3.17,3.17,0,0,1-1.22-.21,6.44,6.44,0,0,1-1.9-1.16,17.24,17.24,0,0,1-2.17-2.3,19.81,19.81,0,0,0-3-3.15,3.62,3.62,0,0,0-2.12-.82,2.35,2.35,0,0,0-1.76.75,2.68,2.68,0,0,0-.72,1.95,2.75,2.75,0,0,0,.77,2,2.91,2.91,0,0,0,2.11.77l-.19,1.8A4.42,4.42,0,0,1,57,219.53,4.75,4.75,0,0,1,56,216.28,4.57,4.57,0,0,1,57.12,213a3.76,3.76,0,0,1,2.83-1.2,4.17,4.17,0,0,1,1.69.36,6.37,6.37,0,0,1,1.75,1.16A30.27,30.27,0,0,1,65.91,216c.89,1.06,1.49,1.73,1.8,2a6.76,6.76,0,0,0,1,.75Z"/><path class="cls-3" d="M63.29,209.91a13,13,0,0,1-4.08-.52,5.05,5.05,0,0,1-2.39-1.56,4,4,0,0,1-.84-2.59,4.21,4.21,0,0,1,.46-2,3.92,3.92,0,0,1,1.34-1.44,7.19,7.19,0,0,1,2.13-.88,13.81,13.81,0,0,1,3.38-.33,13.29,13.29,0,0,1,4.07.52,5.09,5.09,0,0,1,2.39,1.55,4.34,4.34,0,0,1-.64,5.85Q67.33,209.92,63.29,209.91Zm0-1.81c2.35,0,3.92-.27,4.7-.82a2.45,2.45,0,0,0,1.16-2,2.42,2.42,0,0,0-1.17-2c-.78-.55-2.34-.83-4.69-.83s-3.92.28-4.69.83a2.44,2.44,0,0,0-1.17,2,2.25,2.25,0,0,0,1,1.93C59.33,207.8,60.94,208.1,63.29,208.1Z"/><path class="cls-3" d="M286.05,273.74l1.85-.15a3.29,3.29,0,0,0,1,2,2.56,2.56,0,0,0,1.8.68,2.83,2.83,0,0,0,2.15-1,3.6,3.6,0,0,0,.88-2.54,3.24,3.24,0,0,0-.85-2.38,3,3,0,0,0-2.21-.86,3,3,0,0,0-1.53.38,3,3,0,0,0-1.07,1l-1.65-.21,1.38-7.36h7.12v1.68h-5.71l-.77,3.85a4.65,4.65,0,0,1,2.7-.9,4.32,4.32,0,0,1,3.17,1.3,4.54,4.54,0,0,1,1.28,3.34,5.17,5.17,0,0,1-1.13,3.36,4.54,4.54,0,0,1-3.76,1.74,4.69,4.69,0,0,1-3.19-1.09A4.31,4.31,0,0,1,286.05,273.74Z"/><path class="cls-3" d="M302.81,277.49v-3.42H296.6v-1.61l6.53-9.28h1.44v9.28h1.93v1.61h-1.93v3.42Zm0-5V266l-4.48,6.46Z"/><path class="cls-3" d="M308.31,273.72l1.76-.24a3.81,3.81,0,0,0,1,2.15,2.52,2.52,0,0,0,1.77.66,2.8,2.8,0,0,0,2.09-.86,2.89,2.89,0,0,0,.86-2.12,2.7,2.7,0,0,0-2.8-2.79,5,5,0,0,0-1.24.2l.19-1.55a1.58,1.58,0,0,0,.28,0,3.65,3.65,0,0,0,2-.58,2,2,0,0,0,.89-1.81,2.12,2.12,0,0,0-.65-1.6,2.35,2.35,0,0,0-1.69-.64,2.41,2.41,0,0,0-1.71.65,3.2,3.2,0,0,0-.88,1.93l-1.76-.31a4.56,4.56,0,0,1,1.47-2.74,4.22,4.22,0,0,1,2.84-1,4.77,4.77,0,0,1,2.16.5,3.73,3.73,0,0,1,1.51,1.37,3.53,3.53,0,0,1,.52,1.85,3,3,0,0,1-.5,1.69,3.37,3.37,0,0,1-1.47,1.21,3.34,3.34,0,0,1,2,1.22,3.67,3.67,0,0,1,.7,2.31,4.19,4.19,0,0,1-1.36,3.17,4.82,4.82,0,0,1-3.46,1.31,4.53,4.53,0,0,1-3.13-1.12A4.36,4.36,0,0,1,308.31,273.72Z"/><polygon class="cls-3" points="76.39 189.69 74.08 198.92 78.7 198.92 76.39 189.69"/><polygon class="cls-3" points="76.39 178.3 78.7 169.07 74.08 169.07 76.39 178.3"/><rect class="cls-4" width="42.52" height="42.52"/><rect class="cls-4" width="42.52" height="42.52"/><rect class="cls-4" width="42.52" height="42.52"/><path class="cls-3" d="M45.56,49H48a2.51,2.51,0,0,0,1.77-.6,2.1,2.1,0,0,0,.66-1.65,2.13,2.13,0,0,0-.65-1.71A2.53,2.53,0,0,0,48,44.5H45.56L46,44V54.78H43.89V42.52h4.37a4.48,4.48,0,0,1,2.28.55A4,4,0,0,1,52,44.58a4.44,4.44,0,0,1,.54,2.21A4.38,4.38,0,0,1,52,49a3.85,3.85,0,0,1-1.51,1.51,4.62,4.62,0,0,1-2.27.54h-2.7Z"/><path class="cls-3" d="M61.63,54.78H54.42V42.52H56.5V53.3l-.36-.5h5.49Z"/><path class="cls-3" d="M62.37,54.78l4.36-12.26h2.61l4.3,12.26H71.52L67.79,44h.5L64.48,54.78Zm2.43-4.61h6.32v1.94H64.8Z"/><path class="cls-3" d="M72.9,44.5v-2h9.76v2Zm3.76,10.28v-11h2.09v11Z"/><path class="cls-3" d="M85.7,44.5l.59-.76v9.62l-.68-.56h6.18v2H84.21V42.52h7.58v2Zm0,5.11v-2h5v2Z"/><path class="cls-3" d="M93,54.78l4.36-12.26H100l4.3,12.26h-2.13L98.41,44h.5L95.1,54.78Zm2.43-4.61h6.32v1.94H95.42Z"/><path class="cls-3" d="M110.29,55a5.5,5.5,0,0,1-2.54-.56,3.89,3.89,0,0,1-1.68-1.68,5.57,5.57,0,0,1-.61-2.73V42.52h2.09v7.33a3.41,3.41,0,0,0,.71,2.29,2.95,2.95,0,0,0,4.08,0,3.41,3.41,0,0,0,.7-2.29V42.52h2.09V50a5.68,5.68,0,0,1-.6,2.73,4,4,0,0,1-1.69,1.68A5.51,5.51,0,0,1,110.29,55Z"/></svg>