<svg id="Calque_1" data-name="Calque 1" xmlns="http://www.w3.org/2000/svg" viewBox="0 0 595.28 841.89"><defs><style>.cls-1,.cls-2,.cls-3{fill:none;}.cls-1,.cls-3{stroke:#000100;stroke-linecap:round;stroke-linejoin:round;}.cls-1{stroke-width:0.5px;}.cls-4{fill:#000100;}</style></defs><line class="cls-1" x1="273.63" y1="656.7" x2="274.62" y2="656.7"/><line class="cls-1" x1="276.6" y1="656.7" x2="278.57" y2="656.7"/><line class="cls-1" x1="280.55" y1="656.7" x2="282.53" y2="656.7"/><line class="cls-1" x1="284.51" y1="656.7" x2="286.48" y2="656.7"/><line class="cls-1" x1="288.46" y1="656.7" x2="290.44" y2="656.7"/><line class="cls-1" x1="292.42" y1="656.7" x2="294.39" y2="656.7"/><line class="cls-1" x1="296.37" y1="656.7" x2="298.35" y2="656.7"/><line class="cls-1" x1="300.32" y1="656.7" x2="301.31" y2="656.7"/><line class="cls-1" x1="347.78" y1="671.53" x2="348.77" y2="671.53"/><line class="cls-1" x1="350.74" y1="671.53" x2="352.72" y2="671.53"/><line class="cls-1" x1="354.7" y1="671.53" x2="356.68" y2="671.53"/><line class="cls-1" x1="358.65" y1="671.53" x2="359.64" y2="671.53"/><line class="cls-1" x1="363.6" y1="671.53" x2="364.58" y2="671.53"/><line class="cls-1" x1="366.56" y1="671.53" x2="368.54" y2="671.53"/><line class="cls-1" x1="370.52" y1="671.53" x2="372.49" y2="671.53"/><line class="cls-1" x1="374.47" y1="671.53" x2="375.46" y2="671.53"/><line class="cls-1" x1="375.46" y1="681.41" x2="374.47" y2="681.41"/><line class="cls-1" x1="372.49" y1="681.41" x2="370.52" y2="681.41"/><line class="cls-1" x1="368.54" y1="681.41" x2="366.56" y2="681.41"/><line class="cls-1" x1="364.58" y1="681.41" x2="363.6" y2="681.41"/><line class="cls-1" x1="359.64" y1="681.41" x2="358.65" y2="681.41"/><line class="cls-1" x1="356.68" y1="681.41" x2="354.7" y2="681.41"/><line class="cls-1" x1="352.72" y1="681.41" x2="350.74" y2="681.41"/><line class="cls-1" x1="348.77" y1="681.41" x2="347.78" y2="681.41"/><line class="cls-1" x1="283.02" y1="182.93" x2="283.02" y2="181.94"/><line class="cls-1" x1="283.02" y1="179.96" x2="283.02" y2="177.98"/><line class="cls-1" x1="283.02" y1="176.01" x2="283.02" y2="174.03"/><line class="cls-1" x1="283.02" y1="172.05" x2="283.02" y2="171.07"/><line class="cls-1" x1="283.02" y1="167.11" x2="283.02" y2="166.12"/><line class="cls-1" x1="283.02" y1="164.14" x2="283.02" y2="162.17"/><line class="cls-1" x1="283.02" y1="160.19" x2="283.02" y2="158.21"/><line class="cls-1" x1="283.02" y1="156.24" x2="283.02" y2="155.25"/><line class="cls-1" x1="292.91" y1="171.07" x2="292.91" y2="172.05"/><line class="cls-1" x1="292.91" y1="174.03" x2="292.91" y2="176.01"/><line class="cls-1" x1="292.91" y1="177.98" x2="292.91" y2="179.96"/><line class="cls-1" x1="292.91" y1="181.94" x2="292.91" y2="182.93"/><line class="cls-1" x1="363.6" y1="297.61" x2="364.58" y2="297.61"/><line class="cls-1" x1="366.56" y1="297.61" x2="368.54" y2="297.61"/><line class="cls-1" x1="370.52" y1="297.61" x2="372.49" y2="297.61"/><line class="cls-1" x1="374.47" y1="297.61" x2="375.46" y2="297.61"/><line class="cls-1" x1="359.64" y1="307.49" x2="358.65" y2="307.49"/><line class="cls-1" x1="356.68" y1="307.49" x2="354.7" y2="307.49"/><line class="cls-1" x1="352.72" y1="307.49" x2="350.74" y2="307.49"/><line class="cls-1" x1="348.77" y1="307.49" x2="347.78" y2="307.49"/><line class="cls-1" x1="292.91" y1="155.25" x2="292.91" y2="156.24"/><line class="cls-1" x1="292.91" y1="158.21" x2="292.91" y2="160.19"/><line class="cls-1" x1="292.91" y1="162.17" x2="292.91" y2="164.14"/><line class="cls-1" x1="292.91" y1="166.12" x2="292.91" y2="167.11"/><line class="cls-1" x1="375.46" y1="307.49" x2="374.47" y2="307.49"/><line class="cls-1" x1="372.49" y1="307.49" x2="370.52" y2="307.49"/><line class="cls-1" x1="368.54" y1="307.49" x2="366.56" y2="307.49"/><line class="cls-1" x1="364.58" y1="307.49" x2="363.6" y2="307.49"/><line class="cls-1" x1="273.63" y1="324.07" x2="274.62" y2="324.07"/><line class="cls-1" x1="276.6" y1="324.07" x2="278.57" y2="324.07"/><line class="cls-1" x1="280.55" y1="324.07" x2="282.53" y2="324.07"/><line class="cls-1" x1="284.51" y1="324.07" x2="286.48" y2="324.07"/><line class="cls-1" x1="288.46" y1="324.07" x2="290.44" y2="324.07"/><line class="cls-1" x1="292.42" y1="324.07" x2="294.39" y2="324.07"/><line class="cls-1" x1="296.37" y1="324.07" x2="298.35" y2="324.07"/><line class="cls-1" x1="300.32" y1="324.07" x2="301.31" y2="324.07"/><line class="cls-1" x1="347.78" y1="297.61" x2="348.77" y2="297.61"/><line class="cls-1" x1="350.74" y1="297.61" x2="352.72" y2="297.61"/><line class="cls-1" x1="354.7" y1="297.61" x2="356.68" y2="297.61"/><line class="cls-1" x1="358.65" y1="297.61" x2="359.64" y2="297.61"/><line class="cls-2" x1="374.27" y1="255.24" x2="374.96" y2="254.54"/><line class="cls-2" x1="375.1" y1="261.35" x2="374.4" y2="260.65"/><line class="cls-2" x1="374.27" y1="498.63" x2="374.96" y2="497.93"/><line class="cls-2" x1="375.1" y1="504.74" x2="374.4" y2="504.04"/><path class="cls-3" d="M292.91,302.55a5,5,0,1,0-1.45,3.49A5,5,0,0,0,292.91,302.55Z"/><path class="cls-4" d="M255.91,109.26V111h-9.46a3.14,3.14,0,0,1,.21-1.22,6.44,6.44,0,0,1,1.15-1.91,18.65,18.65,0,0,1,2.3-2.16,19.49,19.49,0,0,0,3.16-3,3.66,3.66,0,0,0,.82-2.11,2.32,2.32,0,0,0-.75-1.76,2.7,2.7,0,0,0-2-.72,2.75,2.75,0,0,0-2,.76,2.89,2.89,0,0,0-.77,2.11l-1.81-.19a4.49,4.49,0,0,1,1.4-3.08,4.8,4.8,0,0,1,3.25-1.06,4.51,4.51,0,0,1,3.26,1.15,3.74,3.74,0,0,1,1.2,2.83,4.23,4.23,0,0,1-.35,1.69,6.68,6.68,0,0,1-1.16,1.75,29,29,0,0,1-2.71,2.51c-1.06.89-1.74,1.49-2,1.81a5.69,5.69,0,0,0-.74,1Z"/><path class="cls-4" d="M260.5,103.18a3.22,3.22,0,0,1-1.62-1.14,3,3,0,0,1-.53-1.78,3.47,3.47,0,0,1,1.13-2.62,4.71,4.71,0,0,1,6,0,3.51,3.51,0,0,1,1.15,2.65,2.92,2.92,0,0,1-.53,1.74,3.19,3.19,0,0,1-1.58,1.13,3.67,3.67,0,0,1,2.69,3.68,4.09,4.09,0,0,1-1.3,3.08,4.67,4.67,0,0,1-3.41,1.25,4.72,4.72,0,0,1-3.42-1.25,4.17,4.17,0,0,1-1.3-3.13,3.74,3.74,0,0,1,.71-2.34A3.54,3.54,0,0,1,260.5,103.18Zm-.91,3.64a3.13,3.13,0,0,0,.35,1.45,2.53,2.53,0,0,0,1.06,1.09,3.07,3.07,0,0,0,1.52.39,2.86,2.86,0,0,0,2.08-.81,3,3,0,0,0,0-4.16,2.86,2.86,0,0,0-2.11-.83,2.79,2.79,0,0,0-2.87,2.87Zm.56-6.61a2.23,2.23,0,0,0,.66,1.66,2.3,2.3,0,0,0,1.7.64,2.25,2.25,0,0,0,1.66-.64,2.14,2.14,0,0,0,.65-1.57,2.17,2.17,0,0,0-.67-1.62,2.26,2.26,0,0,0-1.66-.66,2.29,2.29,0,0,0-1.67.64A2.07,2.07,0,0,0,260.15,100.21Z"/><polygon class="cls-4" points="301.31 115.53 291.43 113.06 291.43 118 301.31 115.53"/><polygon class="cls-4" points="273.63 115.53 283.52 118 283.52 113.06 273.63 115.53"/><path class="cls-4" d="M321.08,196v-3.42h-6.21V191l6.53-9.27h1.44V191h1.93v1.62h-1.93V196Zm0-5v-6.45L316.6,191Z"/><polygon class="cls-4" points="363.6 200.62 373.48 203.09 373.48 198.15 363.6 200.62"/><polygon class="cls-4" points="359.64 200.62 349.75 198.15 349.75 203.09 359.64 200.62"/><path class="cls-4" d="M391.4,294.07a3.34,3.34,0,0,1-1.14,1.62,3,3,0,0,1-1.78.53,3.51,3.51,0,0,1-2.63-1.12,4.74,4.74,0,0,1,0-6,3.52,3.52,0,0,1,2.65-1.14,2.9,2.9,0,0,1,1.73.52,3.34,3.34,0,0,1,1.14,1.59,3.87,3.87,0,0,1,1.39-2,3.78,3.78,0,0,1,2.28-.69,4.11,4.11,0,0,1,3.09,1.3,5.29,5.29,0,0,1,0,6.84,4.19,4.19,0,0,1-3.13,1.3,3.81,3.81,0,0,1-2.34-.71A3.6,3.6,0,0,1,391.4,294.07Zm-3,.35a2.25,2.25,0,0,0,1.66-.65,2.52,2.52,0,0,0,0-3.37,2.14,2.14,0,0,0-1.57-.65,2.22,2.22,0,0,0-1.63.67,2.46,2.46,0,0,0,0,3.34A2.07,2.07,0,0,0,388.42,294.42ZM395,295a3.18,3.18,0,0,0,1.46-.36,2.53,2.53,0,0,0,1.09-1.06,3.16,3.16,0,0,0,.38-1.51,2.84,2.84,0,0,0-.81-2.08,2.77,2.77,0,0,0-2.06-.82,2.83,2.83,0,0,0-2.1.84,2.93,2.93,0,0,0-.83,2.12A2.8,2.8,0,0,0,395,295Z"/><path class="cls-4" d="M397.47,276.41h1.69v9.47a3.17,3.17,0,0,1-1.22-.21,6.4,6.4,0,0,1-1.9-1.15,18.59,18.59,0,0,1-2.17-2.3,20,20,0,0,0-3-3.16,3.62,3.62,0,0,0-2.12-.82A2.35,2.35,0,0,0,387,279a2.7,2.7,0,0,0-.72,1.95,2.75,2.75,0,0,0,.77,2,2.86,2.86,0,0,0,2.1.77l-.18,1.81a4.44,4.44,0,0,1-3.08-1.4,4.75,4.75,0,0,1-1.06-3.25,4.53,4.53,0,0,1,1.14-3.26,3.73,3.73,0,0,1,2.83-1.21,4.17,4.17,0,0,1,1.69.36A6.37,6.37,0,0,1,392.2,278a30.27,30.27,0,0,1,2.52,2.71c.89,1.06,1.49,1.73,1.8,2a6.76,6.76,0,0,0,1,.75Z"/><polygon class="cls-4" points="403.74 324.3 406.21 314.41 401.27 314.41 403.74 324.3"/><polygon class="cls-4" points="403.74 243.23 401.27 253.12 406.21 253.12 403.74 243.23"/><line class="cls-1" x1="273.63" y1="490.38" x2="273.63" y2="243.23"/><line class="cls-1" x1="301.31" y1="243.23" x2="273.63" y2="243.23"/><line class="cls-1" x1="363.6" y1="243.23" x2="363.6" y2="324.3"/><line class="cls-1" x1="375.46" y1="737.53" x2="363.6" y2="737.53"/><line class="cls-3" x1="359.64" y1="324.3" x2="363.6" y2="324.3"/><line class="cls-1" x1="359.64" y1="243.23" x2="347.78" y2="243.23"/><line class="cls-3" x1="359.64" y1="737.53" x2="359.64" y2="656.47"/><line class="cls-1" x1="375.46" y1="243.23" x2="363.6" y2="243.23"/><line class="cls-3" x1="359.64" y1="656.47" x2="363.6" y2="656.47"/><line class="cls-1" x1="273.63" y1="182.93" x2="273.63" y2="171.07"/><line class="cls-1" x1="273.63" y1="490.38" x2="273.63" y2="737.53"/><line class="cls-1" x1="301.31" y1="155.25" x2="301.31" y2="167.11"/><line class="cls-1" x1="301.31" y1="171.07" x2="301.31" y2="167.11"/><line class="cls-1" x1="273.63" y1="167.11" x2="273.63" y2="155.25"/><line class="cls-1" x1="273.63" y1="167.11" x2="273.63" y2="171.07"/><line class="cls-1" x1="347.78" y1="490.38" x2="347.78" y2="243.23"/><line class="cls-1" x1="375.46" y1="490.38" x2="375.46" y2="243.23"/><line class="cls-1" x1="301.31" y1="167.11" x2="273.63" y2="167.11"/><line class="cls-1" x1="347.78" y1="490.38" x2="347.78" y2="737.53"/><line class="cls-1" x1="375.46" y1="490.38" x2="375.46" y2="737.53"/><line class="cls-1" x1="301.31" y1="171.07" x2="301.31" y2="182.93"/><line class="cls-1" x1="301.31" y1="490.38" x2="301.31" y2="243.23"/><line class="cls-1" x1="301.31" y1="737.53" x2="273.63" y2="737.53"/><line class="cls-1" x1="301.31" y1="490.38" x2="301.31" y2="737.53"/><line class="cls-1" x1="273.63" y1="171.07" x2="301.31" y2="171.07"/><line class="cls-1" x1="301.31" y1="182.93" x2="273.63" y2="182.93"/><line class="cls-1" x1="273.63" y1="155.25" x2="301.31" y2="155.25"/><line class="cls-1" x1="359.64" y1="737.53" x2="347.78" y2="737.53"/><line class="cls-1" x1="359.64" y1="243.23" x2="359.64" y2="324.3"/><line class="cls-3" x1="359.64" y1="243.23" x2="359.64" y2="324.3"/><path class="cls-4" d="M229.36,334V319.66h6.35a8.7,8.7,0,0,1,2.91.38,3.22,3.22,0,0,1,1.59,1.36,4.08,4.08,0,0,1,.59,2.16,3.59,3.59,0,0,1-1,2.57,5,5,0,0,1-3,1.33,5,5,0,0,1,1.14.71,9.68,9.68,0,0,1,1.58,1.91L242,334h-2.39l-1.89-3c-.55-.85-1-1.51-1.37-2a4.77,4.77,0,0,0-1-1,3.1,3.1,0,0,0-.86-.38,6.58,6.58,0,0,0-1.06-.06h-2.2V334Zm1.89-8h4.08a6.1,6.1,0,0,0,2-.27,2.16,2.16,0,0,0,1.11-.86,2.37,2.37,0,0,0,.38-1.29,2.12,2.12,0,0,0-.74-1.67,3.47,3.47,0,0,0-2.33-.65h-4.53Z"/><path class="cls-4" d="M243.06,330.22l1.85-.15a3.23,3.23,0,0,0,1,2,2.56,2.56,0,0,0,1.8.68,2.81,2.81,0,0,0,2.15-1,3.61,3.61,0,0,0,.88-2.53,3.24,3.24,0,0,0-.85-2.38,2.94,2.94,0,0,0-2.21-.87,3.1,3.1,0,0,0-2.61,1.39l-1.65-.21,1.39-7.36h7.12v1.68h-5.71l-.78,3.85a4.68,4.68,0,0,1,2.71-.9,4.26,4.26,0,0,1,3.16,1.3,4.55,4.55,0,0,1,1.29,3.34,5.23,5.23,0,0,1-1.13,3.36,4.54,4.54,0,0,1-3.76,1.74,4.63,4.63,0,0,1-3.19-1.1A4.28,4.28,0,0,1,243.06,330.22Z"/><polygon class="cls-4" points="284.11 304.74 280.16 314.13 276.2 311.17 284.11 304.74"/><polyline class="cls-1" points="283.05 306.27 265.22 330.05 258.61 330.05"/><line class="cls-1" x1="280.2" y1="302.55" x2="295.73" y2="302.55"/><line class="cls-1" x1="287.97" y1="310.32" x2="287.97" y2="294.78"/><line class="cls-1" x1="301.31" y1="150.3" x2="301.31" y2="110.58"/><line class="cls-1" x1="273.63" y1="150.3" x2="273.63" y2="110.58"/><line class="cls-1" x1="301.31" y1="115.53" x2="242.87" y2="115.53"/><line class="cls-1" x1="363.6" y1="238.29" x2="363.6" y2="195.68"/><line class="cls-1" x1="359.64" y1="238.29" x2="359.64" y2="195.68"/><line class="cls-1" x1="378.43" y1="200.62" x2="363.6" y2="200.62"/><line class="cls-1" x1="359.64" y1="200.62" x2="312.71" y2="200.62"/><line class="cls-1" x1="368.54" y1="324.3" x2="408.69" y2="324.3"/><line class="cls-1" x1="368.54" y1="243.23" x2="408.69" y2="243.23"/><line class="cls-1" x1="403.74" y1="324.3" x2="403.74" y2="243.23"/><line class="cls-3" x1="273.63" y1="155.25" x2="301.31" y2="155.25"/><line class="cls-3" x1="301.31" y1="182.93" x2="273.63" y2="182.93"/><line class="cls-3" x1="301.31" y1="490.38" x2="301.31" y2="737.53"/><line class="cls-3" x1="273.63" y1="490.38" x2="273.63" y2="737.53"/><line class="cls-3" x1="301.31" y1="490.38" x2="301.31" y2="243.23"/><line class="cls-3" x1="273.63" y1="490.38" x2="273.63" y2="243.23"/><line class="cls-3" x1="347.78" y1="490.38" x2="347.78" y2="737.53"/><line class="cls-3" x1="375.46" y1="490.38" x2="375.46" y2="737.53"/><line class="cls-3" x1="347.78" y1="490.38" x2="347.78" y2="243.23"/><line class="cls-3" x1="375.46" y1="490.38" x2="375.46" y2="243.23"/><line class="cls-3" x1="301.31" y1="171.07" x2="301.31" y2="182.93"/><line class="cls-3" x1="273.63" y1="167.11" x2="273.63" y2="155.25"/><line class="cls-3" x1="301.31" y1="171.07" x2="301.31" y2="167.11"/><line class="cls-3" x1="273.63" y1="167.11" x2="273.63" y2="171.07"/><line class="cls-3" x1="301.31" y1="155.25" x2="301.31" y2="167.11"/><line class="cls-3" x1="273.63" y1="182.93" x2="273.63" y2="171.07"/><line class="cls-3" x1="301.31" y1="737.53" x2="273.63" y2="737.53"/><line class="cls-3" x1="301.31" y1="243.23" x2="273.63" y2="243.23"/><line class="cls-3" x1="359.64" y1="737.53" x2="347.78" y2="737.53"/><line class="cls-3" x1="375.46" y1="737.53" x2="363.6" y2="737.53"/><line class="cls-3" x1="359.64" y1="243.23" x2="347.78" y2="243.23"/><polyline class="cls-3" points="375.46 243.23 363.6 243.23 363.6 324.3"/><line class="cls-3" x1="363.6" y1="737.53" x2="363.6" y2="656.47"/><path class="cls-3" d="M293.82,258.06a5.86,5.86,0,1,0-1.71,4.14A5.93,5.93,0,0,0,293.82,258.06Z"/><path class="cls-3" d="M292.91,722.2a5,5,0,1,0-1.45,3.49A5,5,0,0,0,292.91,722.2Z"/><path class="cls-3" d="M293.82,677.71a5.86,5.86,0,1,0-1.71,4.14A5.93,5.93,0,0,0,293.82,677.71Z"/><path class="cls-2" d="M283,678.07a4.94,4.94,0,1,0,9.88,0,4.94,4.94,0,1,0-9.88,0Z"/><path class="cls-2" d="M285,722.56a3,3,0,0,0,3,3,3.08,3.08,0,0,0,2.1-.87,3,3,0,0,0,0-4.2,3,3,0,0,0-4.2,0A3,3,0,0,0,285,722.56Z"/><path class="cls-2" d="M285,722.56a3,3,0,0,0,3,3,3.08,3.08,0,0,0,2.1-.87,3,3,0,0,0,0-4.2,3,3,0,0,0-4.2,0A3,3,0,0,0,285,722.56Z"/><path class="cls-2" d="M283.51,722.56a4.47,4.47,0,1,0,1.31-3.15A4.47,4.47,0,0,0,283.51,722.56Z"/><path class="cls-2" d="M282.11,722.56a5.86,5.86,0,1,0,11.71,0,5.86,5.86,0,0,0-11.71,0Z"/><line class="cls-2" x1="374.27" y1="719.74" x2="374.96" y2="719.04"/><line class="cls-2" x1="375.1" y1="725.84" x2="374.4" y2="725.14"/><path class="cls-4" d="M42.7,44.5v-2h9.76v2Zm3.76,10.28v-11h2.09v11Z"/><path class="cls-4" d="M51.61,54.78,56,42.52h2.61l4.3,12.26H60.75L57,44h.5L53.72,54.78ZM54,50.17h6.32v1.94H54Z"/><path class="cls-4" d="M68.24,55.07a5.94,5.94,0,0,1-1.89-.3,4.72,4.72,0,0,1-1.64-1,5.23,5.23,0,0,1-1.24-1.73l1.69-1a4.29,4.29,0,0,0,1.35,1.53,3.34,3.34,0,0,0,1.82.49,2.26,2.26,0,0,0,1.5-.44,1.43,1.43,0,0,0,.52-1.18,1.39,1.39,0,0,0-.23-.79,2.14,2.14,0,0,0-.79-.63,7.22,7.22,0,0,0-1.61-.55,7.3,7.3,0,0,1-2.25-.89,2.94,2.94,0,0,1-1.13-1.24A3.63,3.63,0,0,1,64,45.81,3.27,3.27,0,0,1,64.5,44a3.31,3.31,0,0,1,1.4-1.23,4.9,4.9,0,0,1,2.18-.45,4.73,4.73,0,0,1,2.47.58,4.87,4.87,0,0,1,1.63,1.53l-1.71,1.13A3,3,0,0,0,68,44.34a2.39,2.39,0,0,0-1.45.37,1.23,1.23,0,0,0-.51,1.07,1.3,1.3,0,0,0,.49,1,4.64,4.64,0,0,0,1.89.78,9.33,9.33,0,0,1,2.39.89,3,3,0,0,1,1.25,1.24,3.78,3.78,0,0,1,.37,1.74A3.29,3.29,0,0,1,72,53.28a3.73,3.73,0,0,1-1.47,1.3A4.87,4.87,0,0,1,68.24,55.07Z"/><path class="cls-4" d="M78.25,55.07a5.94,5.94,0,0,1-1.89-.3,4.63,4.63,0,0,1-1.64-1,5.23,5.23,0,0,1-1.24-1.73l1.69-1a4.29,4.29,0,0,0,1.35,1.53,3.34,3.34,0,0,0,1.82.49,2.26,2.26,0,0,0,1.5-.44,1.46,1.46,0,0,0,.52-1.18,1.39,1.39,0,0,0-.23-.79,2.14,2.14,0,0,0-.79-.63,7.41,7.41,0,0,0-1.61-.55,7.3,7.3,0,0,1-2.25-.89,3,3,0,0,1-1.14-1.24A3.78,3.78,0,0,1,74,45.81,3.27,3.27,0,0,1,74.51,44a3.31,3.31,0,0,1,1.4-1.23,4.9,4.9,0,0,1,2.18-.45,4.75,4.75,0,0,1,2.47.58,4.87,4.87,0,0,1,1.63,1.53l-1.71,1.13a3,3,0,0,0-2.43-1.22,2.44,2.44,0,0,0-1.46.37,1.25,1.25,0,0,0-.5,1.07,1.3,1.3,0,0,0,.49,1,4.64,4.64,0,0,0,1.89.78,9.47,9.47,0,0,1,2.39.89,3,3,0,0,1,1.25,1.24,3.78,3.78,0,0,1,.37,1.74A3.29,3.29,0,0,1,82,53.28a3.73,3.73,0,0,1-1.47,1.3A4.9,4.9,0,0,1,78.25,55.07Z"/><path class="cls-4" d="M85.88,44.5l.6-.76v9.62l-.69-.56H92v2H84.39V42.52H92v2Zm.06,5.11v-2h5v2Z"/><path class="cls-4" d="M93.17,54.78l4.36-12.26h2.61l4.3,12.26h-2.12L98.59,44h.5L95.28,54.78Zm2.43-4.61h6.32v1.94H95.6Z"/><path class="cls-4" d="M110.47,55a5.5,5.5,0,0,1-2.54-.56,3.89,3.89,0,0,1-1.68-1.68,5.68,5.68,0,0,1-.6-2.73V42.52h2.08v7.33a3.41,3.41,0,0,0,.71,2.29,2.95,2.95,0,0,0,4.08,0,3.41,3.41,0,0,0,.7-2.29V42.52h2.09V50a5.68,5.68,0,0,1-.6,2.73A3.89,3.89,0,0,1,113,54.42,5.55,5.55,0,0,1,110.47,55Z"/><path class="cls-4" d="M119.24,42.52l3.36,4.93h-.48l3.36-4.93H128L123.45,49l-.25-.87,4.78,6.7h-2.52l-3.63-5.2h.84l-3.56,5.2h-2.52l4.73-6.7,0,.87-4.52-6.43Z"/></svg>